G75*
G70*
%OFA0B0*%
%FSLAX24Y24*%
%IPPOS*%
%LPD*%
%AMOC8*
5,1,8,0,0,1.08239X$1,22.5*
%
%ADD10C,0.0030*%
%ADD11C,0.0594*%
%ADD12C,0.0160*%
%ADD13C,0.0290*%
%ADD14C,0.0080*%
%ADD15C,0.0376*%
D10*
X003926Y000657D02*
X004066Y000657D01*
X003996Y000657D02*
X003996Y000447D01*
X004147Y000482D02*
X004147Y000622D01*
X004182Y000657D01*
X004252Y000657D01*
X004287Y000622D01*
X004287Y000482D01*
X004252Y000447D01*
X004182Y000447D01*
X004147Y000482D01*
X004368Y000482D02*
X004403Y000447D01*
X004508Y000447D01*
X004508Y000657D01*
X004403Y000657D01*
X004368Y000622D01*
X004368Y000587D01*
X004403Y000552D01*
X004508Y000552D01*
X004403Y000552D02*
X004368Y000517D01*
X004368Y000482D01*
D11*
X004173Y023395D02*
X004173Y023989D01*
X005173Y023989D02*
X005173Y023395D01*
X006173Y023395D02*
X006173Y023989D01*
X003173Y023989D02*
X003173Y023395D01*
X002173Y023395D02*
X002173Y023989D01*
D12*
X000561Y009397D02*
X000561Y000392D01*
X003801Y000392D01*
X003801Y000506D01*
X003731Y000576D01*
X003731Y000738D01*
X003845Y000852D01*
X004147Y000852D01*
X004171Y000852D01*
X004171Y000852D01*
X004247Y000852D01*
X004263Y000852D01*
X004333Y000852D01*
X004484Y000852D01*
X004589Y000852D01*
X004703Y000738D01*
X004703Y000633D01*
X004703Y000471D01*
X004703Y000392D01*
X007793Y000392D01*
X007793Y009400D01*
X007701Y009362D01*
X007565Y009362D01*
X007440Y009414D01*
X007345Y009509D01*
X007293Y009634D01*
X007293Y009769D01*
X007345Y009894D01*
X007440Y009990D01*
X007565Y010042D01*
X007701Y010042D01*
X007793Y010003D01*
X007793Y024902D01*
X000561Y024902D01*
X000561Y010007D01*
X000645Y010042D01*
X000781Y010042D01*
X000905Y009990D01*
X001001Y009894D01*
X001053Y009769D01*
X001053Y009634D01*
X001001Y009509D01*
X000905Y009414D01*
X000781Y009362D01*
X000645Y009362D01*
X000561Y009397D01*
X000561Y009382D02*
X000596Y009382D01*
X000561Y009224D02*
X001454Y009224D01*
X001495Y009313D02*
X001211Y008700D01*
X001211Y008699D01*
X001066Y008040D01*
X001066Y008040D01*
X001066Y007364D01*
X001211Y006704D01*
X001495Y006091D01*
X001495Y006091D01*
X001904Y005553D01*
X001904Y005553D01*
X001904Y005553D01*
X002419Y005115D01*
X002419Y005115D01*
X003016Y004799D01*
X003016Y004799D01*
X003667Y004618D01*
X003667Y004618D01*
X004342Y004581D01*
X005009Y004691D01*
X005637Y004941D01*
X006196Y005320D01*
X006661Y005811D01*
X007009Y006390D01*
X007225Y007030D01*
X007298Y007702D01*
X007225Y008373D01*
X007225Y008374D02*
X007009Y009014D01*
X006661Y009593D01*
X006661Y009593D01*
X006661Y009593D01*
X006196Y010083D01*
X005637Y010463D01*
X005009Y010713D01*
X004342Y010822D01*
X003667Y010786D01*
X003016Y010605D01*
X002419Y010288D01*
X001904Y009851D01*
X001904Y009851D01*
X001904Y009851D01*
X001495Y009313D01*
X001495Y009313D01*
X001548Y009382D02*
X000830Y009382D01*
X001014Y009541D02*
X001669Y009541D01*
X001789Y009699D02*
X001053Y009699D01*
X001016Y009858D02*
X001913Y009858D01*
X002099Y010016D02*
X000841Y010016D01*
X000584Y010016D02*
X000561Y010016D01*
X000561Y010175D02*
X002286Y010175D01*
X002419Y010288D02*
X002419Y010288D01*
X002505Y010334D02*
X000561Y010334D01*
X000561Y010492D02*
X002804Y010492D01*
X003016Y010605D02*
X003016Y010605D01*
X003181Y010651D02*
X000561Y010651D01*
X000561Y010809D02*
X004103Y010809D01*
X004421Y010809D02*
X007793Y010809D01*
X007793Y010651D02*
X005165Y010651D01*
X005563Y010492D02*
X007793Y010492D01*
X007793Y010334D02*
X005827Y010334D01*
X006061Y010175D02*
X007793Y010175D01*
X007793Y010016D02*
X007761Y010016D01*
X007750Y009382D02*
X007793Y009382D01*
X007793Y009224D02*
X006883Y009224D01*
X006787Y009382D02*
X007516Y009382D01*
X007332Y009541D02*
X006692Y009541D01*
X006560Y009699D02*
X007293Y009699D01*
X007330Y009858D02*
X006410Y009858D01*
X006259Y010016D02*
X007504Y010016D01*
X007793Y009065D02*
X006978Y009065D01*
X007009Y009014D02*
X007009Y009014D01*
X007045Y008907D02*
X007793Y008907D01*
X007793Y008748D02*
X007099Y008748D01*
X007152Y008590D02*
X007793Y008590D01*
X007793Y008431D02*
X007205Y008431D01*
X007225Y008374D02*
X007225Y008373D01*
X007236Y008272D02*
X007793Y008272D01*
X007793Y008114D02*
X007253Y008114D01*
X007270Y007955D02*
X007793Y007955D01*
X007793Y007797D02*
X007288Y007797D01*
X007291Y007638D02*
X007793Y007638D01*
X007793Y007480D02*
X007274Y007480D01*
X007256Y007321D02*
X007793Y007321D01*
X007793Y007163D02*
X007239Y007163D01*
X007225Y007030D02*
X007225Y007030D01*
X007216Y007004D02*
X007793Y007004D01*
X007793Y006846D02*
X007163Y006846D01*
X007109Y006687D02*
X007793Y006687D01*
X007793Y006529D02*
X007056Y006529D01*
X007009Y006390D02*
X007009Y006390D01*
X006997Y006370D02*
X007793Y006370D01*
X007793Y006211D02*
X006902Y006211D01*
X006806Y006053D02*
X007793Y006053D01*
X007793Y005894D02*
X006711Y005894D01*
X006661Y005811D02*
X006661Y005811D01*
X006590Y005736D02*
X007793Y005736D01*
X007793Y005577D02*
X006440Y005577D01*
X006289Y005419D02*
X007793Y005419D01*
X007793Y005260D02*
X006108Y005260D01*
X006196Y005320D02*
X006196Y005320D01*
X006196Y005320D01*
X005874Y005102D02*
X007793Y005102D01*
X007793Y004943D02*
X005640Y004943D01*
X005637Y004941D02*
X005637Y004941D01*
X005245Y004785D02*
X007793Y004785D01*
X007793Y004626D02*
X004615Y004626D01*
X004342Y004581D02*
X004342Y004581D01*
X004241Y004042D02*
X004105Y004042D01*
X003980Y003990D01*
X003885Y003894D01*
X003833Y003769D01*
X003833Y003634D01*
X003885Y003509D01*
X003980Y003414D01*
X004105Y003362D01*
X004241Y003362D01*
X004365Y003414D01*
X004461Y003509D01*
X004513Y003634D01*
X004513Y003769D01*
X004461Y003894D01*
X004365Y003990D01*
X004241Y004042D01*
X004361Y003992D02*
X007793Y003992D01*
X007793Y004150D02*
X000561Y004150D01*
X000561Y003992D02*
X003985Y003992D01*
X003859Y003833D02*
X000561Y003833D01*
X000561Y003675D02*
X003833Y003675D01*
X003882Y003516D02*
X000561Y003516D01*
X000561Y003358D02*
X001788Y003358D01*
X001888Y003437D02*
X001619Y003223D01*
X001469Y002914D01*
X001468Y002817D01*
X001468Y002816D01*
X001468Y002741D01*
X001468Y002668D01*
X001468Y001536D01*
X001468Y001535D01*
X001468Y001462D01*
X001468Y001387D01*
X001468Y001387D01*
X001469Y001289D01*
X001619Y000980D01*
X001888Y000766D01*
X002223Y000690D01*
X002558Y000766D01*
X002827Y000980D01*
X002977Y001289D01*
X002977Y001289D01*
X002978Y001387D01*
X002978Y001461D01*
X002978Y001535D01*
X002978Y001536D01*
X002978Y002668D01*
X002978Y002668D01*
X002978Y002743D01*
X002978Y002816D01*
X002978Y002817D01*
X002977Y002914D01*
X002827Y003223D01*
X002827Y003223D01*
X002558Y003437D01*
X002223Y003514D01*
X001888Y003437D01*
X001888Y003437D01*
X002223Y003514D02*
X002223Y003514D01*
X002558Y003437D02*
X002558Y003437D01*
X002658Y003358D02*
X005688Y003358D01*
X005788Y003437D02*
X005519Y003223D01*
X005369Y002914D01*
X005368Y002817D01*
X005368Y002816D01*
X005368Y002744D01*
X005368Y002743D01*
X005368Y002668D01*
X005368Y001536D01*
X005368Y001535D01*
X005368Y001461D01*
X005368Y001459D01*
X005368Y001387D01*
X005368Y001387D01*
X005369Y001289D01*
X005519Y000980D01*
X005788Y000766D01*
X006123Y000690D01*
X006458Y000766D01*
X006727Y000980D01*
X006877Y001289D01*
X006877Y001289D01*
X006878Y001387D01*
X006878Y001461D01*
X006878Y001535D01*
X006878Y001536D01*
X006878Y002668D01*
X006878Y002668D01*
X006878Y002743D01*
X006878Y002816D01*
X006878Y002817D01*
X006877Y002914D01*
X006877Y002914D01*
X006727Y003223D01*
X006727Y003223D01*
X006458Y003437D01*
X006123Y003514D01*
X005788Y003437D01*
X005788Y003437D01*
X006123Y003514D02*
X006123Y003514D01*
X006458Y003437D02*
X006458Y003437D01*
X006558Y003358D02*
X007793Y003358D01*
X007793Y003516D02*
X004464Y003516D01*
X004513Y003675D02*
X007793Y003675D01*
X007793Y003833D02*
X004486Y003833D01*
X005009Y004691D02*
X005009Y004691D01*
X005519Y003223D02*
X005519Y003223D01*
X005519Y003223D01*
X005507Y003199D02*
X002839Y003199D01*
X002916Y003041D02*
X005430Y003041D01*
X005369Y002914D02*
X005369Y002914D01*
X005369Y002882D02*
X002977Y002882D01*
X002978Y002723D02*
X005368Y002723D01*
X005368Y002668D02*
X005368Y002668D01*
X005368Y002565D02*
X002978Y002565D01*
X002978Y002406D02*
X005368Y002406D01*
X005368Y002248D02*
X002978Y002248D01*
X002978Y002089D02*
X005368Y002089D01*
X005368Y001931D02*
X002978Y001931D01*
X002978Y001772D02*
X005368Y001772D01*
X005368Y001614D02*
X002978Y001614D01*
X002978Y001455D02*
X005368Y001455D01*
X005369Y001297D02*
X002977Y001297D01*
X002978Y001387D02*
X002978Y001387D01*
X002904Y001138D02*
X005442Y001138D01*
X005369Y001289D02*
X005369Y001289D01*
X005519Y000980D02*
X005519Y000980D01*
X005519Y000979D02*
X002826Y000979D01*
X002827Y000980D02*
X002827Y000980D01*
X002827Y000980D01*
X002627Y000821D02*
X003814Y000821D01*
X003731Y000662D02*
X000561Y000662D01*
X000561Y000504D02*
X003801Y000504D01*
X004620Y000821D02*
X005719Y000821D01*
X005788Y000766D02*
X005788Y000766D01*
X006123Y000690D02*
X006123Y000690D01*
X006527Y000821D02*
X007793Y000821D01*
X007793Y000979D02*
X006726Y000979D01*
X006727Y000980D02*
X006727Y000980D01*
X006804Y001138D02*
X007793Y001138D01*
X007793Y001297D02*
X006877Y001297D01*
X006878Y001387D02*
X006878Y001387D01*
X006878Y001455D02*
X007793Y001455D01*
X007793Y001614D02*
X006878Y001614D01*
X006878Y001772D02*
X007793Y001772D01*
X007793Y001931D02*
X006878Y001931D01*
X006878Y002089D02*
X007793Y002089D01*
X007793Y002248D02*
X006878Y002248D01*
X006878Y002406D02*
X007793Y002406D01*
X007793Y002565D02*
X006878Y002565D01*
X006878Y002723D02*
X007793Y002723D01*
X007793Y002882D02*
X006877Y002882D01*
X006878Y002743D02*
X006878Y002743D01*
X006816Y003041D02*
X007793Y003041D01*
X007793Y003199D02*
X006739Y003199D01*
X007793Y004309D02*
X000561Y004309D01*
X000561Y004467D02*
X007793Y004467D01*
X007793Y000662D02*
X004703Y000662D01*
X004703Y000504D02*
X007793Y000504D01*
X007793Y010968D02*
X000561Y010968D01*
X000561Y011126D02*
X007793Y011126D01*
X007793Y011285D02*
X000561Y011285D01*
X000561Y011443D02*
X007793Y011443D01*
X007793Y011602D02*
X000561Y011602D01*
X000561Y011760D02*
X007793Y011760D01*
X007793Y011919D02*
X000561Y011919D01*
X000561Y012078D02*
X007793Y012078D01*
X007793Y012236D02*
X000561Y012236D01*
X000561Y012395D02*
X007793Y012395D01*
X007793Y012553D02*
X000561Y012553D01*
X000561Y012712D02*
X007793Y012712D01*
X007793Y012870D02*
X000561Y012870D01*
X000561Y013029D02*
X007793Y013029D01*
X007793Y013187D02*
X000561Y013187D01*
X000561Y013346D02*
X007793Y013346D01*
X007793Y013504D02*
X000561Y013504D01*
X000561Y013663D02*
X007793Y013663D01*
X007793Y013821D02*
X000561Y013821D01*
X000561Y013980D02*
X007793Y013980D01*
X007793Y014139D02*
X000561Y014139D01*
X000561Y014297D02*
X007793Y014297D01*
X007793Y014456D02*
X000561Y014456D01*
X000561Y014614D02*
X002990Y014614D01*
X003008Y014607D02*
X002889Y014656D01*
X002797Y014748D01*
X002748Y014867D01*
X002748Y014996D01*
X002797Y015116D01*
X002853Y015171D01*
X002853Y018242D01*
X002847Y018248D01*
X002798Y018367D01*
X002798Y018496D01*
X002847Y018616D01*
X002939Y018707D01*
X003058Y018757D01*
X003188Y018757D01*
X003307Y018707D01*
X003363Y018652D01*
X004983Y018652D01*
X005039Y018707D01*
X005158Y018757D01*
X005288Y018757D01*
X005407Y018707D01*
X005498Y018616D01*
X005548Y018496D01*
X005548Y018367D01*
X005498Y018248D01*
X005407Y018156D01*
X005288Y018107D01*
X005158Y018107D01*
X005039Y018156D01*
X004983Y018212D01*
X003363Y018212D01*
X003307Y018156D01*
X003293Y018150D01*
X003293Y015171D01*
X003348Y015116D01*
X003398Y014996D01*
X003398Y014867D01*
X003348Y014748D01*
X003257Y014656D01*
X003138Y014607D01*
X003008Y014607D01*
X003156Y014614D02*
X007793Y014614D01*
X007793Y014773D02*
X003359Y014773D01*
X003398Y014931D02*
X007793Y014931D01*
X007793Y015090D02*
X003359Y015090D01*
X003293Y015248D02*
X007793Y015248D01*
X007793Y015407D02*
X003293Y015407D01*
X003293Y015565D02*
X007793Y015565D01*
X007793Y015724D02*
X003293Y015724D01*
X003293Y015883D02*
X007793Y015883D01*
X007793Y016041D02*
X003293Y016041D01*
X003293Y016200D02*
X007793Y016200D01*
X007793Y016358D02*
X003293Y016358D01*
X003293Y016517D02*
X007793Y016517D01*
X007793Y016675D02*
X003293Y016675D01*
X003293Y016834D02*
X007793Y016834D01*
X007793Y016992D02*
X003293Y016992D01*
X003293Y017151D02*
X007793Y017151D01*
X007793Y017309D02*
X003293Y017309D01*
X003293Y017468D02*
X007793Y017468D01*
X007793Y017627D02*
X003293Y017627D01*
X003293Y017785D02*
X007793Y017785D01*
X007793Y017944D02*
X003293Y017944D01*
X003293Y018102D02*
X007793Y018102D01*
X007793Y018261D02*
X005504Y018261D01*
X005548Y018419D02*
X007793Y018419D01*
X007793Y018578D02*
X005514Y018578D01*
X005337Y018736D02*
X007793Y018736D01*
X007793Y018895D02*
X001243Y018895D01*
X001243Y018832D02*
X001243Y021433D01*
X002006Y022112D01*
X006433Y022112D01*
X006489Y022056D01*
X006608Y022007D01*
X006738Y022007D01*
X006857Y022056D01*
X006948Y022148D01*
X006998Y022267D01*
X006998Y022396D01*
X006948Y022516D01*
X006857Y022607D01*
X006738Y022657D01*
X006608Y022657D01*
X006489Y022607D01*
X006433Y022552D01*
X001929Y022552D01*
X001845Y022557D01*
X001839Y022552D01*
X001832Y022552D01*
X001772Y022492D01*
X000939Y021752D01*
X000932Y021752D01*
X000872Y021692D01*
X000809Y021636D01*
X000808Y021628D01*
X000803Y021623D01*
X000803Y021538D01*
X000798Y021454D01*
X000803Y021448D01*
X000803Y018832D01*
X000711Y018740D01*
X000655Y018605D01*
X000655Y018458D01*
X000711Y018323D01*
X000814Y018220D01*
X000950Y018164D01*
X001096Y018164D01*
X001231Y018220D01*
X001335Y018323D01*
X001391Y018458D01*
X001391Y018605D01*
X001335Y018740D01*
X001243Y018832D01*
X001337Y018736D02*
X003009Y018736D01*
X003237Y018736D02*
X005109Y018736D01*
X005519Y019280D02*
X005788Y019066D01*
X006123Y018990D01*
X006458Y019066D01*
X006727Y019280D01*
X006877Y019589D01*
X006877Y019589D01*
X006878Y019687D01*
X006878Y019762D01*
X006878Y019835D01*
X006878Y019836D01*
X006878Y020968D01*
X006878Y020968D01*
X006878Y021040D01*
X006878Y021116D01*
X006878Y021117D01*
X006877Y021214D01*
X006877Y021214D01*
X006727Y021523D01*
X006727Y021523D01*
X006458Y021737D01*
X006123Y021814D01*
X005788Y021737D01*
X005519Y021523D01*
X005369Y021214D01*
X005368Y021117D01*
X005368Y021116D01*
X005368Y021041D01*
X005368Y020968D01*
X005368Y019836D01*
X005368Y019835D01*
X005368Y019762D01*
X005368Y019687D01*
X005368Y019687D01*
X005369Y019589D01*
X005519Y019280D01*
X005519Y019280D01*
X005475Y019371D02*
X002871Y019371D01*
X002827Y019280D02*
X002977Y019589D01*
X002977Y019589D01*
X002978Y019687D01*
X002978Y019761D01*
X002978Y019835D01*
X002978Y019836D01*
X002978Y020968D01*
X002978Y020968D01*
X002978Y021043D01*
X002978Y021116D01*
X002978Y021117D01*
X002977Y021214D01*
X002977Y021214D01*
X002827Y021523D01*
X002827Y021523D01*
X002558Y021737D01*
X002223Y021814D01*
X001888Y021737D01*
X001619Y021523D01*
X001469Y021214D01*
X001468Y021117D01*
X001468Y021116D01*
X001468Y021041D01*
X001468Y020968D01*
X001468Y019836D01*
X001468Y019835D01*
X001468Y019762D01*
X001468Y019687D01*
X001468Y019687D01*
X001469Y019589D01*
X001619Y019280D01*
X001888Y019066D01*
X002223Y018990D01*
X002558Y019066D01*
X002827Y019280D01*
X002827Y019280D01*
X002827Y019280D01*
X002741Y019212D02*
X005604Y019212D01*
X005788Y019066D02*
X005788Y019066D01*
X005844Y019053D02*
X002502Y019053D01*
X002558Y019066D02*
X002558Y019066D01*
X002832Y018578D02*
X001391Y018578D01*
X001375Y018419D02*
X002798Y018419D01*
X002842Y018261D02*
X001272Y018261D01*
X001243Y019053D02*
X001944Y019053D01*
X001888Y019066D02*
X001888Y019066D01*
X001704Y019212D02*
X001243Y019212D01*
X001243Y019371D02*
X001575Y019371D01*
X001619Y019280D02*
X001619Y019280D01*
X001498Y019529D02*
X001243Y019529D01*
X001243Y019688D02*
X001468Y019688D01*
X001469Y019589D02*
X001469Y019589D01*
X001468Y019846D02*
X001243Y019846D01*
X001243Y020005D02*
X001468Y020005D01*
X001468Y020163D02*
X001243Y020163D01*
X001243Y020322D02*
X001468Y020322D01*
X001468Y020480D02*
X001243Y020480D01*
X001243Y020639D02*
X001468Y020639D01*
X001468Y020797D02*
X001243Y020797D01*
X001243Y020956D02*
X001468Y020956D01*
X001468Y020968D02*
X001468Y020968D01*
X001468Y021114D02*
X001243Y021114D01*
X001243Y021273D02*
X001497Y021273D01*
X001574Y021432D02*
X001243Y021432D01*
X001114Y021907D02*
X000561Y021907D01*
X000561Y021749D02*
X000929Y021749D01*
X000803Y021590D02*
X000561Y021590D01*
X000561Y021432D02*
X000803Y021432D01*
X000803Y021273D02*
X000561Y021273D01*
X000561Y021114D02*
X000803Y021114D01*
X000803Y020956D02*
X000561Y020956D01*
X000561Y020797D02*
X000803Y020797D01*
X000803Y020639D02*
X000561Y020639D01*
X000561Y020480D02*
X000803Y020480D01*
X000803Y020322D02*
X000561Y020322D01*
X000561Y020163D02*
X000803Y020163D01*
X000803Y020005D02*
X000561Y020005D01*
X000561Y019846D02*
X000803Y019846D01*
X000803Y019688D02*
X000561Y019688D01*
X000561Y019529D02*
X000803Y019529D01*
X000803Y019371D02*
X000561Y019371D01*
X000561Y019212D02*
X000803Y019212D01*
X000803Y019053D02*
X000561Y019053D01*
X000561Y018895D02*
X000803Y018895D01*
X000709Y018736D02*
X000561Y018736D01*
X000561Y018578D02*
X000655Y018578D01*
X000671Y018419D02*
X000561Y018419D01*
X000561Y018261D02*
X000773Y018261D01*
X000561Y018102D02*
X002853Y018102D01*
X002853Y017944D02*
X000561Y017944D01*
X000561Y017785D02*
X002853Y017785D01*
X002853Y017627D02*
X000561Y017627D01*
X000561Y017468D02*
X002853Y017468D01*
X002853Y017309D02*
X000561Y017309D01*
X000561Y017151D02*
X002853Y017151D01*
X002853Y016992D02*
X000561Y016992D01*
X000561Y016834D02*
X002853Y016834D01*
X002853Y016675D02*
X000561Y016675D01*
X000561Y016517D02*
X002853Y016517D01*
X002853Y016358D02*
X000561Y016358D01*
X000561Y016200D02*
X002853Y016200D01*
X002853Y016041D02*
X000561Y016041D01*
X000561Y015883D02*
X002853Y015883D01*
X002853Y015724D02*
X000561Y015724D01*
X000561Y015565D02*
X002853Y015565D01*
X002853Y015407D02*
X000561Y015407D01*
X000561Y015248D02*
X002853Y015248D01*
X002787Y015090D02*
X000561Y015090D01*
X000561Y014931D02*
X002748Y014931D01*
X002787Y014773D02*
X000561Y014773D01*
X002223Y018990D02*
X002223Y018990D01*
X002948Y019529D02*
X005398Y019529D01*
X005369Y019589D02*
X005369Y019589D01*
X005368Y019688D02*
X002978Y019688D01*
X002978Y019687D02*
X002978Y019687D01*
X002978Y019846D02*
X005368Y019846D01*
X005368Y020005D02*
X002978Y020005D01*
X002978Y020163D02*
X005368Y020163D01*
X005368Y020322D02*
X002978Y020322D01*
X002978Y020480D02*
X005368Y020480D01*
X005368Y020639D02*
X002978Y020639D01*
X002978Y020797D02*
X005368Y020797D01*
X005368Y020956D02*
X002978Y020956D01*
X002978Y021043D02*
X002978Y021043D01*
X002978Y021114D02*
X005368Y021114D01*
X005369Y021214D02*
X005369Y021214D01*
X005397Y021273D02*
X002949Y021273D01*
X002872Y021432D02*
X005474Y021432D01*
X005519Y021523D02*
X005519Y021523D01*
X005519Y021523D01*
X005603Y021590D02*
X002743Y021590D01*
X002558Y021737D02*
X002558Y021737D01*
X002508Y021749D02*
X005838Y021749D01*
X005788Y021737D02*
X005788Y021737D01*
X006123Y021814D02*
X006123Y021814D01*
X006408Y021749D02*
X007793Y021749D01*
X007793Y021907D02*
X001776Y021907D01*
X001888Y021737D02*
X001888Y021737D01*
X001938Y021749D02*
X001598Y021749D01*
X001703Y021590D02*
X001420Y021590D01*
X001619Y021523D02*
X001619Y021523D01*
X001293Y022066D02*
X000561Y022066D01*
X000561Y022224D02*
X001471Y022224D01*
X001649Y022383D02*
X000561Y022383D01*
X000561Y022541D02*
X001821Y022541D01*
X002078Y022918D02*
X001903Y022991D01*
X001769Y023125D01*
X001696Y023300D01*
X001696Y024083D01*
X001769Y024259D01*
X001903Y024393D01*
X002078Y024465D01*
X002268Y024465D01*
X002443Y024393D01*
X002577Y024259D01*
X002650Y024083D01*
X002650Y023300D01*
X002577Y023125D01*
X002443Y022991D01*
X002268Y022918D01*
X002078Y022918D01*
X001876Y023017D02*
X000561Y023017D01*
X000561Y022858D02*
X007793Y022858D01*
X007793Y022700D02*
X000561Y022700D01*
X000561Y023176D02*
X001748Y023176D01*
X001696Y023334D02*
X000561Y023334D01*
X000561Y023493D02*
X001696Y023493D01*
X001696Y023651D02*
X000561Y023651D01*
X000561Y023810D02*
X001696Y023810D01*
X001696Y023968D02*
X000561Y023968D01*
X000561Y024127D02*
X001714Y024127D01*
X001795Y024285D02*
X000561Y024285D01*
X000561Y024444D02*
X002026Y024444D01*
X002320Y024444D02*
X003026Y024444D01*
X003078Y024465D02*
X002903Y024393D01*
X002769Y024259D01*
X002696Y024083D01*
X002696Y023300D01*
X002769Y023125D01*
X002903Y022991D01*
X003078Y022918D01*
X003268Y022918D01*
X003443Y022991D01*
X003577Y023125D01*
X003650Y023300D01*
X003650Y024083D01*
X003577Y024259D01*
X003443Y024393D01*
X003268Y024465D01*
X003078Y024465D01*
X003320Y024444D02*
X004026Y024444D01*
X004078Y024465D02*
X003903Y024393D01*
X003769Y024259D01*
X003696Y024083D01*
X003696Y023300D01*
X003769Y023125D01*
X003903Y022991D01*
X004078Y022918D01*
X004268Y022918D01*
X004443Y022991D01*
X004577Y023125D01*
X004650Y023300D01*
X004650Y024083D01*
X004577Y024259D01*
X004443Y024393D01*
X004268Y024465D01*
X004078Y024465D01*
X004320Y024444D02*
X005026Y024444D01*
X005078Y024465D02*
X004903Y024393D01*
X004769Y024259D01*
X004696Y024083D01*
X004696Y023300D01*
X004769Y023125D01*
X004903Y022991D01*
X005078Y022918D01*
X005268Y022918D01*
X005443Y022991D01*
X005577Y023125D01*
X005650Y023300D01*
X005650Y024083D01*
X005577Y024259D01*
X005443Y024393D01*
X005268Y024465D01*
X005078Y024465D01*
X005320Y024444D02*
X006026Y024444D01*
X006078Y024465D02*
X005903Y024393D01*
X005769Y024259D01*
X005696Y024083D01*
X005696Y023710D01*
X006154Y023710D01*
X006154Y023673D01*
X005696Y023673D01*
X005696Y023300D01*
X005769Y023125D01*
X005903Y022991D01*
X006078Y022918D01*
X006154Y022918D01*
X006154Y023673D01*
X006191Y023673D01*
X006191Y022918D01*
X006268Y022918D01*
X006443Y022991D01*
X006577Y023125D01*
X006650Y023300D01*
X006650Y023673D01*
X006192Y023673D01*
X006192Y023710D01*
X006650Y023710D01*
X006650Y024083D01*
X006577Y024259D01*
X006443Y024393D01*
X006268Y024465D01*
X006191Y024465D01*
X006191Y023710D01*
X006154Y023710D01*
X006154Y024465D01*
X006078Y024465D01*
X006154Y024444D02*
X006191Y024444D01*
X006320Y024444D02*
X007793Y024444D01*
X007793Y024602D02*
X000561Y024602D01*
X000561Y024761D02*
X007793Y024761D01*
X007793Y024285D02*
X006550Y024285D01*
X006632Y024127D02*
X007793Y024127D01*
X007793Y023968D02*
X006650Y023968D01*
X006650Y023810D02*
X007793Y023810D01*
X007793Y023651D02*
X006650Y023651D01*
X006650Y023493D02*
X007793Y023493D01*
X007793Y023334D02*
X006650Y023334D01*
X006598Y023176D02*
X007793Y023176D01*
X007793Y023017D02*
X006469Y023017D01*
X006191Y023017D02*
X006154Y023017D01*
X006154Y023176D02*
X006191Y023176D01*
X006191Y023334D02*
X006154Y023334D01*
X006154Y023493D02*
X006191Y023493D01*
X006191Y023651D02*
X006154Y023651D01*
X006154Y023810D02*
X006191Y023810D01*
X006191Y023968D02*
X006154Y023968D01*
X006154Y024127D02*
X006191Y024127D01*
X006191Y024285D02*
X006154Y024285D01*
X005795Y024285D02*
X005550Y024285D01*
X005632Y024127D02*
X005714Y024127D01*
X005696Y023968D02*
X005650Y023968D01*
X005650Y023810D02*
X005696Y023810D01*
X005696Y023651D02*
X005650Y023651D01*
X005650Y023493D02*
X005696Y023493D01*
X005696Y023334D02*
X005650Y023334D01*
X005598Y023176D02*
X005748Y023176D01*
X005876Y023017D02*
X005469Y023017D01*
X004876Y023017D02*
X004469Y023017D01*
X004598Y023176D02*
X004748Y023176D01*
X004696Y023334D02*
X004650Y023334D01*
X004650Y023493D02*
X004696Y023493D01*
X004696Y023651D02*
X004650Y023651D01*
X004650Y023810D02*
X004696Y023810D01*
X004696Y023968D02*
X004650Y023968D01*
X004632Y024127D02*
X004714Y024127D01*
X004795Y024285D02*
X004550Y024285D01*
X003876Y023017D02*
X003469Y023017D01*
X003598Y023176D02*
X003748Y023176D01*
X003696Y023334D02*
X003650Y023334D01*
X003650Y023493D02*
X003696Y023493D01*
X003696Y023651D02*
X003650Y023651D01*
X003650Y023810D02*
X003696Y023810D01*
X003696Y023968D02*
X003650Y023968D01*
X003632Y024127D02*
X003714Y024127D01*
X003795Y024285D02*
X003550Y024285D01*
X002795Y024285D02*
X002550Y024285D01*
X002632Y024127D02*
X002714Y024127D01*
X002696Y023968D02*
X002650Y023968D01*
X002650Y023810D02*
X002696Y023810D01*
X002696Y023651D02*
X002650Y023651D01*
X002650Y023493D02*
X002696Y023493D01*
X002696Y023334D02*
X002650Y023334D01*
X002598Y023176D02*
X002748Y023176D01*
X002876Y023017D02*
X002469Y023017D01*
X002223Y021814D02*
X002223Y021814D01*
X001955Y022066D02*
X006479Y022066D01*
X006458Y021737D02*
X006458Y021737D01*
X006643Y021590D02*
X007793Y021590D01*
X007793Y021432D02*
X006772Y021432D01*
X006849Y021273D02*
X007793Y021273D01*
X007793Y021114D02*
X006878Y021114D01*
X006878Y020956D02*
X007793Y020956D01*
X007793Y020797D02*
X006878Y020797D01*
X006878Y020639D02*
X007793Y020639D01*
X007793Y020480D02*
X006878Y020480D01*
X006878Y020322D02*
X007793Y020322D01*
X007793Y020163D02*
X006878Y020163D01*
X006878Y020005D02*
X007793Y020005D01*
X007793Y019846D02*
X006878Y019846D01*
X006878Y019688D02*
X007793Y019688D01*
X007793Y019529D02*
X006848Y019529D01*
X006878Y019687D02*
X006878Y019687D01*
X006771Y019371D02*
X007793Y019371D01*
X007793Y019212D02*
X006641Y019212D01*
X006727Y019280D02*
X006727Y019280D01*
X006727Y019280D01*
X006458Y019066D02*
X006458Y019066D01*
X006402Y019053D02*
X007793Y019053D01*
X007793Y022066D02*
X006867Y022066D01*
X006980Y022224D02*
X007793Y022224D01*
X007793Y022383D02*
X006998Y022383D01*
X006923Y022541D02*
X007793Y022541D01*
X006123Y018990D02*
X006123Y018990D01*
X005368Y020968D02*
X005368Y020968D01*
X001381Y009065D02*
X000561Y009065D01*
X000561Y008907D02*
X001307Y008907D01*
X001234Y008748D02*
X000561Y008748D01*
X000561Y008590D02*
X001187Y008590D01*
X001152Y008431D02*
X000561Y008431D01*
X000561Y008272D02*
X001118Y008272D01*
X001083Y008114D02*
X000561Y008114D01*
X000561Y007955D02*
X001066Y007955D01*
X001066Y007797D02*
X000561Y007797D01*
X000561Y007638D02*
X001066Y007638D01*
X001066Y007480D02*
X000561Y007480D01*
X000561Y007321D02*
X001076Y007321D01*
X001066Y007364D02*
X001066Y007364D01*
X001110Y007163D02*
X000561Y007163D01*
X000561Y007004D02*
X001145Y007004D01*
X001180Y006846D02*
X000561Y006846D01*
X000561Y006687D02*
X001219Y006687D01*
X001211Y006704D02*
X001211Y006704D01*
X001293Y006529D02*
X000561Y006529D01*
X000561Y006370D02*
X001366Y006370D01*
X001439Y006211D02*
X000561Y006211D01*
X000561Y006053D02*
X001524Y006053D01*
X001644Y005894D02*
X000561Y005894D01*
X000561Y005736D02*
X001765Y005736D01*
X001886Y005577D02*
X000561Y005577D01*
X000561Y005419D02*
X002062Y005419D01*
X002249Y005260D02*
X000561Y005260D01*
X000561Y005102D02*
X002445Y005102D01*
X002744Y004943D02*
X000561Y004943D01*
X000561Y004785D02*
X003067Y004785D01*
X003638Y004626D02*
X000561Y004626D01*
X000561Y003199D02*
X001607Y003199D01*
X001619Y003223D02*
X001619Y003223D01*
X001619Y003223D01*
X001530Y003041D02*
X000561Y003041D01*
X000561Y002882D02*
X001469Y002882D01*
X001469Y002914D02*
X001469Y002914D01*
X001468Y002723D02*
X000561Y002723D01*
X000561Y002565D02*
X001468Y002565D01*
X001468Y002668D02*
X001468Y002668D01*
X001468Y002406D02*
X000561Y002406D01*
X000561Y002248D02*
X001468Y002248D01*
X001468Y002089D02*
X000561Y002089D01*
X000561Y001931D02*
X001468Y001931D01*
X001468Y001772D02*
X000561Y001772D01*
X000561Y001614D02*
X001468Y001614D01*
X001468Y001455D02*
X000561Y001455D01*
X000561Y001297D02*
X001469Y001297D01*
X001469Y001289D02*
X001469Y001289D01*
X001542Y001138D02*
X000561Y001138D01*
X000561Y000979D02*
X001619Y000979D01*
X001619Y000980D02*
X001619Y000980D01*
X001819Y000821D02*
X000561Y000821D01*
X001888Y000766D02*
X001888Y000766D01*
X002223Y000690D02*
X002223Y000690D01*
X002558Y000766D02*
X002558Y000766D01*
D13*
X003723Y012332D03*
X003073Y014932D03*
X002323Y014382D03*
X003123Y018432D03*
X001523Y022482D03*
X005223Y018432D03*
X005673Y017582D03*
X005673Y014932D03*
X005973Y012332D03*
X006973Y014382D03*
X006673Y022332D03*
D14*
X001923Y022332D01*
X001023Y021532D01*
X001023Y018532D01*
X003073Y018432D02*
X003073Y014932D01*
X003073Y018432D02*
X003123Y018432D01*
X005223Y018432D01*
D15*
X001023Y018532D03*
M02*
