G75*
G70*
%OFA0B0*%
%FSLAX24Y24*%
%IPPOS*%
%LPD*%
%AMOC8*
5,1,8,0,0,1.08239X$1,22.5*
%
%ADD10C,0.0380*%
%ADD11R,0.0257X0.0926*%
%ADD12R,0.0460X0.0260*%
%ADD13R,0.0493X0.0454*%
%ADD14C,0.0560*%
%ADD15C,0.0654*%
%ADD16R,0.0454X0.0493*%
%ADD17R,0.0375X0.0375*%
%ADD18C,0.0217*%
%ADD19C,0.0847*%
%ADD20C,0.1181*%
%ADD21C,0.0350*%
%ADD22C,0.0436*%
D10*
X000713Y009702D03*
X004173Y003702D03*
X007633Y009702D03*
D11*
X004919Y014940D03*
X004419Y014940D03*
X003919Y014940D03*
X003423Y014940D03*
X003423Y017423D03*
X003923Y017423D03*
X004423Y017423D03*
X004923Y017423D03*
D12*
G36*
X004594Y013860D02*
X005041Y013759D01*
X004984Y013506D01*
X004537Y013607D01*
X004594Y013860D01*
G37*
G36*
X004439Y013169D02*
X004886Y013068D01*
X004829Y012815D01*
X004382Y012916D01*
X004439Y013169D01*
G37*
G36*
X003460Y013068D02*
X003907Y013169D01*
X003964Y012916D01*
X003517Y012815D01*
X003460Y013068D01*
G37*
G36*
X003304Y013759D02*
X003751Y013860D01*
X003808Y013607D01*
X003361Y013506D01*
X003304Y013759D01*
G37*
G36*
X002077Y012756D02*
X002524Y012857D01*
X002581Y012604D01*
X002134Y012503D01*
X002077Y012756D01*
G37*
G36*
X001922Y013448D02*
X002369Y013549D01*
X002426Y013296D01*
X001979Y013195D01*
X001922Y013448D01*
G37*
G36*
X005821Y012857D02*
X006268Y012756D01*
X006211Y012503D01*
X005764Y012604D01*
X005821Y012857D01*
G37*
G36*
X005977Y013549D02*
X006424Y013448D01*
X006367Y013195D01*
X005920Y013296D01*
X005977Y013549D01*
G37*
D13*
X006973Y013516D03*
X006973Y012847D03*
X007253Y022487D03*
X007253Y023156D03*
X002323Y017516D03*
X002323Y016847D03*
X001273Y016847D03*
X001273Y017516D03*
X001273Y015566D03*
X001273Y014897D03*
X001273Y013516D03*
X001273Y012847D03*
X001053Y022487D03*
X001053Y023156D03*
D14*
X007023Y018322D03*
D15*
X006173Y023395D02*
X006173Y023989D01*
X005173Y023989D02*
X005173Y023395D01*
X004173Y023395D02*
X004173Y023989D01*
X003173Y023989D02*
X003173Y023395D01*
X002173Y023395D02*
X002173Y023989D01*
D16*
X002323Y015566D03*
X002323Y014897D03*
X005673Y015847D03*
X005673Y016516D03*
X006973Y015566D03*
X006973Y014897D03*
D17*
X007253Y023696D03*
X007253Y024287D03*
X001053Y024287D03*
X001053Y023696D03*
D18*
X006649Y017338D02*
X006649Y017338D01*
X006471Y017338D01*
X006471Y017338D01*
X006649Y017338D01*
X006649Y017082D02*
X006649Y017082D01*
X006471Y017082D01*
X006471Y017082D01*
X006649Y017082D01*
X006649Y016826D02*
X006649Y016826D01*
X006471Y016826D01*
X006471Y016826D01*
X006649Y016826D01*
X007475Y016826D02*
X007475Y016826D01*
X007297Y016826D01*
X007297Y016826D01*
X007475Y016826D01*
X007475Y017082D02*
X007475Y017082D01*
X007297Y017082D01*
X007297Y017082D01*
X007475Y017082D01*
X007475Y017338D02*
X007475Y017338D01*
X007297Y017338D01*
X007297Y017338D01*
X007475Y017338D01*
D19*
X007323Y000832D03*
X001023Y021132D03*
D20*
X001023Y021132D03*
X007323Y000832D03*
D21*
X005973Y012332D03*
X005673Y014932D03*
X005673Y017582D03*
X005223Y018432D03*
X006673Y022332D03*
X006973Y014382D03*
X003723Y012332D03*
X003073Y014932D03*
X002323Y014382D03*
X003123Y018432D03*
X001523Y022482D03*
D22*
X001023Y018532D03*
M02*
