G75*
G70*
%OFA0B0*%
%FSLAX24Y24*%
%IPPOS*%
%LPD*%
%AMOC8*
5,1,8,0,0,1.08239X$1,22.5*
%
%ADD10C,0.0000*%
%ADD11C,0.0010*%
D10*
X000381Y000212D02*
X007973Y000212D01*
X007973Y025082D01*
X000381Y025082D01*
X000381Y000212D01*
X001648Y001462D02*
X001648Y002742D01*
X001648Y002741D02*
X001650Y002789D01*
X001656Y002836D01*
X001666Y002882D01*
X001680Y002928D01*
X001697Y002972D01*
X001718Y003014D01*
X001742Y003055D01*
X001770Y003093D01*
X001801Y003129D01*
X001834Y003163D01*
X001871Y003193D01*
X001909Y003221D01*
X001950Y003245D01*
X001993Y003266D01*
X002037Y003283D01*
X002082Y003297D01*
X002129Y003306D01*
X002176Y003312D01*
X002223Y003314D01*
X002270Y003312D01*
X002317Y003306D01*
X002364Y003297D01*
X002409Y003283D01*
X002453Y003266D01*
X002496Y003245D01*
X002537Y003221D01*
X002575Y003193D01*
X002612Y003163D01*
X002645Y003129D01*
X002676Y003093D01*
X002704Y003055D01*
X002728Y003014D01*
X002749Y002972D01*
X002766Y002928D01*
X002780Y002882D01*
X002790Y002836D01*
X002796Y002789D01*
X002798Y002741D01*
X002798Y002742D02*
X002798Y001462D01*
X002798Y001461D02*
X002796Y001414D01*
X002790Y001367D01*
X002780Y001321D01*
X002766Y001275D01*
X002749Y001231D01*
X002728Y001189D01*
X002703Y001148D01*
X002676Y001110D01*
X002645Y001074D01*
X002612Y001040D01*
X002575Y001010D01*
X002537Y000982D01*
X002496Y000958D01*
X002453Y000937D01*
X002409Y000920D01*
X002364Y000906D01*
X002317Y000897D01*
X002270Y000891D01*
X002223Y000889D01*
X002176Y000891D01*
X002129Y000897D01*
X002082Y000906D01*
X002037Y000920D01*
X001993Y000937D01*
X001950Y000958D01*
X001909Y000982D01*
X001871Y001010D01*
X001834Y001040D01*
X001801Y001074D01*
X001770Y001110D01*
X001743Y001148D01*
X001718Y001189D01*
X001697Y001231D01*
X001680Y001275D01*
X001666Y001321D01*
X001656Y001367D01*
X001650Y001414D01*
X001648Y001461D01*
X004013Y003702D02*
X004015Y003727D01*
X004021Y003751D01*
X004030Y003775D01*
X004044Y003796D01*
X004060Y003815D01*
X004079Y003831D01*
X004100Y003845D01*
X004124Y003854D01*
X004148Y003860D01*
X004173Y003862D01*
X004198Y003860D01*
X004222Y003854D01*
X004246Y003845D01*
X004267Y003831D01*
X004286Y003815D01*
X004302Y003796D01*
X004316Y003775D01*
X004325Y003751D01*
X004331Y003727D01*
X004333Y003702D01*
X004331Y003677D01*
X004325Y003653D01*
X004316Y003629D01*
X004302Y003608D01*
X004286Y003589D01*
X004267Y003573D01*
X004246Y003559D01*
X004222Y003550D01*
X004198Y003544D01*
X004173Y003542D01*
X004148Y003544D01*
X004124Y003550D01*
X004100Y003559D01*
X004079Y003573D01*
X004060Y003589D01*
X004044Y003608D01*
X004030Y003629D01*
X004021Y003653D01*
X004015Y003677D01*
X004013Y003702D01*
X005548Y002742D02*
X005548Y001462D01*
X005548Y001461D02*
X005550Y001414D01*
X005556Y001367D01*
X005566Y001321D01*
X005580Y001275D01*
X005597Y001231D01*
X005618Y001189D01*
X005643Y001148D01*
X005670Y001110D01*
X005701Y001074D01*
X005734Y001040D01*
X005771Y001010D01*
X005809Y000982D01*
X005850Y000958D01*
X005893Y000937D01*
X005937Y000920D01*
X005982Y000906D01*
X006029Y000897D01*
X006076Y000891D01*
X006123Y000889D01*
X006170Y000891D01*
X006217Y000897D01*
X006264Y000906D01*
X006309Y000920D01*
X006353Y000937D01*
X006396Y000958D01*
X006437Y000982D01*
X006475Y001010D01*
X006512Y001040D01*
X006545Y001074D01*
X006576Y001110D01*
X006603Y001148D01*
X006628Y001189D01*
X006649Y001231D01*
X006666Y001275D01*
X006680Y001321D01*
X006690Y001367D01*
X006696Y001414D01*
X006698Y001461D01*
X006698Y001462D02*
X006698Y002742D01*
X006698Y002741D02*
X006696Y002789D01*
X006690Y002836D01*
X006680Y002882D01*
X006666Y002928D01*
X006649Y002972D01*
X006628Y003014D01*
X006604Y003055D01*
X006576Y003093D01*
X006545Y003129D01*
X006512Y003163D01*
X006475Y003193D01*
X006437Y003221D01*
X006396Y003245D01*
X006353Y003266D01*
X006309Y003283D01*
X006264Y003297D01*
X006217Y003306D01*
X006170Y003312D01*
X006123Y003314D01*
X006076Y003312D01*
X006029Y003306D01*
X005982Y003297D01*
X005937Y003283D01*
X005893Y003266D01*
X005850Y003245D01*
X005809Y003221D01*
X005771Y003193D01*
X005734Y003163D01*
X005701Y003129D01*
X005670Y003093D01*
X005642Y003055D01*
X005618Y003014D01*
X005597Y002972D01*
X005580Y002928D01*
X005566Y002882D01*
X005556Y002836D01*
X005550Y002789D01*
X005548Y002741D01*
X007473Y009702D02*
X007475Y009727D01*
X007481Y009751D01*
X007490Y009775D01*
X007504Y009796D01*
X007520Y009815D01*
X007539Y009831D01*
X007560Y009845D01*
X007584Y009854D01*
X007608Y009860D01*
X007633Y009862D01*
X007658Y009860D01*
X007682Y009854D01*
X007706Y009845D01*
X007727Y009831D01*
X007746Y009815D01*
X007762Y009796D01*
X007776Y009775D01*
X007785Y009751D01*
X007791Y009727D01*
X007793Y009702D01*
X007791Y009677D01*
X007785Y009653D01*
X007776Y009629D01*
X007762Y009608D01*
X007746Y009589D01*
X007727Y009573D01*
X007706Y009559D01*
X007682Y009550D01*
X007658Y009544D01*
X007633Y009542D01*
X007608Y009544D01*
X007584Y009550D01*
X007560Y009559D01*
X007539Y009573D01*
X007520Y009589D01*
X007504Y009608D01*
X007490Y009629D01*
X007481Y009653D01*
X007475Y009677D01*
X007473Y009702D01*
X006698Y019762D02*
X006698Y021042D01*
X006698Y021041D02*
X006696Y021089D01*
X006690Y021136D01*
X006680Y021182D01*
X006666Y021228D01*
X006649Y021272D01*
X006628Y021314D01*
X006604Y021355D01*
X006576Y021393D01*
X006545Y021429D01*
X006512Y021463D01*
X006475Y021493D01*
X006437Y021521D01*
X006396Y021545D01*
X006353Y021566D01*
X006309Y021583D01*
X006264Y021597D01*
X006217Y021606D01*
X006170Y021612D01*
X006123Y021614D01*
X006076Y021612D01*
X006029Y021606D01*
X005982Y021597D01*
X005937Y021583D01*
X005893Y021566D01*
X005850Y021545D01*
X005809Y021521D01*
X005771Y021493D01*
X005734Y021463D01*
X005701Y021429D01*
X005670Y021393D01*
X005642Y021355D01*
X005618Y021314D01*
X005597Y021272D01*
X005580Y021228D01*
X005566Y021182D01*
X005556Y021136D01*
X005550Y021089D01*
X005548Y021041D01*
X005548Y021042D02*
X005548Y019762D01*
X005548Y019761D02*
X005550Y019714D01*
X005556Y019667D01*
X005566Y019621D01*
X005580Y019575D01*
X005597Y019531D01*
X005618Y019489D01*
X005643Y019448D01*
X005670Y019410D01*
X005701Y019374D01*
X005734Y019340D01*
X005771Y019310D01*
X005809Y019282D01*
X005850Y019258D01*
X005893Y019237D01*
X005937Y019220D01*
X005982Y019206D01*
X006029Y019197D01*
X006076Y019191D01*
X006123Y019189D01*
X006170Y019191D01*
X006217Y019197D01*
X006264Y019206D01*
X006309Y019220D01*
X006353Y019237D01*
X006396Y019258D01*
X006437Y019282D01*
X006475Y019310D01*
X006512Y019340D01*
X006545Y019374D01*
X006576Y019410D01*
X006603Y019448D01*
X006628Y019489D01*
X006649Y019531D01*
X006666Y019575D01*
X006680Y019621D01*
X006690Y019667D01*
X006696Y019714D01*
X006698Y019761D01*
X002798Y019762D02*
X002798Y021042D01*
X002798Y021041D02*
X002796Y021089D01*
X002790Y021136D01*
X002780Y021182D01*
X002766Y021228D01*
X002749Y021272D01*
X002728Y021314D01*
X002704Y021355D01*
X002676Y021393D01*
X002645Y021429D01*
X002612Y021463D01*
X002575Y021493D01*
X002537Y021521D01*
X002496Y021545D01*
X002453Y021566D01*
X002409Y021583D01*
X002364Y021597D01*
X002317Y021606D01*
X002270Y021612D01*
X002223Y021614D01*
X002176Y021612D01*
X002129Y021606D01*
X002082Y021597D01*
X002037Y021583D01*
X001993Y021566D01*
X001950Y021545D01*
X001909Y021521D01*
X001871Y021493D01*
X001834Y021463D01*
X001801Y021429D01*
X001770Y021393D01*
X001742Y021355D01*
X001718Y021314D01*
X001697Y021272D01*
X001680Y021228D01*
X001666Y021182D01*
X001656Y021136D01*
X001650Y021089D01*
X001648Y021041D01*
X001648Y021042D02*
X001648Y019762D01*
X001648Y019761D02*
X001650Y019714D01*
X001656Y019667D01*
X001666Y019621D01*
X001680Y019575D01*
X001697Y019531D01*
X001718Y019489D01*
X001743Y019448D01*
X001770Y019410D01*
X001801Y019374D01*
X001834Y019340D01*
X001871Y019310D01*
X001909Y019282D01*
X001950Y019258D01*
X001993Y019237D01*
X002037Y019220D01*
X002082Y019206D01*
X002129Y019197D01*
X002176Y019191D01*
X002223Y019189D01*
X002270Y019191D01*
X002317Y019197D01*
X002364Y019206D01*
X002409Y019220D01*
X002453Y019237D01*
X002496Y019258D01*
X002537Y019282D01*
X002575Y019310D01*
X002612Y019340D01*
X002645Y019374D01*
X002676Y019410D01*
X002703Y019448D01*
X002728Y019489D01*
X002749Y019531D01*
X002766Y019575D01*
X002780Y019621D01*
X002790Y019667D01*
X002796Y019714D01*
X002798Y019761D01*
X000553Y009702D02*
X000555Y009727D01*
X000561Y009751D01*
X000570Y009775D01*
X000584Y009796D01*
X000600Y009815D01*
X000619Y009831D01*
X000640Y009845D01*
X000664Y009854D01*
X000688Y009860D01*
X000713Y009862D01*
X000738Y009860D01*
X000762Y009854D01*
X000786Y009845D01*
X000807Y009831D01*
X000826Y009815D01*
X000842Y009796D01*
X000856Y009775D01*
X000865Y009751D01*
X000871Y009727D01*
X000873Y009702D01*
X000871Y009677D01*
X000865Y009653D01*
X000856Y009629D01*
X000842Y009608D01*
X000826Y009589D01*
X000807Y009573D01*
X000786Y009559D01*
X000762Y009550D01*
X000738Y009544D01*
X000713Y009542D01*
X000688Y009544D01*
X000664Y009550D01*
X000640Y009559D01*
X000619Y009573D01*
X000600Y009589D01*
X000584Y009608D01*
X000570Y009629D01*
X000561Y009653D01*
X000555Y009677D01*
X000553Y009702D01*
D11*
X001333Y007702D02*
X001336Y007841D01*
X001347Y007980D01*
X001364Y008119D01*
X001388Y008256D01*
X001418Y008392D01*
X001455Y008526D01*
X001499Y008659D01*
X001549Y008789D01*
X001606Y008916D01*
X001668Y009041D01*
X001737Y009162D01*
X001812Y009280D01*
X001892Y009394D01*
X001978Y009504D01*
X002069Y009609D01*
X002165Y009710D01*
X002266Y009806D01*
X002371Y009897D01*
X002481Y009983D01*
X002595Y010063D01*
X002713Y010138D01*
X002834Y010207D01*
X002959Y010269D01*
X003086Y010326D01*
X003216Y010376D01*
X003349Y010420D01*
X003483Y010457D01*
X003619Y010487D01*
X003756Y010511D01*
X003895Y010528D01*
X004034Y010539D01*
X004173Y010542D01*
X004312Y010539D01*
X004451Y010528D01*
X004590Y010511D01*
X004727Y010487D01*
X004863Y010457D01*
X004997Y010420D01*
X005130Y010376D01*
X005260Y010326D01*
X005387Y010269D01*
X005512Y010207D01*
X005633Y010138D01*
X005751Y010063D01*
X005865Y009983D01*
X005975Y009897D01*
X006080Y009806D01*
X006181Y009710D01*
X006277Y009609D01*
X006368Y009504D01*
X006454Y009394D01*
X006534Y009280D01*
X006609Y009162D01*
X006678Y009041D01*
X006740Y008916D01*
X006797Y008789D01*
X006847Y008659D01*
X006891Y008526D01*
X006928Y008392D01*
X006958Y008256D01*
X006982Y008119D01*
X006999Y007980D01*
X007010Y007841D01*
X007013Y007702D01*
X007010Y007563D01*
X006999Y007424D01*
X006982Y007285D01*
X006958Y007148D01*
X006928Y007012D01*
X006891Y006878D01*
X006847Y006745D01*
X006797Y006615D01*
X006740Y006488D01*
X006678Y006363D01*
X006609Y006242D01*
X006534Y006124D01*
X006454Y006010D01*
X006368Y005900D01*
X006277Y005795D01*
X006181Y005694D01*
X006080Y005598D01*
X005975Y005507D01*
X005865Y005421D01*
X005751Y005341D01*
X005633Y005266D01*
X005512Y005197D01*
X005387Y005135D01*
X005260Y005078D01*
X005130Y005028D01*
X004997Y004984D01*
X004863Y004947D01*
X004727Y004917D01*
X004590Y004893D01*
X004451Y004876D01*
X004312Y004865D01*
X004173Y004862D01*
X004034Y004865D01*
X003895Y004876D01*
X003756Y004893D01*
X003619Y004917D01*
X003483Y004947D01*
X003349Y004984D01*
X003216Y005028D01*
X003086Y005078D01*
X002959Y005135D01*
X002834Y005197D01*
X002713Y005266D01*
X002595Y005341D01*
X002481Y005421D01*
X002371Y005507D01*
X002266Y005598D01*
X002165Y005694D01*
X002069Y005795D01*
X001978Y005900D01*
X001892Y006010D01*
X001812Y006124D01*
X001737Y006242D01*
X001668Y006363D01*
X001606Y006488D01*
X001549Y006615D01*
X001499Y006745D01*
X001455Y006878D01*
X001418Y007012D01*
X001388Y007148D01*
X001364Y007285D01*
X001347Y007424D01*
X001336Y007563D01*
X001333Y007702D01*
M02*
