G75*
G70*
%OFA0B0*%
%FSLAX24Y24*%
%IPPOS*%
%LPD*%
%AMOC8*
5,1,8,0,0,1.08239X$1,22.5*
%
%ADD10C,0.0000*%
%ADD11C,0.0050*%
%ADD12C,0.0060*%
%ADD13C,0.0080*%
%ADD14R,0.0138X0.0354*%
%ADD15C,0.0020*%
%ADD16R,0.0340X0.0160*%
%ADD17C,0.0100*%
%ADD18R,0.0374X0.0197*%
%ADD19C,0.0040*%
%ADD20R,0.0354X0.0157*%
%ADD21R,0.0059X0.0118*%
%ADD22R,0.0118X0.0118*%
%ADD23C,0.0010*%
%ADD24C,0.0197*%
%ADD25R,0.0167X0.0118*%
D10*
X007973Y025082D02*
X000381Y025082D01*
X000381Y000212D01*
X007973Y000212D01*
X007973Y025082D01*
X004013Y003702D02*
X004015Y003727D01*
X004021Y003751D01*
X004030Y003775D01*
X004044Y003796D01*
X004060Y003815D01*
X004079Y003831D01*
X004100Y003845D01*
X004124Y003854D01*
X004148Y003860D01*
X004173Y003862D01*
X004198Y003860D01*
X004222Y003854D01*
X004246Y003845D01*
X004267Y003831D01*
X004286Y003815D01*
X004302Y003796D01*
X004316Y003775D01*
X004325Y003751D01*
X004331Y003727D01*
X004333Y003702D01*
X004331Y003677D01*
X004325Y003653D01*
X004316Y003629D01*
X004302Y003608D01*
X004286Y003589D01*
X004267Y003573D01*
X004246Y003559D01*
X004222Y003550D01*
X004198Y003544D01*
X004173Y003542D01*
X004148Y003544D01*
X004124Y003550D01*
X004100Y003559D01*
X004079Y003573D01*
X004060Y003589D01*
X004044Y003608D01*
X004030Y003629D01*
X004021Y003653D01*
X004015Y003677D01*
X004013Y003702D01*
X000553Y009702D02*
X000555Y009727D01*
X000561Y009751D01*
X000570Y009775D01*
X000584Y009796D01*
X000600Y009815D01*
X000619Y009831D01*
X000640Y009845D01*
X000664Y009854D01*
X000688Y009860D01*
X000713Y009862D01*
X000738Y009860D01*
X000762Y009854D01*
X000786Y009845D01*
X000807Y009831D01*
X000826Y009815D01*
X000842Y009796D01*
X000856Y009775D01*
X000865Y009751D01*
X000871Y009727D01*
X000873Y009702D01*
X000871Y009677D01*
X000865Y009653D01*
X000856Y009629D01*
X000842Y009608D01*
X000826Y009589D01*
X000807Y009573D01*
X000786Y009559D01*
X000762Y009550D01*
X000738Y009544D01*
X000713Y009542D01*
X000688Y009544D01*
X000664Y009550D01*
X000640Y009559D01*
X000619Y009573D01*
X000600Y009589D01*
X000584Y009608D01*
X000570Y009629D01*
X000561Y009653D01*
X000555Y009677D01*
X000553Y009702D01*
X007473Y009702D02*
X007475Y009727D01*
X007481Y009751D01*
X007490Y009775D01*
X007504Y009796D01*
X007520Y009815D01*
X007539Y009831D01*
X007560Y009845D01*
X007584Y009854D01*
X007608Y009860D01*
X007633Y009862D01*
X007658Y009860D01*
X007682Y009854D01*
X007706Y009845D01*
X007727Y009831D01*
X007746Y009815D01*
X007762Y009796D01*
X007776Y009775D01*
X007785Y009751D01*
X007791Y009727D01*
X007793Y009702D01*
X007791Y009677D01*
X007785Y009653D01*
X007776Y009629D01*
X007762Y009608D01*
X007746Y009589D01*
X007727Y009573D01*
X007706Y009559D01*
X007682Y009550D01*
X007658Y009544D01*
X007633Y009542D01*
X007608Y009544D01*
X007584Y009550D01*
X007560Y009559D01*
X007539Y009573D01*
X007520Y009589D01*
X007504Y009608D01*
X007490Y009629D01*
X007481Y009653D01*
X007475Y009677D01*
X007473Y009702D01*
X004573Y016182D02*
X003773Y016182D01*
X004173Y015782D02*
X004173Y016582D01*
X003343Y013182D02*
X002543Y013182D01*
X002943Y012782D02*
X002943Y013582D01*
X005003Y013182D02*
X005803Y013182D01*
X005403Y012782D02*
X005403Y013582D01*
X001542Y015232D02*
X001004Y015232D01*
X001273Y015500D02*
X001273Y014963D01*
X006984Y022822D02*
X007522Y022822D01*
X007253Y023090D02*
X007253Y022553D01*
X001322Y022822D02*
X000784Y022822D01*
X001053Y023090D02*
X001053Y022553D01*
X001004Y013182D02*
X001542Y013182D01*
X001273Y013450D02*
X001273Y012913D01*
X006704Y013182D02*
X007242Y013182D01*
X006973Y013450D02*
X006973Y012913D01*
X006835Y018322D02*
X007211Y018322D01*
X007023Y018134D02*
X007023Y018510D01*
X004573Y023692D02*
X003773Y023692D01*
X004173Y023292D02*
X004173Y024092D01*
X002592Y015232D02*
X002054Y015232D01*
X002323Y015500D02*
X002323Y014963D01*
X005404Y016182D02*
X005942Y016182D01*
X005673Y016450D02*
X005673Y015913D01*
X007125Y023992D02*
X007381Y023992D01*
X007253Y024119D02*
X007253Y023864D01*
X001181Y023992D02*
X000925Y023992D01*
X001053Y024119D02*
X001053Y023864D01*
X001648Y002741D02*
X001650Y002789D01*
X001656Y002836D01*
X001666Y002882D01*
X001680Y002928D01*
X001697Y002972D01*
X001718Y003014D01*
X001742Y003055D01*
X001770Y003093D01*
X001801Y003129D01*
X001834Y003163D01*
X001871Y003193D01*
X001909Y003221D01*
X001950Y003245D01*
X001993Y003266D01*
X002037Y003283D01*
X002082Y003297D01*
X002129Y003306D01*
X002176Y003312D01*
X002223Y003314D01*
X002270Y003312D01*
X002317Y003306D01*
X002364Y003297D01*
X002409Y003283D01*
X002453Y003266D01*
X002496Y003245D01*
X002537Y003221D01*
X002575Y003193D01*
X002612Y003163D01*
X002645Y003129D01*
X002676Y003093D01*
X002704Y003055D01*
X002728Y003014D01*
X002749Y002972D01*
X002766Y002928D01*
X002780Y002882D01*
X002790Y002836D01*
X002796Y002789D01*
X002798Y002741D01*
X002798Y001461D02*
X002796Y001414D01*
X002790Y001367D01*
X002780Y001321D01*
X002766Y001275D01*
X002749Y001231D01*
X002728Y001189D01*
X002703Y001148D01*
X002676Y001110D01*
X002645Y001074D01*
X002612Y001040D01*
X002575Y001010D01*
X002537Y000982D01*
X002496Y000958D01*
X002453Y000937D01*
X002409Y000920D01*
X002364Y000906D01*
X002317Y000897D01*
X002270Y000891D01*
X002223Y000889D01*
X002176Y000891D01*
X002129Y000897D01*
X002082Y000906D01*
X002037Y000920D01*
X001993Y000937D01*
X001950Y000958D01*
X001909Y000982D01*
X001871Y001010D01*
X001834Y001040D01*
X001801Y001074D01*
X001770Y001110D01*
X001743Y001148D01*
X001718Y001189D01*
X001697Y001231D01*
X001680Y001275D01*
X001666Y001321D01*
X001656Y001367D01*
X001650Y001414D01*
X001648Y001461D01*
X001648Y001462D02*
X001648Y002742D01*
X002798Y002742D02*
X002798Y001462D01*
X003348Y002739D02*
X003346Y002804D01*
X003340Y002870D01*
X003331Y002934D01*
X003318Y002998D01*
X003301Y003062D01*
X003280Y003124D01*
X003256Y003185D01*
X003228Y003244D01*
X003197Y003301D01*
X003163Y003357D01*
X003125Y003411D01*
X003085Y003462D01*
X003041Y003511D01*
X002995Y003557D01*
X002946Y003601D01*
X002895Y003641D01*
X002841Y003679D01*
X002786Y003713D01*
X002728Y003744D01*
X002669Y003772D01*
X002608Y003796D01*
X002546Y003817D01*
X002482Y003834D01*
X002418Y003847D01*
X002354Y003856D01*
X002288Y003862D01*
X002223Y003864D01*
X002158Y003862D01*
X002092Y003856D01*
X002028Y003847D01*
X001964Y003834D01*
X001900Y003817D01*
X001838Y003796D01*
X001777Y003772D01*
X001718Y003744D01*
X001661Y003713D01*
X001605Y003679D01*
X001551Y003641D01*
X001500Y003601D01*
X001451Y003557D01*
X001405Y003511D01*
X001361Y003462D01*
X001321Y003411D01*
X001283Y003357D01*
X001249Y003302D01*
X001218Y003244D01*
X001190Y003185D01*
X001166Y003124D01*
X001145Y003062D01*
X001128Y002998D01*
X001115Y002934D01*
X001106Y002870D01*
X001100Y002804D01*
X001098Y002739D01*
X001098Y001462D02*
X001100Y001397D01*
X001106Y001331D01*
X001115Y001267D01*
X001128Y001203D01*
X001145Y001139D01*
X001166Y001077D01*
X001190Y001016D01*
X001218Y000957D01*
X001249Y000900D01*
X001283Y000844D01*
X001321Y000790D01*
X001361Y000739D01*
X001405Y000690D01*
X001451Y000644D01*
X001500Y000600D01*
X001551Y000560D01*
X001605Y000522D01*
X001660Y000488D01*
X001718Y000457D01*
X001777Y000429D01*
X001838Y000405D01*
X001900Y000384D01*
X001964Y000367D01*
X002028Y000354D01*
X002092Y000345D01*
X002158Y000339D01*
X002223Y000337D01*
X002288Y000339D01*
X002354Y000345D01*
X002418Y000354D01*
X002482Y000367D01*
X002546Y000384D01*
X002608Y000405D01*
X002669Y000429D01*
X002728Y000457D01*
X002786Y000488D01*
X002841Y000522D01*
X002895Y000560D01*
X002946Y000600D01*
X002995Y000644D01*
X003041Y000690D01*
X003085Y000739D01*
X003125Y000790D01*
X003163Y000844D01*
X003197Y000900D01*
X003228Y000957D01*
X003256Y001016D01*
X003280Y001077D01*
X003301Y001139D01*
X003318Y001203D01*
X003331Y001267D01*
X003340Y001331D01*
X003346Y001397D01*
X003348Y001462D01*
X001098Y001462D02*
X001098Y002739D01*
X003348Y002739D02*
X003348Y001462D01*
X002048Y000887D02*
X001248Y000887D01*
X001648Y000487D02*
X001648Y001287D01*
X005548Y002741D02*
X005550Y002789D01*
X005556Y002836D01*
X005566Y002882D01*
X005580Y002928D01*
X005597Y002972D01*
X005618Y003014D01*
X005642Y003055D01*
X005670Y003093D01*
X005701Y003129D01*
X005734Y003163D01*
X005771Y003193D01*
X005809Y003221D01*
X005850Y003245D01*
X005893Y003266D01*
X005937Y003283D01*
X005982Y003297D01*
X006029Y003306D01*
X006076Y003312D01*
X006123Y003314D01*
X006170Y003312D01*
X006217Y003306D01*
X006264Y003297D01*
X006309Y003283D01*
X006353Y003266D01*
X006396Y003245D01*
X006437Y003221D01*
X006475Y003193D01*
X006512Y003163D01*
X006545Y003129D01*
X006576Y003093D01*
X006604Y003055D01*
X006628Y003014D01*
X006649Y002972D01*
X006666Y002928D01*
X006680Y002882D01*
X006690Y002836D01*
X006696Y002789D01*
X006698Y002741D01*
X006698Y001461D02*
X006696Y001414D01*
X006690Y001367D01*
X006680Y001321D01*
X006666Y001275D01*
X006649Y001231D01*
X006628Y001189D01*
X006603Y001148D01*
X006576Y001110D01*
X006545Y001074D01*
X006512Y001040D01*
X006475Y001010D01*
X006437Y000982D01*
X006396Y000958D01*
X006353Y000937D01*
X006309Y000920D01*
X006264Y000906D01*
X006217Y000897D01*
X006170Y000891D01*
X006123Y000889D01*
X006076Y000891D01*
X006029Y000897D01*
X005982Y000906D01*
X005937Y000920D01*
X005893Y000937D01*
X005850Y000958D01*
X005809Y000982D01*
X005771Y001010D01*
X005734Y001040D01*
X005701Y001074D01*
X005670Y001110D01*
X005643Y001148D01*
X005618Y001189D01*
X005597Y001231D01*
X005580Y001275D01*
X005566Y001321D01*
X005556Y001367D01*
X005550Y001414D01*
X005548Y001461D01*
X005548Y001462D02*
X005548Y002742D01*
X006698Y002742D02*
X006698Y001462D01*
X007248Y002739D02*
X007246Y002804D01*
X007240Y002870D01*
X007231Y002934D01*
X007218Y002998D01*
X007201Y003062D01*
X007180Y003124D01*
X007156Y003185D01*
X007128Y003244D01*
X007097Y003301D01*
X007063Y003357D01*
X007025Y003411D01*
X006985Y003462D01*
X006941Y003511D01*
X006895Y003557D01*
X006846Y003601D01*
X006795Y003641D01*
X006741Y003679D01*
X006686Y003713D01*
X006628Y003744D01*
X006569Y003772D01*
X006508Y003796D01*
X006446Y003817D01*
X006382Y003834D01*
X006318Y003847D01*
X006254Y003856D01*
X006188Y003862D01*
X006123Y003864D01*
X006058Y003862D01*
X005992Y003856D01*
X005928Y003847D01*
X005864Y003834D01*
X005800Y003817D01*
X005738Y003796D01*
X005677Y003772D01*
X005618Y003744D01*
X005561Y003713D01*
X005505Y003679D01*
X005451Y003641D01*
X005400Y003601D01*
X005351Y003557D01*
X005305Y003511D01*
X005261Y003462D01*
X005221Y003411D01*
X005183Y003357D01*
X005149Y003302D01*
X005118Y003244D01*
X005090Y003185D01*
X005066Y003124D01*
X005045Y003062D01*
X005028Y002998D01*
X005015Y002934D01*
X005006Y002870D01*
X005000Y002804D01*
X004998Y002739D01*
X004998Y001462D02*
X005000Y001397D01*
X005006Y001331D01*
X005015Y001267D01*
X005028Y001203D01*
X005045Y001139D01*
X005066Y001077D01*
X005090Y001016D01*
X005118Y000957D01*
X005149Y000900D01*
X005183Y000844D01*
X005221Y000790D01*
X005261Y000739D01*
X005305Y000690D01*
X005351Y000644D01*
X005400Y000600D01*
X005451Y000560D01*
X005505Y000522D01*
X005560Y000488D01*
X005618Y000457D01*
X005677Y000429D01*
X005738Y000405D01*
X005800Y000384D01*
X005864Y000367D01*
X005928Y000354D01*
X005992Y000345D01*
X006058Y000339D01*
X006123Y000337D01*
X006188Y000339D01*
X006254Y000345D01*
X006318Y000354D01*
X006382Y000367D01*
X006446Y000384D01*
X006508Y000405D01*
X006569Y000429D01*
X006628Y000457D01*
X006686Y000488D01*
X006741Y000522D01*
X006795Y000560D01*
X006846Y000600D01*
X006895Y000644D01*
X006941Y000690D01*
X006985Y000739D01*
X007025Y000790D01*
X007063Y000844D01*
X007097Y000900D01*
X007128Y000957D01*
X007156Y001016D01*
X007180Y001077D01*
X007201Y001139D01*
X007218Y001203D01*
X007231Y001267D01*
X007240Y001331D01*
X007246Y001397D01*
X007248Y001462D01*
X004998Y001462D02*
X004998Y002739D01*
X007248Y002739D02*
X007248Y001462D01*
X005948Y000887D02*
X005148Y000887D01*
X005548Y000487D02*
X005548Y001287D01*
X005548Y021041D02*
X005550Y021089D01*
X005556Y021136D01*
X005566Y021182D01*
X005580Y021228D01*
X005597Y021272D01*
X005618Y021314D01*
X005642Y021355D01*
X005670Y021393D01*
X005701Y021429D01*
X005734Y021463D01*
X005771Y021493D01*
X005809Y021521D01*
X005850Y021545D01*
X005893Y021566D01*
X005937Y021583D01*
X005982Y021597D01*
X006029Y021606D01*
X006076Y021612D01*
X006123Y021614D01*
X006170Y021612D01*
X006217Y021606D01*
X006264Y021597D01*
X006309Y021583D01*
X006353Y021566D01*
X006396Y021545D01*
X006437Y021521D01*
X006475Y021493D01*
X006512Y021463D01*
X006545Y021429D01*
X006576Y021393D01*
X006604Y021355D01*
X006628Y021314D01*
X006649Y021272D01*
X006666Y021228D01*
X006680Y021182D01*
X006690Y021136D01*
X006696Y021089D01*
X006698Y021041D01*
X006698Y019761D02*
X006696Y019714D01*
X006690Y019667D01*
X006680Y019621D01*
X006666Y019575D01*
X006649Y019531D01*
X006628Y019489D01*
X006603Y019448D01*
X006576Y019410D01*
X006545Y019374D01*
X006512Y019340D01*
X006475Y019310D01*
X006437Y019282D01*
X006396Y019258D01*
X006353Y019237D01*
X006309Y019220D01*
X006264Y019206D01*
X006217Y019197D01*
X006170Y019191D01*
X006123Y019189D01*
X006076Y019191D01*
X006029Y019197D01*
X005982Y019206D01*
X005937Y019220D01*
X005893Y019237D01*
X005850Y019258D01*
X005809Y019282D01*
X005771Y019310D01*
X005734Y019340D01*
X005701Y019374D01*
X005670Y019410D01*
X005643Y019448D01*
X005618Y019489D01*
X005597Y019531D01*
X005580Y019575D01*
X005566Y019621D01*
X005556Y019667D01*
X005550Y019714D01*
X005548Y019761D01*
X005548Y019762D02*
X005548Y021042D01*
X006698Y021042D02*
X006698Y019762D01*
X007248Y021039D02*
X007246Y021104D01*
X007240Y021170D01*
X007231Y021234D01*
X007218Y021298D01*
X007201Y021362D01*
X007180Y021424D01*
X007156Y021485D01*
X007128Y021544D01*
X007097Y021601D01*
X007063Y021657D01*
X007025Y021711D01*
X006985Y021762D01*
X006941Y021811D01*
X006895Y021857D01*
X006846Y021901D01*
X006795Y021941D01*
X006741Y021979D01*
X006686Y022013D01*
X006628Y022044D01*
X006569Y022072D01*
X006508Y022096D01*
X006446Y022117D01*
X006382Y022134D01*
X006318Y022147D01*
X006254Y022156D01*
X006188Y022162D01*
X006123Y022164D01*
X006058Y022162D01*
X005992Y022156D01*
X005928Y022147D01*
X005864Y022134D01*
X005800Y022117D01*
X005738Y022096D01*
X005677Y022072D01*
X005618Y022044D01*
X005561Y022013D01*
X005505Y021979D01*
X005451Y021941D01*
X005400Y021901D01*
X005351Y021857D01*
X005305Y021811D01*
X005261Y021762D01*
X005221Y021711D01*
X005183Y021657D01*
X005149Y021602D01*
X005118Y021544D01*
X005090Y021485D01*
X005066Y021424D01*
X005045Y021362D01*
X005028Y021298D01*
X005015Y021234D01*
X005006Y021170D01*
X005000Y021104D01*
X004998Y021039D01*
X004998Y019762D02*
X005000Y019697D01*
X005006Y019631D01*
X005015Y019567D01*
X005028Y019503D01*
X005045Y019439D01*
X005066Y019377D01*
X005090Y019316D01*
X005118Y019257D01*
X005149Y019200D01*
X005183Y019144D01*
X005221Y019090D01*
X005261Y019039D01*
X005305Y018990D01*
X005351Y018944D01*
X005400Y018900D01*
X005451Y018860D01*
X005505Y018822D01*
X005560Y018788D01*
X005618Y018757D01*
X005677Y018729D01*
X005738Y018705D01*
X005800Y018684D01*
X005864Y018667D01*
X005928Y018654D01*
X005992Y018645D01*
X006058Y018639D01*
X006123Y018637D01*
X006188Y018639D01*
X006254Y018645D01*
X006318Y018654D01*
X006382Y018667D01*
X006446Y018684D01*
X006508Y018705D01*
X006569Y018729D01*
X006628Y018757D01*
X006686Y018788D01*
X006741Y018822D01*
X006795Y018860D01*
X006846Y018900D01*
X006895Y018944D01*
X006941Y018990D01*
X006985Y019039D01*
X007025Y019090D01*
X007063Y019144D01*
X007097Y019200D01*
X007128Y019257D01*
X007156Y019316D01*
X007180Y019377D01*
X007201Y019439D01*
X007218Y019503D01*
X007231Y019567D01*
X007240Y019631D01*
X007246Y019697D01*
X007248Y019762D01*
X004998Y019762D02*
X004998Y021039D01*
X007248Y021039D02*
X007248Y019762D01*
X005948Y019187D02*
X005148Y019187D01*
X005548Y018787D02*
X005548Y019587D01*
X002798Y021041D02*
X002796Y021089D01*
X002790Y021136D01*
X002780Y021182D01*
X002766Y021228D01*
X002749Y021272D01*
X002728Y021314D01*
X002704Y021355D01*
X002676Y021393D01*
X002645Y021429D01*
X002612Y021463D01*
X002575Y021493D01*
X002537Y021521D01*
X002496Y021545D01*
X002453Y021566D01*
X002409Y021583D01*
X002364Y021597D01*
X002317Y021606D01*
X002270Y021612D01*
X002223Y021614D01*
X002176Y021612D01*
X002129Y021606D01*
X002082Y021597D01*
X002037Y021583D01*
X001993Y021566D01*
X001950Y021545D01*
X001909Y021521D01*
X001871Y021493D01*
X001834Y021463D01*
X001801Y021429D01*
X001770Y021393D01*
X001742Y021355D01*
X001718Y021314D01*
X001697Y021272D01*
X001680Y021228D01*
X001666Y021182D01*
X001656Y021136D01*
X001650Y021089D01*
X001648Y021041D01*
X001648Y019761D02*
X001650Y019714D01*
X001656Y019667D01*
X001666Y019621D01*
X001680Y019575D01*
X001697Y019531D01*
X001718Y019489D01*
X001743Y019448D01*
X001770Y019410D01*
X001801Y019374D01*
X001834Y019340D01*
X001871Y019310D01*
X001909Y019282D01*
X001950Y019258D01*
X001993Y019237D01*
X002037Y019220D01*
X002082Y019206D01*
X002129Y019197D01*
X002176Y019191D01*
X002223Y019189D01*
X002270Y019191D01*
X002317Y019197D01*
X002364Y019206D01*
X002409Y019220D01*
X002453Y019237D01*
X002496Y019258D01*
X002537Y019282D01*
X002575Y019310D01*
X002612Y019340D01*
X002645Y019374D01*
X002676Y019410D01*
X002703Y019448D01*
X002728Y019489D01*
X002749Y019531D01*
X002766Y019575D01*
X002780Y019621D01*
X002790Y019667D01*
X002796Y019714D01*
X002798Y019761D01*
X001648Y019762D02*
X001648Y021042D01*
X002798Y021042D02*
X002798Y019762D01*
X003348Y021039D02*
X003346Y021104D01*
X003340Y021170D01*
X003331Y021234D01*
X003318Y021298D01*
X003301Y021362D01*
X003280Y021424D01*
X003256Y021485D01*
X003228Y021544D01*
X003197Y021601D01*
X003163Y021657D01*
X003125Y021711D01*
X003085Y021762D01*
X003041Y021811D01*
X002995Y021857D01*
X002946Y021901D01*
X002895Y021941D01*
X002841Y021979D01*
X002786Y022013D01*
X002728Y022044D01*
X002669Y022072D01*
X002608Y022096D01*
X002546Y022117D01*
X002482Y022134D01*
X002418Y022147D01*
X002354Y022156D01*
X002288Y022162D01*
X002223Y022164D01*
X002158Y022162D01*
X002092Y022156D01*
X002028Y022147D01*
X001964Y022134D01*
X001900Y022117D01*
X001838Y022096D01*
X001777Y022072D01*
X001718Y022044D01*
X001661Y022013D01*
X001605Y021979D01*
X001551Y021941D01*
X001500Y021901D01*
X001451Y021857D01*
X001405Y021811D01*
X001361Y021762D01*
X001321Y021711D01*
X001283Y021657D01*
X001249Y021602D01*
X001218Y021544D01*
X001190Y021485D01*
X001166Y021424D01*
X001145Y021362D01*
X001128Y021298D01*
X001115Y021234D01*
X001106Y021170D01*
X001100Y021104D01*
X001098Y021039D01*
X001098Y019762D02*
X001100Y019697D01*
X001106Y019631D01*
X001115Y019567D01*
X001128Y019503D01*
X001145Y019439D01*
X001166Y019377D01*
X001190Y019316D01*
X001218Y019257D01*
X001249Y019200D01*
X001283Y019144D01*
X001321Y019090D01*
X001361Y019039D01*
X001405Y018990D01*
X001451Y018944D01*
X001500Y018900D01*
X001551Y018860D01*
X001605Y018822D01*
X001660Y018788D01*
X001718Y018757D01*
X001777Y018729D01*
X001838Y018705D01*
X001900Y018684D01*
X001964Y018667D01*
X002028Y018654D01*
X002092Y018645D01*
X002158Y018639D01*
X002223Y018637D01*
X002288Y018639D01*
X002354Y018645D01*
X002418Y018654D01*
X002482Y018667D01*
X002546Y018684D01*
X002608Y018705D01*
X002669Y018729D01*
X002728Y018757D01*
X002786Y018788D01*
X002841Y018822D01*
X002895Y018860D01*
X002946Y018900D01*
X002995Y018944D01*
X003041Y018990D01*
X003085Y019039D01*
X003125Y019090D01*
X003163Y019144D01*
X003197Y019200D01*
X003228Y019257D01*
X003256Y019316D01*
X003280Y019377D01*
X003301Y019439D01*
X003318Y019503D01*
X003331Y019567D01*
X003340Y019631D01*
X003346Y019697D01*
X003348Y019762D01*
X001098Y019762D02*
X001098Y021039D01*
X003348Y021039D02*
X003348Y019762D01*
X002048Y019187D02*
X001248Y019187D01*
X001648Y018787D02*
X001648Y019587D01*
X003773Y007702D02*
X004573Y007702D01*
X004173Y007302D02*
X004173Y008102D01*
X001542Y017182D02*
X001004Y017182D01*
X001273Y017450D02*
X001273Y016913D01*
X006704Y015232D02*
X007242Y015232D01*
X006973Y015500D02*
X006973Y014963D01*
X006284Y016550D02*
X006284Y017613D01*
X007662Y017613D01*
X007662Y016550D01*
X006284Y016550D01*
X006583Y017082D02*
X007363Y017082D01*
X006973Y017471D02*
X006973Y016692D01*
X002592Y017182D02*
X002054Y017182D01*
X002323Y017450D02*
X002323Y016913D01*
X006923Y000832D02*
X007723Y000832D01*
X007323Y000432D02*
X007323Y001232D01*
X001423Y021132D02*
X000623Y021132D01*
X001023Y020732D02*
X001023Y021532D01*
D11*
X001173Y007702D02*
X001177Y007849D01*
X001187Y007996D01*
X001205Y008142D01*
X001231Y008287D01*
X001263Y008431D01*
X001302Y008573D01*
X001348Y008713D01*
X001401Y008850D01*
X001461Y008985D01*
X001527Y009116D01*
X001600Y009244D01*
X001679Y009369D01*
X001763Y009489D01*
X001854Y009605D01*
X001950Y009717D01*
X002052Y009823D01*
X002158Y009925D01*
X002270Y010021D01*
X002386Y010112D01*
X002506Y010196D01*
X002631Y010275D01*
X002759Y010348D01*
X002890Y010414D01*
X003025Y010474D01*
X003162Y010527D01*
X003302Y010573D01*
X003444Y010612D01*
X003588Y010644D01*
X003733Y010670D01*
X003879Y010688D01*
X004026Y010698D01*
X004173Y010702D01*
X004320Y010698D01*
X004467Y010688D01*
X004613Y010670D01*
X004758Y010644D01*
X004902Y010612D01*
X005044Y010573D01*
X005184Y010527D01*
X005321Y010474D01*
X005456Y010414D01*
X005587Y010348D01*
X005715Y010275D01*
X005840Y010196D01*
X005960Y010112D01*
X006076Y010021D01*
X006188Y009925D01*
X006294Y009823D01*
X006396Y009717D01*
X006492Y009605D01*
X006583Y009489D01*
X006667Y009369D01*
X006746Y009244D01*
X006819Y009116D01*
X006885Y008985D01*
X006945Y008850D01*
X006998Y008713D01*
X007044Y008573D01*
X007083Y008431D01*
X007115Y008287D01*
X007141Y008142D01*
X007159Y007996D01*
X007169Y007849D01*
X007173Y007702D01*
X007169Y007555D01*
X007159Y007408D01*
X007141Y007262D01*
X007115Y007117D01*
X007083Y006973D01*
X007044Y006831D01*
X006998Y006691D01*
X006945Y006554D01*
X006885Y006419D01*
X006819Y006288D01*
X006746Y006160D01*
X006667Y006035D01*
X006583Y005915D01*
X006492Y005799D01*
X006396Y005687D01*
X006294Y005581D01*
X006188Y005479D01*
X006076Y005383D01*
X005960Y005292D01*
X005840Y005208D01*
X005715Y005129D01*
X005587Y005056D01*
X005456Y004990D01*
X005321Y004930D01*
X005184Y004877D01*
X005044Y004831D01*
X004902Y004792D01*
X004758Y004760D01*
X004613Y004734D01*
X004467Y004716D01*
X004320Y004706D01*
X004173Y004702D01*
X004026Y004706D01*
X003879Y004716D01*
X003733Y004734D01*
X003588Y004760D01*
X003444Y004792D01*
X003302Y004831D01*
X003162Y004877D01*
X003025Y004930D01*
X002890Y004990D01*
X002759Y005056D01*
X002631Y005129D01*
X002506Y005208D01*
X002386Y005292D01*
X002270Y005383D01*
X002158Y005479D01*
X002052Y005581D01*
X001950Y005687D01*
X001854Y005799D01*
X001763Y005915D01*
X001679Y006035D01*
X001600Y006160D01*
X001527Y006288D01*
X001461Y006419D01*
X001401Y006554D01*
X001348Y006691D01*
X001302Y006831D01*
X001263Y006973D01*
X001231Y007117D01*
X001205Y007262D01*
X001187Y007408D01*
X001177Y007555D01*
X001173Y007702D01*
X001148Y010907D02*
X001148Y011257D01*
X001381Y010907D01*
X001381Y011257D01*
X001575Y010907D02*
X001691Y010907D01*
X001750Y010965D01*
X001750Y011082D01*
X001691Y011140D01*
X001575Y011140D01*
X001516Y011082D01*
X001516Y010965D01*
X001575Y010907D01*
X002060Y010907D02*
X001943Y010907D01*
X001885Y010965D01*
X001885Y011082D01*
X001943Y011140D01*
X002060Y011140D01*
X002118Y011082D01*
X002118Y011023D01*
X001885Y011023D01*
X002311Y011199D02*
X002311Y010965D01*
X002370Y010907D01*
X002370Y011140D02*
X002253Y011140D01*
X002498Y011140D02*
X002557Y011140D01*
X002557Y010907D01*
X002615Y010907D02*
X002498Y010907D01*
X002557Y011257D02*
X002557Y011315D01*
X002977Y011140D02*
X002802Y011140D01*
X002744Y011082D01*
X002744Y010965D01*
X002802Y010907D01*
X002977Y010907D01*
X003480Y011257D02*
X003480Y010907D01*
X003656Y010907D01*
X003714Y010965D01*
X003714Y011199D01*
X003656Y011257D01*
X003480Y011257D01*
X004024Y010907D02*
X003907Y010907D01*
X003849Y010965D01*
X003849Y011082D01*
X003907Y011140D01*
X004024Y011140D01*
X004082Y011082D01*
X004082Y011023D01*
X003849Y011023D01*
X004217Y010907D02*
X004392Y010907D01*
X004451Y010965D01*
X004392Y011023D01*
X004275Y011023D01*
X004217Y011082D01*
X004275Y011140D01*
X004451Y011140D01*
X004585Y011140D02*
X004644Y011140D01*
X004644Y010907D01*
X004702Y010907D02*
X004585Y010907D01*
X004644Y011257D02*
X004644Y011315D01*
X004948Y010790D02*
X005006Y010790D01*
X005064Y010848D01*
X005064Y011140D01*
X004889Y011140D01*
X004831Y011082D01*
X004831Y010965D01*
X004889Y010907D01*
X005064Y010907D01*
X005199Y010907D02*
X005199Y011140D01*
X005374Y011140D01*
X005433Y011082D01*
X005433Y010907D01*
X005568Y010790D02*
X005684Y010907D01*
X005684Y010965D01*
X005626Y010965D01*
X005626Y010907D01*
X005684Y010907D01*
X006181Y010907D02*
X006298Y010907D01*
X006240Y010907D02*
X006240Y011257D01*
X006298Y011257D02*
X006181Y011257D01*
X006427Y010907D02*
X006427Y011140D01*
X006602Y011140D01*
X006660Y011082D01*
X006660Y010907D01*
X007029Y011140D02*
X006854Y011140D01*
X006795Y011082D01*
X006795Y010965D01*
X006854Y010907D01*
X007029Y010907D01*
X007163Y010907D02*
X007163Y010965D01*
X007222Y010965D01*
X007222Y010907D01*
X007163Y010907D01*
X001648Y004440D02*
X001648Y004265D01*
X001706Y004207D01*
X001765Y004265D01*
X001823Y004207D01*
X001881Y004265D01*
X001881Y004440D01*
X002016Y004440D02*
X002016Y004265D01*
X002075Y004207D01*
X002133Y004265D01*
X002191Y004207D01*
X002250Y004265D01*
X002250Y004440D01*
X002385Y004440D02*
X002385Y004265D01*
X002443Y004207D01*
X002501Y004265D01*
X002560Y004207D01*
X002618Y004265D01*
X002618Y004440D01*
X002753Y004207D02*
X002753Y004265D01*
X002811Y004265D01*
X002811Y004207D01*
X002753Y004207D01*
X002937Y004207D02*
X002937Y004440D01*
X003112Y004440D01*
X003170Y004382D01*
X003170Y004207D01*
X003305Y004440D02*
X003305Y004265D01*
X003364Y004207D01*
X003539Y004207D01*
X003539Y004440D01*
X003674Y004557D02*
X003674Y004207D01*
X003849Y004207D01*
X003907Y004265D01*
X003907Y004382D01*
X003849Y004440D01*
X003674Y004440D01*
X004100Y004207D02*
X004217Y004207D01*
X004275Y004265D01*
X004275Y004382D01*
X004217Y004440D01*
X004100Y004440D01*
X004042Y004382D01*
X004042Y004265D01*
X004100Y004207D01*
X004469Y004499D02*
X004469Y004265D01*
X004527Y004207D01*
X004527Y004440D02*
X004410Y004440D01*
X004656Y004440D02*
X004714Y004440D01*
X004714Y004207D01*
X004656Y004207D02*
X004772Y004207D01*
X004714Y004557D02*
X004714Y004615D01*
X005135Y004440D02*
X004960Y004440D01*
X004901Y004382D01*
X004901Y004265D01*
X004960Y004207D01*
X005135Y004207D01*
X005270Y004207D02*
X005445Y004207D01*
X005503Y004265D01*
X005445Y004323D01*
X005328Y004323D01*
X005270Y004382D01*
X005328Y004440D01*
X005503Y004440D01*
X005638Y004207D02*
X005638Y004265D01*
X005696Y004265D01*
X005696Y004207D01*
X005638Y004207D01*
X006055Y004440D02*
X005880Y004440D01*
X005822Y004382D01*
X005822Y004265D01*
X005880Y004207D01*
X006055Y004207D01*
X006249Y004207D02*
X006365Y004207D01*
X006424Y004265D01*
X006424Y004382D01*
X006365Y004440D01*
X006249Y004440D01*
X006190Y004382D01*
X006190Y004265D01*
X006249Y004207D01*
X006559Y004207D02*
X006559Y004440D01*
X006617Y004440D01*
X006675Y004382D01*
X006675Y004207D01*
X006675Y004382D02*
X006734Y004440D01*
X006792Y004382D01*
X006792Y004207D01*
X000413Y009702D02*
X000415Y009736D01*
X000421Y009770D01*
X000430Y009803D01*
X000444Y009834D01*
X000461Y009864D01*
X000481Y009892D01*
X000504Y009917D01*
X000530Y009940D01*
X000558Y009959D01*
X000588Y009975D01*
X000620Y009987D01*
X000653Y009996D01*
X000687Y010001D01*
X000722Y010002D01*
X000756Y009999D01*
X000789Y009992D01*
X000822Y009982D01*
X000853Y009967D01*
X000882Y009950D01*
X000909Y009929D01*
X000934Y009905D01*
X000956Y009878D01*
X000974Y009850D01*
X000989Y009819D01*
X001001Y009787D01*
X001009Y009753D01*
X001013Y009719D01*
X001013Y009685D01*
X001009Y009651D01*
X001001Y009617D01*
X000989Y009585D01*
X000974Y009554D01*
X000956Y009526D01*
X000934Y009499D01*
X000909Y009475D01*
X000882Y009454D01*
X000853Y009437D01*
X000822Y009422D01*
X000789Y009412D01*
X000756Y009405D01*
X000722Y009402D01*
X000687Y009403D01*
X000653Y009408D01*
X000620Y009417D01*
X000588Y009429D01*
X000558Y009445D01*
X000530Y009464D01*
X000504Y009487D01*
X000481Y009512D01*
X000461Y009540D01*
X000444Y009570D01*
X000430Y009601D01*
X000421Y009634D01*
X000415Y009668D01*
X000413Y009702D01*
X007333Y009702D02*
X007335Y009736D01*
X007341Y009770D01*
X007350Y009803D01*
X007364Y009834D01*
X007381Y009864D01*
X007401Y009892D01*
X007424Y009917D01*
X007450Y009940D01*
X007478Y009959D01*
X007508Y009975D01*
X007540Y009987D01*
X007573Y009996D01*
X007607Y010001D01*
X007642Y010002D01*
X007676Y009999D01*
X007709Y009992D01*
X007742Y009982D01*
X007773Y009967D01*
X007802Y009950D01*
X007829Y009929D01*
X007854Y009905D01*
X007876Y009878D01*
X007894Y009850D01*
X007909Y009819D01*
X007921Y009787D01*
X007929Y009753D01*
X007933Y009719D01*
X007933Y009685D01*
X007929Y009651D01*
X007921Y009617D01*
X007909Y009585D01*
X007894Y009554D01*
X007876Y009526D01*
X007854Y009499D01*
X007829Y009475D01*
X007802Y009454D01*
X007773Y009437D01*
X007742Y009422D01*
X007709Y009412D01*
X007676Y009405D01*
X007642Y009402D01*
X007607Y009403D01*
X007573Y009408D01*
X007540Y009417D01*
X007508Y009429D01*
X007478Y009445D01*
X007450Y009464D01*
X007424Y009487D01*
X007401Y009512D01*
X007381Y009540D01*
X007364Y009570D01*
X007350Y009601D01*
X007341Y009634D01*
X007335Y009668D01*
X007333Y009702D01*
X003873Y003702D02*
X003875Y003736D01*
X003881Y003770D01*
X003890Y003803D01*
X003904Y003834D01*
X003921Y003864D01*
X003941Y003892D01*
X003964Y003917D01*
X003990Y003940D01*
X004018Y003959D01*
X004048Y003975D01*
X004080Y003987D01*
X004113Y003996D01*
X004147Y004001D01*
X004182Y004002D01*
X004216Y003999D01*
X004249Y003992D01*
X004282Y003982D01*
X004313Y003967D01*
X004342Y003950D01*
X004369Y003929D01*
X004394Y003905D01*
X004416Y003878D01*
X004434Y003850D01*
X004449Y003819D01*
X004461Y003787D01*
X004469Y003753D01*
X004473Y003719D01*
X004473Y003685D01*
X004469Y003651D01*
X004461Y003617D01*
X004449Y003585D01*
X004434Y003554D01*
X004416Y003526D01*
X004394Y003499D01*
X004369Y003475D01*
X004342Y003454D01*
X004313Y003437D01*
X004282Y003422D01*
X004249Y003412D01*
X004216Y003405D01*
X004182Y003402D01*
X004147Y003403D01*
X004113Y003408D01*
X004080Y003417D01*
X004048Y003429D01*
X004018Y003445D01*
X003990Y003464D01*
X003964Y003487D01*
X003941Y003512D01*
X003921Y003540D01*
X003904Y003570D01*
X003890Y003601D01*
X003881Y003634D01*
X003875Y003668D01*
X003873Y003702D01*
X002815Y011457D02*
X002698Y011573D01*
X002698Y011690D01*
X002815Y011807D01*
X003177Y011690D02*
X003002Y011690D01*
X002943Y011632D01*
X002943Y011515D01*
X003002Y011457D01*
X003177Y011457D01*
X003312Y011457D02*
X003428Y011573D01*
X003428Y011690D01*
X003312Y011807D01*
X004159Y011457D02*
X003926Y011457D01*
X004159Y011690D01*
X004159Y011749D01*
X004101Y011807D01*
X003984Y011807D01*
X003926Y011749D01*
X004294Y011515D02*
X004294Y011749D01*
X004352Y011807D01*
X004469Y011807D01*
X004527Y011749D01*
X004527Y011515D01*
X004469Y011457D01*
X004352Y011457D01*
X004294Y011515D01*
X004527Y011749D01*
X004662Y011515D02*
X004662Y011749D01*
X004721Y011807D01*
X004837Y011807D01*
X004896Y011749D01*
X004896Y011515D01*
X004837Y011457D01*
X004721Y011457D01*
X004662Y011515D01*
X004896Y011749D01*
X005030Y011515D02*
X005089Y011457D01*
X005206Y011457D01*
X005264Y011515D01*
X005264Y011749D01*
X005206Y011807D01*
X005089Y011807D01*
X005030Y011749D01*
X005030Y011690D01*
X005089Y011632D01*
X005264Y011632D01*
X002898Y015440D02*
X003015Y015557D01*
X003015Y015207D01*
X003131Y015207D02*
X002898Y015207D01*
X003298Y002257D02*
X003298Y002607D01*
X003473Y002607D01*
X003531Y002549D01*
X003531Y002432D01*
X003473Y002373D01*
X003298Y002373D01*
X003415Y002373D02*
X003531Y002257D01*
X003841Y002257D02*
X003725Y002257D01*
X003666Y002315D01*
X003666Y002432D01*
X003725Y002490D01*
X003841Y002490D01*
X003900Y002432D01*
X003900Y002373D01*
X003666Y002373D01*
X004035Y002490D02*
X004151Y002257D01*
X004268Y002490D01*
X004771Y002257D02*
X004771Y002490D01*
X004888Y002607D01*
X005005Y002490D01*
X005005Y002257D01*
X005005Y002432D02*
X004771Y002432D01*
X003778Y018432D02*
X003778Y018140D01*
X003836Y018082D01*
X003953Y018082D01*
X004011Y018140D01*
X004011Y018432D01*
X004146Y018374D02*
X004205Y018432D01*
X004321Y018432D01*
X004380Y018374D01*
X004380Y018315D01*
X004321Y018257D01*
X004263Y018257D01*
X004321Y018257D02*
X004380Y018198D01*
X004380Y018140D01*
X004321Y018082D01*
X004205Y018082D01*
X004146Y018140D01*
X003551Y012633D02*
X003309Y013708D01*
X003035Y013848D01*
X002344Y013692D01*
X002629Y012425D01*
X003551Y012633D01*
X002888Y012887D02*
X002897Y012849D01*
X002906Y012810D01*
X002935Y012857D02*
X002897Y012849D01*
X002859Y012840D01*
X002797Y013472D02*
X002758Y013463D01*
X002720Y013454D01*
X002767Y013425D02*
X002758Y013463D01*
X002750Y013501D01*
X003598Y012603D02*
X003347Y013717D01*
X003026Y013887D01*
X002296Y013722D01*
X002599Y012378D01*
X003598Y012603D01*
X002702Y012401D02*
X002594Y012401D01*
X002583Y012450D02*
X002918Y012450D01*
X003133Y012498D02*
X002572Y012498D01*
X002561Y012547D02*
X003348Y012547D01*
X003564Y012595D02*
X002550Y012595D01*
X002539Y012644D02*
X003589Y012644D01*
X003578Y012692D02*
X002529Y012692D01*
X002518Y012741D02*
X003567Y012741D01*
X003556Y012789D02*
X002507Y012789D01*
X002496Y012838D02*
X003545Y012838D01*
X003534Y012886D02*
X002485Y012886D01*
X002474Y012935D02*
X003523Y012935D01*
X003512Y012984D02*
X002463Y012984D01*
X002452Y013032D02*
X003501Y013032D01*
X003490Y013081D02*
X002441Y013081D01*
X002430Y013129D02*
X003479Y013129D01*
X003468Y013178D02*
X002419Y013178D01*
X002408Y013226D02*
X003458Y013226D01*
X003447Y013275D02*
X002397Y013275D01*
X002386Y013323D02*
X003436Y013323D01*
X003425Y013372D02*
X002375Y013372D01*
X002364Y013420D02*
X003414Y013420D01*
X003403Y013469D02*
X002354Y013469D01*
X002343Y013518D02*
X003392Y013518D01*
X003381Y013566D02*
X002332Y013566D01*
X002321Y013615D02*
X003370Y013615D01*
X003359Y013663D02*
X002310Y013663D01*
X002299Y013712D02*
X003348Y013712D01*
X003265Y013760D02*
X002466Y013760D01*
X002681Y013809D02*
X003173Y013809D01*
X003081Y013857D02*
X002896Y013857D01*
X002477Y014203D02*
X002541Y013918D01*
X002611Y013874D01*
X002725Y013900D01*
X002769Y013970D01*
X002705Y014254D01*
X002862Y014170D02*
X002950Y014310D01*
X003027Y013968D01*
X002913Y013942D02*
X003141Y013994D01*
X005717Y012425D02*
X005959Y013500D01*
X005772Y013744D01*
X005081Y013900D01*
X004795Y012633D01*
X005717Y012425D01*
X005227Y012939D02*
X005218Y012900D01*
X005210Y012862D01*
X005257Y012892D02*
X005218Y012900D01*
X005180Y012909D01*
X005395Y013506D02*
X005357Y013515D01*
X005319Y013524D01*
X005348Y013477D02*
X005357Y013515D01*
X005366Y013553D01*
X005746Y012378D02*
X005997Y013492D01*
X005780Y013783D01*
X005051Y013947D01*
X004748Y012603D01*
X005746Y012378D01*
X005752Y012401D02*
X005644Y012401D01*
X005763Y012450D02*
X005428Y012450D01*
X005213Y012498D02*
X005773Y012498D01*
X005784Y012547D02*
X004997Y012547D01*
X004782Y012595D02*
X005795Y012595D01*
X005806Y012644D02*
X004757Y012644D01*
X004768Y012692D02*
X005817Y012692D01*
X005828Y012741D02*
X004779Y012741D01*
X004790Y012789D02*
X005839Y012789D01*
X005850Y012838D02*
X004801Y012838D01*
X004812Y012886D02*
X005861Y012886D01*
X005872Y012935D02*
X004823Y012935D01*
X004834Y012984D02*
X005883Y012984D01*
X005894Y013032D02*
X004845Y013032D01*
X004855Y013081D02*
X005905Y013081D01*
X005916Y013129D02*
X004866Y013129D01*
X004877Y013178D02*
X005927Y013178D01*
X005938Y013226D02*
X004888Y013226D01*
X004899Y013275D02*
X005949Y013275D01*
X005959Y013323D02*
X004910Y013323D01*
X004921Y013372D02*
X005970Y013372D01*
X005981Y013420D02*
X004932Y013420D01*
X004943Y013469D02*
X005992Y013469D01*
X005978Y013518D02*
X004954Y013518D01*
X004965Y013566D02*
X005942Y013566D01*
X005906Y013615D02*
X004976Y013615D01*
X004987Y013663D02*
X005870Y013663D01*
X005833Y013712D02*
X004998Y013712D01*
X005009Y013760D02*
X005797Y013760D01*
X005665Y013809D02*
X005020Y013809D01*
X005031Y013857D02*
X005449Y013857D01*
X005234Y013906D02*
X005041Y013906D01*
X005258Y014409D02*
X005194Y014124D01*
X005238Y014054D01*
X005352Y014029D01*
X005422Y014073D01*
X005486Y014358D01*
X005768Y013935D02*
X005541Y013986D01*
X005820Y014163D01*
X005833Y014220D01*
X005789Y014289D01*
X005675Y014315D01*
X005605Y014271D01*
X000998Y015907D02*
X000998Y016257D01*
X001173Y016257D01*
X001231Y016199D01*
X001231Y016082D01*
X001173Y016023D01*
X000998Y016023D01*
X001115Y016023D02*
X001231Y015907D01*
X001366Y016140D02*
X001483Y016257D01*
X001483Y015907D01*
X001366Y015907D02*
X001600Y015907D01*
X006978Y021797D02*
X006978Y022147D01*
X007153Y022147D01*
X007211Y022089D01*
X007211Y021972D01*
X007153Y021913D01*
X006978Y021913D01*
X007095Y021913D02*
X007211Y021797D01*
X007580Y021797D02*
X007346Y021797D01*
X007580Y022030D01*
X007580Y022089D01*
X007521Y022147D01*
X007405Y022147D01*
X007346Y022089D01*
X000768Y021797D02*
X000768Y022147D01*
X000943Y022147D01*
X001001Y022089D01*
X001001Y021972D01*
X000943Y021913D01*
X000768Y021913D01*
X000885Y021913D02*
X001001Y021797D01*
X001136Y022089D02*
X001195Y022147D01*
X001311Y022147D01*
X001370Y022089D01*
X001370Y022030D01*
X001311Y021972D01*
X001253Y021972D01*
X001311Y021972D02*
X001370Y021913D01*
X001370Y021855D01*
X001311Y021797D01*
X001195Y021797D01*
X001136Y021855D01*
X000998Y013887D02*
X000998Y014237D01*
X001173Y014237D01*
X001231Y014179D01*
X001231Y014062D01*
X001173Y014003D01*
X000998Y014003D01*
X001115Y014003D02*
X001231Y013887D01*
X001600Y014237D02*
X001366Y014237D01*
X001366Y014062D01*
X001483Y014120D01*
X001541Y014120D01*
X001600Y014062D01*
X001600Y013945D01*
X001541Y013887D01*
X001425Y013887D01*
X001366Y013945D01*
X006648Y013837D02*
X006648Y014187D01*
X006823Y014187D01*
X006881Y014129D01*
X006881Y014012D01*
X006823Y013953D01*
X006648Y013953D01*
X006765Y013953D02*
X006881Y013837D01*
X007250Y014187D02*
X007133Y014129D01*
X007016Y014012D01*
X007016Y013895D01*
X007075Y013837D01*
X007191Y013837D01*
X007250Y013895D01*
X007250Y013953D01*
X007191Y014012D01*
X007016Y014012D01*
X003898Y021855D02*
X003956Y021797D01*
X004015Y021797D01*
X004073Y021855D01*
X004073Y022147D01*
X004015Y022147D02*
X004131Y022147D01*
X004266Y022030D02*
X004383Y022147D01*
X004383Y021797D01*
X004266Y021797D02*
X004500Y021797D01*
X002281Y016199D02*
X002223Y016257D01*
X002106Y016257D01*
X002048Y016199D01*
X002048Y015965D01*
X002106Y015907D01*
X002223Y015907D01*
X002281Y015965D01*
X002416Y016140D02*
X002533Y016257D01*
X002533Y015907D01*
X002416Y015907D02*
X002650Y015907D01*
X005631Y017139D02*
X005573Y017197D01*
X005456Y017197D01*
X005398Y017139D01*
X005398Y016905D01*
X005456Y016847D01*
X005573Y016847D01*
X005631Y016905D01*
X006000Y016847D02*
X005766Y016847D01*
X006000Y017080D01*
X006000Y017139D01*
X005941Y017197D01*
X005825Y017197D01*
X005766Y017139D01*
X006978Y024927D02*
X006978Y024577D01*
X007153Y024577D01*
X007211Y024635D01*
X007211Y024869D01*
X007153Y024927D01*
X006978Y024927D01*
X007346Y024810D02*
X007463Y024927D01*
X007463Y024577D01*
X007346Y024577D02*
X007580Y024577D01*
X000768Y024927D02*
X000768Y024577D01*
X000943Y024577D01*
X001001Y024635D01*
X001001Y024869D01*
X000943Y024927D01*
X000768Y024927D01*
X001370Y024577D02*
X001136Y024577D01*
X001370Y024810D01*
X001370Y024869D01*
X001311Y024927D01*
X001195Y024927D01*
X001136Y024869D01*
X000998Y017907D02*
X000998Y018257D01*
X001173Y018257D01*
X001231Y018199D01*
X001231Y018082D01*
X001173Y018023D01*
X000998Y018023D01*
X001115Y018023D02*
X001231Y017907D01*
X001541Y017907D02*
X001541Y018257D01*
X001366Y018082D01*
X001600Y018082D01*
X006881Y016199D02*
X006823Y016257D01*
X006706Y016257D01*
X006648Y016199D01*
X006648Y015965D01*
X006706Y015907D01*
X006823Y015907D01*
X006881Y015965D01*
X007016Y016199D02*
X007075Y016257D01*
X007191Y016257D01*
X007250Y016199D01*
X007250Y016140D01*
X007191Y016082D01*
X007133Y016082D01*
X007191Y016082D02*
X007250Y016023D01*
X007250Y015965D01*
X007191Y015907D01*
X007075Y015907D01*
X007016Y015965D01*
X006894Y016649D02*
X006894Y017515D01*
X007052Y017515D01*
X007052Y016649D01*
X006894Y016649D01*
X006707Y016649D02*
X006707Y017515D01*
X007239Y017515D01*
X007239Y016649D01*
X006707Y016649D01*
X006748Y017965D02*
X006748Y017673D01*
X006806Y017615D01*
X006923Y017615D01*
X006981Y017673D01*
X006981Y017965D01*
X007291Y017615D02*
X007291Y017965D01*
X007116Y017790D01*
X007350Y017790D01*
X002048Y017907D02*
X002048Y018257D01*
X002223Y018257D01*
X002281Y018199D01*
X002281Y018082D01*
X002223Y018023D01*
X002048Y018023D01*
X002165Y018023D02*
X002281Y017907D01*
X002416Y018257D02*
X002650Y018257D01*
X002650Y018199D01*
X002416Y017965D01*
X002416Y017907D01*
X006723Y000832D02*
X006725Y000881D01*
X006731Y000929D01*
X006741Y000977D01*
X006755Y001024D01*
X006772Y001070D01*
X006793Y001114D01*
X006818Y001156D01*
X006846Y001196D01*
X006878Y001234D01*
X006912Y001269D01*
X006949Y001301D01*
X006988Y001330D01*
X007030Y001356D01*
X007074Y001378D01*
X007119Y001396D01*
X007166Y001411D01*
X007213Y001422D01*
X007262Y001429D01*
X007311Y001432D01*
X007360Y001431D01*
X007408Y001426D01*
X007457Y001417D01*
X007504Y001404D01*
X007550Y001387D01*
X007594Y001367D01*
X007637Y001343D01*
X007678Y001316D01*
X007716Y001285D01*
X007752Y001252D01*
X007784Y001216D01*
X007814Y001177D01*
X007841Y001136D01*
X007864Y001092D01*
X007883Y001047D01*
X007899Y001001D01*
X007911Y000954D01*
X007919Y000905D01*
X007923Y000856D01*
X007923Y000808D01*
X007919Y000759D01*
X007911Y000710D01*
X007899Y000663D01*
X007883Y000617D01*
X007864Y000572D01*
X007841Y000528D01*
X007814Y000487D01*
X007784Y000448D01*
X007752Y000412D01*
X007716Y000379D01*
X007678Y000348D01*
X007637Y000321D01*
X007594Y000297D01*
X007550Y000277D01*
X007504Y000260D01*
X007457Y000247D01*
X007408Y000238D01*
X007360Y000233D01*
X007311Y000232D01*
X007262Y000235D01*
X007213Y000242D01*
X007166Y000253D01*
X007119Y000268D01*
X007074Y000286D01*
X007030Y000308D01*
X006988Y000334D01*
X006949Y000363D01*
X006912Y000395D01*
X006878Y000430D01*
X006846Y000468D01*
X006818Y000508D01*
X006793Y000550D01*
X006772Y000594D01*
X006755Y000640D01*
X006741Y000687D01*
X006731Y000735D01*
X006725Y000783D01*
X006723Y000832D01*
X000423Y021132D02*
X000425Y021181D01*
X000431Y021229D01*
X000441Y021277D01*
X000455Y021324D01*
X000472Y021370D01*
X000493Y021414D01*
X000518Y021456D01*
X000546Y021496D01*
X000578Y021534D01*
X000612Y021569D01*
X000649Y021601D01*
X000688Y021630D01*
X000730Y021656D01*
X000774Y021678D01*
X000819Y021696D01*
X000866Y021711D01*
X000913Y021722D01*
X000962Y021729D01*
X001011Y021732D01*
X001060Y021731D01*
X001108Y021726D01*
X001157Y021717D01*
X001204Y021704D01*
X001250Y021687D01*
X001294Y021667D01*
X001337Y021643D01*
X001378Y021616D01*
X001416Y021585D01*
X001452Y021552D01*
X001484Y021516D01*
X001514Y021477D01*
X001541Y021436D01*
X001564Y021392D01*
X001583Y021347D01*
X001599Y021301D01*
X001611Y021254D01*
X001619Y021205D01*
X001623Y021156D01*
X001623Y021108D01*
X001619Y021059D01*
X001611Y021010D01*
X001599Y020963D01*
X001583Y020917D01*
X001564Y020872D01*
X001541Y020828D01*
X001514Y020787D01*
X001484Y020748D01*
X001452Y020712D01*
X001416Y020679D01*
X001378Y020648D01*
X001337Y020621D01*
X001294Y020597D01*
X001250Y020577D01*
X001204Y020560D01*
X001157Y020547D01*
X001108Y020538D01*
X001060Y020533D01*
X001011Y020532D01*
X000962Y020535D01*
X000913Y020542D01*
X000866Y020553D01*
X000819Y020568D01*
X000774Y020586D01*
X000730Y020608D01*
X000688Y020634D01*
X000649Y020663D01*
X000612Y020695D01*
X000578Y020730D01*
X000546Y020768D01*
X000518Y020808D01*
X000493Y020850D01*
X000472Y020894D01*
X000455Y020940D01*
X000441Y020987D01*
X000431Y021035D01*
X000425Y021083D01*
X000423Y021132D01*
D12*
X001303Y023839D02*
X001516Y024052D01*
X001516Y023412D01*
X001303Y023412D02*
X001730Y023412D01*
X003101Y003202D02*
X003101Y002762D01*
X003248Y002909D01*
X003395Y002762D01*
X003395Y003202D01*
X003561Y003202D02*
X003561Y002762D01*
X003708Y002909D01*
X003855Y002762D01*
X003855Y003202D01*
X004022Y002982D02*
X004315Y002982D01*
X004482Y003055D02*
X004629Y003202D01*
X004629Y002762D01*
X004482Y002762D02*
X004776Y002762D01*
X004942Y003055D02*
X005089Y003202D01*
X005089Y002762D01*
X004942Y002762D02*
X005236Y002762D01*
X002953Y024412D02*
X002953Y024705D01*
X003100Y024852D01*
X003246Y024705D01*
X003246Y024412D01*
X003246Y024632D02*
X002953Y024632D01*
X003903Y024412D02*
X003903Y024852D01*
X004050Y024705D01*
X004196Y024852D01*
X004196Y024412D01*
X005003Y024412D02*
X005003Y024852D01*
X005223Y024852D01*
X005296Y024779D01*
X005296Y024705D01*
X005223Y024632D01*
X005296Y024559D01*
X005296Y024485D01*
X005223Y024412D01*
X005003Y024412D01*
X005003Y024632D02*
X005223Y024632D01*
X003248Y017166D02*
X003231Y017165D01*
X003214Y017160D01*
X003199Y017153D01*
X003185Y017143D01*
X003173Y017131D01*
X003163Y017117D01*
X003156Y017102D01*
X003151Y017085D01*
X003150Y017068D01*
X005098Y017166D02*
X005115Y017165D01*
X005132Y017160D01*
X005147Y017153D01*
X005161Y017143D01*
X005173Y017131D01*
X005183Y017117D01*
X005190Y017102D01*
X005195Y017085D01*
X005196Y017068D01*
X005196Y015296D02*
X005195Y015279D01*
X005190Y015262D01*
X005183Y015247D01*
X005173Y015233D01*
X005161Y015221D01*
X005147Y015211D01*
X005132Y015204D01*
X005115Y015199D01*
X005098Y015198D01*
X003248Y015198D02*
X003231Y015199D01*
X003214Y015204D01*
X003199Y015211D01*
X003185Y015221D01*
X003173Y015233D01*
X003163Y015247D01*
X003156Y015262D01*
X003151Y015279D01*
X003150Y015296D01*
X003252Y015197D02*
X005102Y015197D01*
X005102Y017166D02*
X003252Y017166D01*
X003303Y017166D01*
X003547Y017166D02*
X003799Y017166D01*
X004047Y017166D02*
X004299Y017166D01*
X004547Y017166D02*
X004799Y017166D01*
X005043Y017166D02*
X005102Y017166D01*
X005090Y015197D02*
X005039Y015197D01*
X004799Y015197D02*
X004543Y015197D01*
X004299Y015197D02*
X004043Y015197D01*
X003799Y015197D02*
X003547Y015197D01*
X003303Y015197D02*
X003252Y015197D01*
X003149Y015300D02*
X003149Y017068D01*
X005197Y017068D02*
X005197Y015296D01*
X001413Y015402D02*
X001413Y015062D01*
X001133Y015062D02*
X001133Y015402D01*
X007113Y022652D02*
X007113Y022992D01*
X007393Y022992D02*
X007393Y022652D01*
X001193Y022652D02*
X001193Y022992D01*
X000913Y022992D02*
X000913Y022652D01*
X001413Y013352D02*
X001413Y013012D01*
X001133Y013012D02*
X001133Y013352D01*
X007113Y013352D02*
X007113Y013012D01*
X006833Y013012D02*
X006833Y013352D01*
X001133Y017012D02*
X001133Y017352D01*
X001413Y017352D02*
X001413Y017012D01*
X002463Y017012D02*
X002463Y017352D01*
X002183Y017352D02*
X002183Y017012D01*
D13*
X002327Y024732D02*
X001913Y024732D01*
X002120Y024939D02*
X002120Y024525D01*
X006063Y024682D02*
X006477Y024682D01*
D14*
X003423Y017343D03*
X003923Y017343D03*
X004423Y017343D03*
X004923Y017343D03*
X004919Y015020D03*
X004419Y015020D03*
X003919Y015020D03*
X003423Y015020D03*
D15*
X003417Y015743D02*
X003419Y015770D01*
X003425Y015797D01*
X003434Y015823D01*
X003447Y015847D01*
X003463Y015870D01*
X003482Y015889D01*
X003504Y015906D01*
X003528Y015920D01*
X003553Y015930D01*
X003580Y015937D01*
X003607Y015940D01*
X003635Y015939D01*
X003662Y015934D01*
X003688Y015926D01*
X003712Y015914D01*
X003735Y015898D01*
X003756Y015880D01*
X003773Y015859D01*
X003788Y015835D01*
X003799Y015810D01*
X003807Y015784D01*
X003811Y015757D01*
X003811Y015729D01*
X003807Y015702D01*
X003799Y015676D01*
X003788Y015651D01*
X003773Y015627D01*
X003756Y015606D01*
X003735Y015588D01*
X003713Y015572D01*
X003688Y015560D01*
X003662Y015552D01*
X003635Y015547D01*
X003607Y015546D01*
X003580Y015549D01*
X003553Y015556D01*
X003528Y015566D01*
X003504Y015580D01*
X003482Y015597D01*
X003463Y015616D01*
X003447Y015639D01*
X003434Y015663D01*
X003425Y015689D01*
X003419Y015716D01*
X003417Y015743D01*
X000886Y014652D02*
X000886Y015812D01*
X001660Y015812D01*
X001660Y014652D01*
X000886Y014652D01*
X007640Y023402D02*
X007640Y022242D01*
X006866Y022242D01*
X006866Y023402D01*
X007640Y023402D01*
X000666Y022242D02*
X000666Y023402D01*
X001440Y023402D01*
X001440Y022242D01*
X000666Y022242D01*
X000886Y012602D02*
X000886Y013762D01*
X001660Y013762D01*
X001660Y012602D01*
X000886Y012602D01*
X006586Y012602D02*
X006586Y013762D01*
X007360Y013762D01*
X007360Y012602D01*
X006586Y012602D01*
X002710Y015812D02*
X002710Y014652D01*
X001936Y014652D01*
X001936Y015812D01*
X002710Y015812D01*
X006060Y016762D02*
X006060Y015602D01*
X005286Y015602D01*
X005286Y016762D01*
X006060Y016762D01*
X001660Y017762D02*
X001660Y016602D01*
X000886Y016602D01*
X000886Y017762D01*
X001660Y017762D01*
X007360Y015812D02*
X007360Y014652D01*
X006586Y014652D01*
X006586Y015812D01*
X007360Y015812D01*
X001936Y016602D02*
X001936Y017762D01*
X002710Y017762D01*
X002710Y016602D01*
X001936Y016602D01*
D16*
X001273Y015482D03*
X001273Y014982D03*
X007253Y022572D03*
X007253Y023072D03*
X001053Y023072D03*
X001053Y022572D03*
X001273Y013432D03*
X001273Y012932D03*
X006973Y013432D03*
X006973Y012932D03*
X001273Y016932D03*
X001273Y017432D03*
X002323Y017432D03*
X002323Y016932D03*
D17*
X001673Y024942D02*
X006673Y024942D01*
X006673Y024192D01*
X006673Y022442D01*
X001673Y022442D01*
X001673Y024192D01*
X001673Y024942D01*
X001673Y024192D02*
X006673Y024192D01*
D18*
X002325Y015463D03*
X002325Y015003D03*
X005675Y016413D03*
X005675Y015953D03*
X006975Y015463D03*
X006975Y015003D03*
D19*
X002493Y015092D02*
X002493Y015372D01*
X002158Y015372D02*
X002158Y015092D01*
X005843Y016042D02*
X005843Y016322D01*
X005508Y016322D02*
X005508Y016042D01*
X007095Y023815D02*
X007095Y024169D01*
X007410Y024169D02*
X007410Y023815D01*
X001210Y023815D02*
X001210Y024169D01*
X000895Y024169D02*
X000895Y023815D01*
X007143Y015372D02*
X007143Y015092D01*
X006808Y015092D02*
X006808Y015372D01*
D20*
X007253Y024248D03*
X007253Y023736D03*
X001053Y023736D03*
X001053Y024248D03*
D21*
X007105Y024051D03*
X007401Y024051D03*
X001201Y023933D03*
X000905Y023933D03*
D22*
X007253Y024051D03*
X001053Y023933D03*
D23*
X001233Y007702D02*
X001237Y007846D01*
X001247Y007990D01*
X001265Y008133D01*
X001289Y008276D01*
X001321Y008416D01*
X001360Y008555D01*
X001405Y008692D01*
X001457Y008827D01*
X001515Y008959D01*
X001580Y009088D01*
X001651Y009213D01*
X001728Y009335D01*
X001812Y009453D01*
X001900Y009567D01*
X001995Y009676D01*
X002094Y009781D01*
X002199Y009880D01*
X002308Y009975D01*
X002422Y010063D01*
X002540Y010147D01*
X002662Y010224D01*
X002787Y010295D01*
X002916Y010360D01*
X003048Y010418D01*
X003183Y010470D01*
X003320Y010515D01*
X003459Y010554D01*
X003599Y010586D01*
X003742Y010610D01*
X003885Y010628D01*
X004029Y010638D01*
X004173Y010642D01*
X004317Y010638D01*
X004461Y010628D01*
X004604Y010610D01*
X004747Y010586D01*
X004887Y010554D01*
X005026Y010515D01*
X005163Y010470D01*
X005298Y010418D01*
X005430Y010360D01*
X005559Y010295D01*
X005684Y010224D01*
X005806Y010147D01*
X005924Y010063D01*
X006038Y009975D01*
X006147Y009880D01*
X006252Y009781D01*
X006351Y009676D01*
X006446Y009567D01*
X006534Y009453D01*
X006618Y009335D01*
X006695Y009213D01*
X006766Y009088D01*
X006831Y008959D01*
X006889Y008827D01*
X006941Y008692D01*
X006986Y008555D01*
X007025Y008416D01*
X007057Y008276D01*
X007081Y008133D01*
X007099Y007990D01*
X007109Y007846D01*
X007113Y007702D01*
X007109Y007558D01*
X007099Y007414D01*
X007081Y007271D01*
X007057Y007128D01*
X007025Y006988D01*
X006986Y006849D01*
X006941Y006712D01*
X006889Y006577D01*
X006831Y006445D01*
X006766Y006316D01*
X006695Y006191D01*
X006618Y006069D01*
X006534Y005951D01*
X006446Y005837D01*
X006351Y005728D01*
X006252Y005623D01*
X006147Y005524D01*
X006038Y005429D01*
X005924Y005341D01*
X005806Y005257D01*
X005684Y005180D01*
X005559Y005109D01*
X005430Y005044D01*
X005298Y004986D01*
X005163Y004934D01*
X005026Y004889D01*
X004887Y004850D01*
X004747Y004818D01*
X004604Y004794D01*
X004461Y004776D01*
X004317Y004766D01*
X004173Y004762D01*
X004029Y004766D01*
X003885Y004776D01*
X003742Y004794D01*
X003599Y004818D01*
X003459Y004850D01*
X003320Y004889D01*
X003183Y004934D01*
X003048Y004986D01*
X002916Y005044D01*
X002787Y005109D01*
X002662Y005180D01*
X002540Y005257D01*
X002422Y005341D01*
X002308Y005429D01*
X002199Y005524D01*
X002094Y005623D01*
X001995Y005728D01*
X001900Y005837D01*
X001812Y005951D01*
X001728Y006069D01*
X001651Y006191D01*
X001580Y006316D01*
X001515Y006445D01*
X001457Y006577D01*
X001405Y006712D01*
X001360Y006849D01*
X001321Y006988D01*
X001289Y007128D01*
X001265Y007271D01*
X001247Y007414D01*
X001237Y007558D01*
X001233Y007702D01*
X001237Y007846D01*
X001247Y007990D01*
X001265Y008133D01*
X001289Y008276D01*
X001321Y008416D01*
X001360Y008555D01*
X001405Y008692D01*
X001457Y008827D01*
X001515Y008959D01*
X001580Y009088D01*
X001651Y009213D01*
X001728Y009335D01*
X001812Y009453D01*
X001900Y009567D01*
X001995Y009676D01*
X002094Y009781D01*
X002199Y009880D01*
X002308Y009975D01*
X002422Y010063D01*
X002540Y010147D01*
X002662Y010224D01*
X002787Y010295D01*
X002916Y010360D01*
X003048Y010418D01*
X003183Y010470D01*
X003320Y010515D01*
X003459Y010554D01*
X003599Y010586D01*
X003742Y010610D01*
X003885Y010628D01*
X004029Y010638D01*
X004173Y010642D01*
X004317Y010638D01*
X004461Y010628D01*
X004604Y010610D01*
X004747Y010586D01*
X004887Y010554D01*
X005026Y010515D01*
X005163Y010470D01*
X005298Y010418D01*
X005430Y010360D01*
X005559Y010295D01*
X005684Y010224D01*
X005806Y010147D01*
X005924Y010063D01*
X006038Y009975D01*
X006147Y009880D01*
X006252Y009781D01*
X006351Y009676D01*
X006446Y009567D01*
X006534Y009453D01*
X006618Y009335D01*
X006695Y009213D01*
X006766Y009088D01*
X006831Y008959D01*
X006889Y008827D01*
X006941Y008692D01*
X006986Y008555D01*
X007025Y008416D01*
X007057Y008276D01*
X007081Y008133D01*
X007099Y007990D01*
X007109Y007846D01*
X007113Y007702D01*
X007109Y007558D01*
X007099Y007414D01*
X007081Y007271D01*
X007057Y007128D01*
X007025Y006988D01*
X006986Y006849D01*
X006941Y006712D01*
X006889Y006577D01*
X006831Y006445D01*
X006766Y006316D01*
X006695Y006191D01*
X006618Y006069D01*
X006534Y005951D01*
X006446Y005837D01*
X006351Y005728D01*
X006252Y005623D01*
X006147Y005524D01*
X006038Y005429D01*
X005924Y005341D01*
X005806Y005257D01*
X005684Y005180D01*
X005559Y005109D01*
X005430Y005044D01*
X005298Y004986D01*
X005163Y004934D01*
X005026Y004889D01*
X004887Y004850D01*
X004747Y004818D01*
X004604Y004794D01*
X004461Y004776D01*
X004317Y004766D01*
X004173Y004762D01*
X004029Y004766D01*
X003885Y004776D01*
X003742Y004794D01*
X003599Y004818D01*
X003459Y004850D01*
X003320Y004889D01*
X003183Y004934D01*
X003048Y004986D01*
X002916Y005044D01*
X002787Y005109D01*
X002662Y005180D01*
X002540Y005257D01*
X002422Y005341D01*
X002308Y005429D01*
X002199Y005524D01*
X002094Y005623D01*
X001995Y005728D01*
X001900Y005837D01*
X001812Y005951D01*
X001728Y006069D01*
X001651Y006191D01*
X001580Y006316D01*
X001515Y006445D01*
X001457Y006577D01*
X001405Y006712D01*
X001360Y006849D01*
X001321Y006988D01*
X001289Y007128D01*
X001265Y007271D01*
X001247Y007414D01*
X001237Y007558D01*
X001233Y007702D01*
D24*
X006491Y017615D03*
D25*
X006624Y017338D03*
X006624Y017082D03*
X006624Y016826D03*
X007322Y016826D03*
X007322Y017082D03*
X007322Y017338D03*
M02*
