G75*
G70*
%OFA0B0*%
%FSLAX24Y24*%
%IPPOS*%
%LPD*%
%AMOC8*
5,1,8,0,0,1.08239X$1,22.5*
%
%ADD10C,0.0030*%
%ADD11R,0.0197X0.0866*%
%ADD12R,0.0400X0.0200*%
%ADD13R,0.0433X0.0394*%
%ADD14R,0.0394X0.0433*%
%ADD15C,0.0500*%
%ADD16C,0.0594*%
%ADD17R,0.0315X0.0315*%
%ADD18C,0.0157*%
%ADD19C,0.0787*%
%ADD20C,0.0240*%
%ADD21C,0.0160*%
%ADD22C,0.0376*%
%ADD23C,0.0100*%
D10*
X001338Y000899D02*
X001479Y000899D01*
X001409Y000899D02*
X001409Y000689D01*
X001559Y000724D02*
X001559Y000864D01*
X001594Y000899D01*
X001665Y000899D01*
X001700Y000864D01*
X001700Y000724D01*
X001665Y000689D01*
X001594Y000689D01*
X001559Y000724D01*
X001780Y000759D02*
X001886Y000759D01*
X001921Y000794D01*
X001921Y000864D01*
X001886Y000899D01*
X001780Y000899D01*
X001780Y000689D01*
D11*
X004773Y013332D03*
X005270Y013332D03*
X005770Y013332D03*
X006270Y013332D03*
X006273Y015816D03*
X005773Y015816D03*
X005273Y015816D03*
X004773Y015816D03*
D12*
G36*
X003120Y005725D02*
X002748Y005869D01*
X002820Y006055D01*
X003192Y005911D01*
X003120Y005725D01*
G37*
G36*
X002865Y005063D02*
X002493Y005207D01*
X002565Y005393D01*
X002937Y005249D01*
X002865Y005063D01*
G37*
G36*
X004187Y004553D02*
X003815Y004697D01*
X003887Y004883D01*
X004259Y004739D01*
X004187Y004553D01*
G37*
G36*
X004442Y005214D02*
X004070Y005358D01*
X004142Y005544D01*
X004514Y005400D01*
X004442Y005214D01*
G37*
G36*
X006977Y005358D02*
X006605Y005214D01*
X006533Y005400D01*
X006905Y005544D01*
X006977Y005358D01*
G37*
G36*
X007232Y004697D02*
X006860Y004553D01*
X006788Y004739D01*
X007160Y004883D01*
X007232Y004697D01*
G37*
G36*
X008299Y005869D02*
X007927Y005725D01*
X007855Y005911D01*
X008227Y006055D01*
X008299Y005869D01*
G37*
G36*
X008554Y005207D02*
X008182Y005063D01*
X008110Y005249D01*
X008482Y005393D01*
X008554Y005207D01*
G37*
D13*
X007173Y006889D03*
X007173Y007559D03*
X003873Y007559D03*
X003873Y006889D03*
X002873Y006889D03*
X002873Y007559D03*
X003773Y014939D03*
X003773Y015609D03*
X007273Y015609D03*
X007273Y014939D03*
D14*
X007273Y014209D03*
X007273Y013539D03*
X008589Y017674D03*
X009258Y017674D03*
X008173Y007559D03*
X008173Y006889D03*
X003773Y013539D03*
X003773Y014209D03*
X002458Y017674D03*
X001789Y017674D03*
D15*
X005523Y007324D03*
X008473Y016664D03*
D16*
X007523Y017377D02*
X007523Y017971D01*
X006523Y017971D02*
X006523Y017377D01*
X005523Y017377D02*
X005523Y017971D01*
X004523Y017971D02*
X004523Y017377D01*
X003523Y017377D02*
X003523Y017971D01*
D17*
X002419Y018824D03*
X001828Y018824D03*
X008628Y018824D03*
X009219Y018824D03*
D18*
X009376Y015830D02*
X009376Y015830D01*
X009198Y015830D01*
X009198Y015830D01*
X009376Y015830D01*
X009376Y015574D02*
X009376Y015574D01*
X009198Y015574D01*
X009198Y015574D01*
X009376Y015574D01*
X009376Y015318D02*
X009376Y015318D01*
X009198Y015318D01*
X009198Y015318D01*
X009376Y015318D01*
X008549Y015318D02*
X008549Y015318D01*
X008371Y015318D01*
X008371Y015318D01*
X008549Y015318D01*
X008549Y015574D02*
X008549Y015574D01*
X008371Y015574D01*
X008371Y015574D01*
X008549Y015574D01*
X008549Y015830D02*
X008549Y015830D01*
X008371Y015830D01*
X008371Y015830D01*
X008549Y015830D01*
D19*
X002053Y015824D03*
X008953Y000924D03*
D20*
X006673Y005061D02*
X006755Y005379D01*
X006673Y005061D02*
X006223Y004874D01*
X004773Y004874D02*
X004473Y004705D01*
X004037Y004718D01*
X003529Y004918D01*
X003523Y004974D01*
X003423Y005674D01*
X003186Y005774D01*
X002970Y005890D01*
X002873Y007559D02*
X003873Y007559D01*
X003873Y008424D01*
X003073Y009224D01*
X003073Y012974D01*
X003223Y013124D01*
X003223Y014024D01*
X003373Y014174D01*
X003739Y014174D01*
X003773Y014209D02*
X003773Y014939D01*
X003508Y014939D01*
X003223Y015224D01*
X003223Y015874D01*
X003473Y016024D01*
X003923Y016024D01*
X003923Y016474D01*
X003523Y016724D01*
X003523Y017674D01*
X003923Y016024D02*
X004323Y016024D01*
X004582Y015816D01*
X004773Y015816D01*
X006270Y013332D02*
X006532Y013332D01*
X006723Y013524D01*
X007258Y013524D01*
X007308Y013489D02*
X007323Y013024D01*
X008023Y015324D02*
X008179Y015318D01*
X008460Y015318D01*
X008873Y015574D02*
X008873Y016174D01*
X009123Y016324D01*
X006073Y007824D02*
X004973Y007824D01*
X004873Y007559D01*
X003873Y007559D01*
X006073Y007824D02*
X006223Y007574D01*
X007073Y007574D01*
X007173Y007574D02*
X008158Y007574D01*
D21*
X008173Y007559D01*
X008158Y007589D01*
X008139Y006924D02*
X008823Y006924D01*
X008173Y006889D02*
X008139Y006924D01*
X007823Y006474D02*
X007523Y006474D01*
X007173Y006624D01*
X007173Y006889D01*
X006708Y006889D01*
X006458Y006889D01*
X006023Y007324D01*
X005523Y007324D01*
X006573Y007024D02*
X006708Y006889D01*
X007073Y007559D02*
X007173Y007559D01*
X007208Y007524D01*
X007173Y007574D01*
X007073Y007574D02*
X007073Y007559D01*
X007823Y006474D02*
X008077Y006320D01*
X008077Y005890D01*
X008523Y005674D02*
X007823Y005424D01*
X007068Y004718D01*
X007010Y004718D01*
X006755Y005379D02*
X006799Y005424D01*
X008123Y004374D02*
X008323Y004574D01*
X008323Y005220D01*
X008332Y005228D01*
X008773Y005374D02*
X008523Y005674D01*
X008773Y005374D02*
X008773Y004524D01*
X008373Y004124D01*
X002773Y004124D01*
X002273Y004574D01*
X002273Y006724D01*
X002373Y006874D01*
X002858Y006874D01*
X002873Y006889D01*
X002715Y005228D02*
X002715Y004583D01*
X002923Y004374D01*
X008123Y004374D01*
X004523Y007024D02*
X004389Y006889D01*
X003873Y006889D01*
X003873Y006574D01*
X004023Y006474D01*
X004223Y006474D01*
X004323Y006274D01*
X004323Y005411D01*
X004292Y005379D01*
X004323Y012724D02*
X005723Y012724D01*
X005773Y012774D01*
X005773Y013328D01*
X005770Y013332D01*
X005273Y013336D02*
X005270Y013332D01*
X005273Y013336D02*
X005273Y014324D01*
X004773Y014724D02*
X004773Y013332D01*
X004773Y014724D02*
X006773Y014724D01*
X006973Y014874D01*
X007208Y014874D01*
X007273Y014939D01*
X007289Y014924D01*
X006739Y015074D02*
X007273Y015609D01*
X007323Y015659D01*
X007323Y016524D01*
X007473Y016774D01*
X007923Y016774D01*
X008173Y017124D01*
X008173Y017639D01*
X008589Y017639D01*
X008589Y017674D01*
X008460Y016677D02*
X008473Y016664D01*
X008460Y015574D02*
X008460Y015318D01*
X008373Y014974D02*
X009573Y014974D01*
X009673Y015074D01*
X009673Y015866D01*
X009287Y015830D01*
X009287Y015574D02*
X008873Y015574D01*
X008373Y014974D02*
X007608Y014209D01*
X007273Y014209D01*
X007273Y013539D02*
X007258Y013524D01*
X007273Y013539D02*
X007308Y013489D01*
X006739Y015074D02*
X004423Y015074D01*
X003889Y015609D01*
X003773Y015609D01*
X004523Y016724D02*
X004523Y017674D01*
X004523Y016724D02*
X005273Y016524D01*
X005273Y015816D01*
X005773Y015816D02*
X005773Y016524D01*
X005523Y016774D01*
X005523Y017674D01*
X006523Y016774D02*
X006273Y016524D01*
X006273Y015816D01*
X006523Y016774D02*
X006523Y017674D01*
X008628Y018824D02*
X008628Y018929D01*
X008973Y019274D01*
X009373Y019274D01*
X009673Y019024D01*
X009673Y015866D01*
X009258Y017674D02*
X009258Y018785D01*
X009219Y018824D01*
X008628Y018824D02*
X003073Y018824D01*
X002623Y019274D01*
X001873Y019274D01*
X001823Y019224D01*
X001823Y018829D01*
X001828Y018824D01*
X002419Y018824D02*
X002458Y018785D01*
X002458Y017674D01*
X001789Y017674D02*
X001789Y017089D01*
X001773Y017074D01*
X003773Y014209D02*
X003739Y014174D01*
X003773Y013539D02*
X003773Y013024D01*
D22*
X003773Y013024D03*
X004323Y012724D03*
X005273Y014324D03*
X007323Y013024D03*
X008023Y015324D03*
X009123Y016324D03*
X006573Y007024D03*
X006223Y004874D03*
X004773Y004874D03*
X004523Y007024D03*
X008823Y006924D03*
X001773Y017074D03*
D23*
X007289Y014924D02*
X007573Y014924D01*
X007723Y015824D01*
X007729Y015830D01*
X008460Y015830D01*
X008460Y016677D01*
M02*
