G75*
G70*
%OFA0B0*%
%FSLAX24Y24*%
%IPPOS*%
%LPD*%
%AMOC8*
5,1,8,0,0,1.08239X$1,22.5*
%
%ADD10C,0.0030*%
%ADD11C,0.0594*%
%ADD12C,0.0160*%
%ADD13C,0.0376*%
%ADD14C,0.0240*%
D10*
X001326Y000599D02*
X001466Y000599D01*
X001396Y000599D02*
X001396Y000389D01*
X001547Y000424D02*
X001547Y000564D01*
X001582Y000599D01*
X001652Y000599D01*
X001687Y000564D01*
X001687Y000424D01*
X001652Y000389D01*
X001582Y000389D01*
X001547Y000424D01*
X001768Y000424D02*
X001803Y000389D01*
X001908Y000389D01*
X001908Y000599D01*
X001803Y000599D01*
X001768Y000564D01*
X001768Y000529D01*
X001803Y000494D01*
X001908Y000494D01*
X001803Y000494D02*
X001768Y000459D01*
X001768Y000424D01*
D11*
X003523Y017377D02*
X003523Y017971D01*
X004523Y017971D02*
X004523Y017377D01*
X005523Y017377D02*
X005523Y017971D01*
X006523Y017971D02*
X006523Y017377D01*
X007523Y017377D02*
X007523Y017971D01*
D12*
X007505Y017932D02*
X007542Y017932D01*
X007542Y017774D02*
X007505Y017774D01*
X007505Y017693D02*
X007505Y018448D01*
X007486Y018448D01*
X007412Y018436D01*
X007340Y018413D01*
X007274Y018379D01*
X007213Y018334D01*
X007160Y018281D01*
X007116Y018221D01*
X007082Y018154D01*
X007058Y018082D01*
X007047Y018008D01*
X007047Y017692D01*
X007505Y017692D01*
X007505Y017655D01*
X007542Y017655D01*
X007542Y016900D01*
X007561Y016900D01*
X007635Y016912D01*
X007706Y016935D01*
X007773Y016969D01*
X007834Y017013D01*
X007887Y017066D01*
X007931Y017127D01*
X007965Y017194D01*
X007989Y017265D01*
X008000Y017340D01*
X008000Y017655D01*
X007542Y017655D01*
X007542Y017692D01*
X008000Y017692D01*
X008000Y018008D01*
X007989Y018082D01*
X007965Y018154D01*
X007931Y018221D01*
X007887Y018281D01*
X007834Y018334D01*
X007773Y018379D01*
X007706Y018413D01*
X007635Y018436D01*
X007561Y018448D01*
X007542Y018448D01*
X007542Y017693D01*
X007505Y017693D01*
X007505Y017655D02*
X007047Y017655D01*
X007047Y017340D01*
X007058Y017265D01*
X007082Y017194D01*
X007116Y017127D01*
X007160Y017066D01*
X007213Y017013D01*
X007274Y016969D01*
X007340Y016935D01*
X007412Y016912D01*
X007486Y016900D01*
X007505Y016900D01*
X007505Y017655D01*
X007505Y017615D02*
X007542Y017615D01*
X007542Y017456D02*
X007505Y017456D01*
X007505Y017298D02*
X007542Y017298D01*
X007542Y017139D02*
X007505Y017139D01*
X007505Y016981D02*
X007542Y016981D01*
X007789Y016981D02*
X009393Y016981D01*
X009433Y017029D02*
X009144Y016682D01*
X009052Y016682D01*
X008921Y016627D01*
X008820Y016527D01*
X008765Y016395D01*
X008765Y016253D01*
X008820Y016121D01*
X008921Y016020D01*
X009052Y015966D01*
X009195Y015966D01*
X009326Y016020D01*
X009390Y016084D01*
X009409Y016094D01*
X009808Y016573D01*
X009808Y000299D01*
X002080Y000299D01*
X002093Y000312D01*
X002093Y000417D01*
X002093Y000571D01*
X002093Y000676D01*
X001985Y000784D01*
X001880Y000784D01*
X001729Y000784D01*
X001659Y000784D01*
X001648Y000784D01*
X001576Y000784D01*
X001543Y000784D01*
X001250Y000784D01*
X001238Y000773D01*
X001238Y019569D01*
X003233Y019569D01*
X003233Y018341D01*
X003128Y018235D01*
X003057Y018064D01*
X003057Y017284D01*
X003128Y017113D01*
X003259Y016981D01*
X003431Y016910D01*
X003616Y016910D01*
X003788Y016981D01*
X003919Y017113D01*
X003990Y017284D01*
X003990Y018064D01*
X003919Y018235D01*
X003813Y018341D01*
X003813Y019234D01*
X009433Y019234D01*
X009433Y017029D01*
X009433Y017139D02*
X007937Y017139D01*
X007994Y017298D02*
X009433Y017298D01*
X009433Y017456D02*
X008000Y017456D01*
X008000Y017615D02*
X009433Y017615D01*
X009433Y017774D02*
X008000Y017774D01*
X008000Y017932D02*
X009433Y017932D01*
X009433Y018091D02*
X007986Y018091D01*
X007911Y018249D02*
X009433Y018249D01*
X009433Y018408D02*
X007716Y018408D01*
X007542Y018408D02*
X007505Y018408D01*
X007505Y018249D02*
X007542Y018249D01*
X007542Y018091D02*
X007505Y018091D01*
X007331Y018408D02*
X006689Y018408D01*
X006616Y018438D02*
X006431Y018438D01*
X006259Y018367D01*
X006128Y018235D01*
X006057Y018064D01*
X006057Y017284D01*
X006128Y017113D01*
X006259Y016981D01*
X006431Y016910D01*
X006616Y016910D01*
X006788Y016981D01*
X006919Y017113D01*
X006990Y017284D01*
X006990Y018064D01*
X006919Y018235D01*
X006788Y018367D01*
X006616Y018438D01*
X006358Y018408D02*
X005689Y018408D01*
X005616Y018438D02*
X005788Y018367D01*
X005919Y018235D01*
X005990Y018064D01*
X005990Y017284D01*
X005919Y017113D01*
X005788Y016981D01*
X005616Y016910D01*
X005431Y016910D01*
X005259Y016981D01*
X005128Y017113D01*
X005057Y017284D01*
X005057Y018064D01*
X005128Y018235D01*
X005259Y018367D01*
X005431Y018438D01*
X005616Y018438D01*
X005358Y018408D02*
X004689Y018408D01*
X004616Y018438D02*
X004431Y018438D01*
X004259Y018367D01*
X004128Y018235D01*
X004057Y018064D01*
X004057Y017284D01*
X004128Y017113D01*
X004259Y016981D01*
X004431Y016910D01*
X004616Y016910D01*
X004788Y016981D01*
X004919Y017113D01*
X004990Y017284D01*
X004990Y018064D01*
X004919Y018235D01*
X004788Y018367D01*
X004616Y018438D01*
X004358Y018408D02*
X003813Y018408D01*
X003813Y018566D02*
X009433Y018566D01*
X009433Y018725D02*
X003813Y018725D01*
X003813Y018883D02*
X009433Y018883D01*
X009433Y019042D02*
X003813Y019042D01*
X003813Y019200D02*
X009433Y019200D01*
X009261Y016822D02*
X001238Y016822D01*
X001238Y016664D02*
X009008Y016664D01*
X008811Y016505D02*
X001238Y016505D01*
X001238Y016347D02*
X008765Y016347D01*
X008792Y016188D02*
X001238Y016188D01*
X001238Y016030D02*
X008911Y016030D01*
X009123Y016324D02*
X009223Y016324D01*
X009335Y016030D02*
X009808Y016030D01*
X009808Y016188D02*
X009488Y016188D01*
X009620Y016347D02*
X009808Y016347D01*
X009808Y016505D02*
X009752Y016505D01*
X009808Y015871D02*
X001238Y015871D01*
X001238Y015712D02*
X009808Y015712D01*
X009808Y015554D02*
X001238Y015554D01*
X001238Y015395D02*
X009808Y015395D01*
X009808Y015237D02*
X001238Y015237D01*
X001238Y015078D02*
X009808Y015078D01*
X009808Y014920D02*
X001238Y014920D01*
X001238Y014761D02*
X009808Y014761D01*
X009808Y014603D02*
X006424Y014603D01*
X006465Y014586D02*
X006373Y014624D01*
X005480Y014624D01*
X005476Y014627D01*
X005345Y014682D01*
X005202Y014682D01*
X005071Y014627D01*
X004970Y014527D01*
X004915Y014395D01*
X004915Y014253D01*
X004970Y014121D01*
X005071Y014020D01*
X005202Y013966D01*
X005345Y013966D01*
X005476Y014020D01*
X005577Y014121D01*
X005578Y014124D01*
X006220Y014124D01*
X006473Y013870D01*
X006473Y012674D01*
X006512Y012582D01*
X006582Y012512D01*
X007673Y011420D01*
X007673Y009777D01*
X006362Y008466D01*
X006323Y008374D01*
X006323Y008274D01*
X006323Y007280D01*
X006270Y007227D01*
X006215Y007095D01*
X006215Y006953D01*
X006270Y006821D01*
X006371Y006720D01*
X006502Y006666D01*
X006645Y006666D01*
X006776Y006720D01*
X006877Y006821D01*
X006932Y006953D01*
X006932Y007095D01*
X006877Y007227D01*
X006823Y007280D01*
X006823Y008220D01*
X008065Y009462D01*
X008135Y009532D01*
X008173Y009624D01*
X008173Y011474D01*
X008173Y011574D01*
X008135Y011666D01*
X006973Y012827D01*
X006973Y013924D01*
X006973Y014024D01*
X006935Y014116D01*
X006535Y014516D01*
X006465Y014586D01*
X006607Y014444D02*
X008617Y014444D01*
X008608Y014440D02*
X008417Y014249D01*
X008313Y013999D01*
X008313Y013729D01*
X008417Y013479D01*
X008608Y013287D01*
X008858Y013184D01*
X009129Y013184D01*
X009379Y013287D01*
X009570Y013479D01*
X009673Y013729D01*
X009673Y013999D01*
X009570Y014249D01*
X009379Y014440D01*
X009129Y014544D01*
X008858Y014544D01*
X008608Y014440D01*
X008453Y014286D02*
X006765Y014286D01*
X006924Y014127D02*
X008366Y014127D01*
X008313Y013968D02*
X006973Y013968D01*
X006973Y013810D02*
X008313Y013810D01*
X008345Y013651D02*
X006973Y013651D01*
X006973Y013493D02*
X008411Y013493D01*
X008561Y013334D02*
X006973Y013334D01*
X006973Y013176D02*
X009808Y013176D01*
X009808Y013334D02*
X009425Y013334D01*
X009576Y013493D02*
X009808Y013493D01*
X009808Y013651D02*
X009641Y013651D01*
X009673Y013810D02*
X009808Y013810D01*
X009808Y013968D02*
X009673Y013968D01*
X009621Y014127D02*
X009808Y014127D01*
X009808Y014286D02*
X009533Y014286D01*
X009370Y014444D02*
X009808Y014444D01*
X009808Y013017D02*
X006973Y013017D01*
X006973Y012859D02*
X009808Y012859D01*
X009808Y012700D02*
X007101Y012700D01*
X007259Y012542D02*
X009808Y012542D01*
X009808Y012383D02*
X007418Y012383D01*
X007576Y012224D02*
X009808Y012224D01*
X009808Y012066D02*
X007735Y012066D01*
X007893Y011907D02*
X009808Y011907D01*
X009808Y011749D02*
X008052Y011749D01*
X008167Y011590D02*
X009808Y011590D01*
X009808Y011432D02*
X008173Y011432D01*
X008173Y011273D02*
X009808Y011273D01*
X009808Y011115D02*
X008173Y011115D01*
X008173Y010956D02*
X009808Y010956D01*
X009808Y010798D02*
X008173Y010798D01*
X008173Y010639D02*
X009808Y010639D01*
X009808Y010481D02*
X008173Y010481D01*
X008173Y010322D02*
X009808Y010322D01*
X009808Y010163D02*
X008173Y010163D01*
X008173Y010005D02*
X009808Y010005D01*
X009808Y009846D02*
X008173Y009846D01*
X008173Y009688D02*
X009808Y009688D01*
X009808Y009529D02*
X008132Y009529D01*
X007974Y009371D02*
X009808Y009371D01*
X009808Y009212D02*
X007815Y009212D01*
X007657Y009054D02*
X009808Y009054D01*
X009808Y008895D02*
X007498Y008895D01*
X007340Y008737D02*
X009808Y008737D01*
X009808Y008578D02*
X007181Y008578D01*
X007022Y008419D02*
X009808Y008419D01*
X009808Y008261D02*
X006864Y008261D01*
X006823Y008102D02*
X009808Y008102D01*
X009808Y007944D02*
X006823Y007944D01*
X006823Y007785D02*
X009808Y007785D01*
X009808Y007627D02*
X006823Y007627D01*
X006823Y007468D02*
X009808Y007468D01*
X009808Y007310D02*
X006823Y007310D01*
X006908Y007151D02*
X009808Y007151D01*
X009808Y006993D02*
X006932Y006993D01*
X006882Y006834D02*
X009808Y006834D01*
X009808Y006675D02*
X006668Y006675D01*
X006479Y006675D02*
X006354Y006675D01*
X006340Y006700D02*
X006150Y006890D01*
X005917Y007024D01*
X005658Y007094D01*
X005389Y007094D01*
X005130Y007024D01*
X004897Y006890D01*
X004707Y006700D01*
X004573Y006468D01*
X004503Y006208D01*
X004503Y005940D01*
X004573Y005680D01*
X004707Y005448D01*
X004897Y005258D01*
X005130Y005123D01*
X005389Y005054D01*
X005658Y005054D01*
X005917Y005123D01*
X006150Y005258D01*
X006340Y005448D01*
X006474Y005680D01*
X006543Y005940D01*
X006543Y006208D01*
X006474Y006468D01*
X006340Y006700D01*
X006264Y006834D02*
X006206Y006834D01*
X006215Y006993D02*
X005972Y006993D01*
X006239Y007151D02*
X004858Y007151D01*
X004882Y007095D02*
X004827Y007227D01*
X004773Y007280D01*
X004773Y008074D01*
X004773Y008174D01*
X004735Y008266D01*
X003323Y009677D01*
X003323Y011320D01*
X004369Y012366D01*
X004395Y012366D01*
X004526Y012420D01*
X004627Y012521D01*
X004682Y012653D01*
X004682Y012795D01*
X004627Y012927D01*
X004526Y013027D01*
X004395Y013082D01*
X004252Y013082D01*
X004121Y013027D01*
X004020Y012927D01*
X003965Y012795D01*
X003965Y012669D01*
X002862Y011566D01*
X002823Y011474D01*
X002823Y011374D01*
X002823Y009524D01*
X002862Y009432D01*
X002932Y009362D01*
X004273Y008020D01*
X004273Y007280D01*
X004220Y007227D01*
X004165Y007095D01*
X004165Y006953D01*
X004220Y006821D01*
X004321Y006720D01*
X004452Y006666D01*
X004595Y006666D01*
X004726Y006720D01*
X004827Y006821D01*
X004882Y006953D01*
X004882Y007095D01*
X004882Y006993D02*
X005075Y006993D01*
X004841Y006834D02*
X004832Y006834D01*
X004693Y006675D02*
X004618Y006675D01*
X004601Y006517D02*
X001238Y006517D01*
X001238Y006675D02*
X004429Y006675D01*
X004214Y006834D02*
X001238Y006834D01*
X001238Y006993D02*
X004165Y006993D01*
X004189Y007151D02*
X001238Y007151D01*
X001238Y007310D02*
X004273Y007310D01*
X004273Y007468D02*
X001238Y007468D01*
X001238Y007627D02*
X004273Y007627D01*
X004273Y007785D02*
X001238Y007785D01*
X001238Y007944D02*
X004273Y007944D01*
X004191Y008102D02*
X001238Y008102D01*
X001238Y008261D02*
X004033Y008261D01*
X003874Y008419D02*
X001238Y008419D01*
X001238Y008578D02*
X003716Y008578D01*
X003557Y008737D02*
X001238Y008737D01*
X001238Y008895D02*
X003399Y008895D01*
X003240Y009054D02*
X001238Y009054D01*
X001238Y009212D02*
X003082Y009212D01*
X002923Y009371D02*
X001238Y009371D01*
X001238Y009529D02*
X002823Y009529D01*
X002823Y009688D02*
X001238Y009688D01*
X001238Y009846D02*
X002823Y009846D01*
X002823Y010005D02*
X001238Y010005D01*
X001238Y010163D02*
X002823Y010163D01*
X002823Y010322D02*
X001238Y010322D01*
X001238Y010481D02*
X002823Y010481D01*
X002823Y010639D02*
X001238Y010639D01*
X001238Y010798D02*
X002823Y010798D01*
X002823Y010956D02*
X001238Y010956D01*
X001238Y011115D02*
X002823Y011115D01*
X002823Y011273D02*
X001238Y011273D01*
X001238Y011432D02*
X002823Y011432D01*
X002886Y011590D02*
X001238Y011590D01*
X001238Y011749D02*
X003045Y011749D01*
X003203Y011907D02*
X001238Y011907D01*
X001238Y012066D02*
X003362Y012066D01*
X003521Y012224D02*
X001238Y012224D01*
X001238Y012383D02*
X003679Y012383D01*
X003838Y012542D02*
X001238Y012542D01*
X001238Y012700D02*
X003965Y012700D01*
X003992Y012859D02*
X001238Y012859D01*
X001238Y013017D02*
X004110Y013017D01*
X004323Y012724D02*
X004323Y012674D01*
X003073Y011424D01*
X003073Y009574D01*
X004523Y008124D01*
X004523Y007024D01*
X004773Y007310D02*
X006323Y007310D01*
X006323Y007468D02*
X004773Y007468D01*
X004773Y007627D02*
X006323Y007627D01*
X006323Y007785D02*
X004773Y007785D01*
X004773Y007944D02*
X006323Y007944D01*
X006323Y008102D02*
X004773Y008102D01*
X004737Y008261D02*
X006323Y008261D01*
X006342Y008419D02*
X004581Y008419D01*
X004423Y008578D02*
X006474Y008578D01*
X006633Y008737D02*
X004264Y008737D01*
X004106Y008895D02*
X006791Y008895D01*
X006950Y009054D02*
X003947Y009054D01*
X003789Y009212D02*
X007108Y009212D01*
X007267Y009371D02*
X003630Y009371D01*
X003472Y009529D02*
X007425Y009529D01*
X007584Y009688D02*
X003323Y009688D01*
X003323Y009846D02*
X007673Y009846D01*
X007673Y010005D02*
X003323Y010005D01*
X003323Y010163D02*
X007673Y010163D01*
X007673Y010322D02*
X003323Y010322D01*
X003323Y010481D02*
X007673Y010481D01*
X007673Y010639D02*
X003323Y010639D01*
X003323Y010798D02*
X007673Y010798D01*
X007673Y010956D02*
X003323Y010956D01*
X003323Y011115D02*
X007673Y011115D01*
X007673Y011273D02*
X003323Y011273D01*
X003435Y011432D02*
X007662Y011432D01*
X007504Y011590D02*
X003593Y011590D01*
X003752Y011749D02*
X007345Y011749D01*
X007186Y011907D02*
X003910Y011907D01*
X004069Y012066D02*
X007028Y012066D01*
X006869Y012224D02*
X004228Y012224D01*
X004436Y012383D02*
X006711Y012383D01*
X006552Y012542D02*
X004635Y012542D01*
X004682Y012700D02*
X006473Y012700D01*
X006473Y012859D02*
X004655Y012859D01*
X004537Y013017D02*
X006473Y013017D01*
X006473Y013176D02*
X001238Y013176D01*
X001238Y013334D02*
X001621Y013334D01*
X001668Y013287D02*
X001918Y013184D01*
X002189Y013184D01*
X002439Y013287D01*
X002630Y013479D01*
X002733Y013729D01*
X002733Y013999D01*
X002630Y014249D01*
X002439Y014440D01*
X002189Y014544D01*
X001918Y014544D01*
X001668Y014440D01*
X001477Y014249D01*
X001373Y013999D01*
X001373Y013729D01*
X001477Y013479D01*
X001668Y013287D01*
X001471Y013493D02*
X001238Y013493D01*
X001238Y013651D02*
X001405Y013651D01*
X001373Y013810D02*
X001238Y013810D01*
X001238Y013968D02*
X001373Y013968D01*
X001426Y014127D02*
X001238Y014127D01*
X001238Y014286D02*
X001513Y014286D01*
X001677Y014444D02*
X001238Y014444D01*
X001238Y014603D02*
X005046Y014603D01*
X004936Y014444D02*
X002430Y014444D01*
X002593Y014286D02*
X004915Y014286D01*
X004967Y014127D02*
X002681Y014127D01*
X002733Y013968D02*
X005196Y013968D01*
X005351Y013968D02*
X006375Y013968D01*
X006473Y013810D02*
X002733Y013810D01*
X002701Y013651D02*
X006473Y013651D01*
X006473Y013493D02*
X002636Y013493D01*
X002485Y013334D02*
X006473Y013334D01*
X006723Y012724D02*
X006723Y013974D01*
X006323Y014374D01*
X005323Y014374D01*
X005273Y014324D01*
X006723Y012724D02*
X007923Y011524D01*
X007923Y009674D01*
X006573Y008324D01*
X006573Y007024D01*
X006445Y006517D02*
X009808Y006517D01*
X009808Y006358D02*
X006503Y006358D01*
X006543Y006200D02*
X009808Y006200D01*
X009808Y006041D02*
X006543Y006041D01*
X006528Y005883D02*
X009808Y005883D01*
X009808Y005724D02*
X006486Y005724D01*
X006408Y005566D02*
X009808Y005566D01*
X009808Y005407D02*
X006299Y005407D01*
X006134Y005249D02*
X009808Y005249D01*
X009808Y005090D02*
X005792Y005090D01*
X005254Y005090D02*
X001238Y005090D01*
X001238Y004931D02*
X009808Y004931D01*
X009808Y004773D02*
X001238Y004773D01*
X001238Y004614D02*
X009808Y004614D01*
X009808Y004456D02*
X001238Y004456D01*
X001238Y004297D02*
X009808Y004297D01*
X009808Y004139D02*
X001238Y004139D01*
X001238Y003980D02*
X009808Y003980D01*
X009808Y003822D02*
X001238Y003822D01*
X001238Y003663D02*
X009808Y003663D01*
X009808Y003505D02*
X001238Y003505D01*
X001238Y003346D02*
X001879Y003346D01*
X001946Y003374D02*
X001674Y003261D01*
X001466Y003053D01*
X001353Y002781D01*
X001353Y002487D01*
X001466Y002215D01*
X001674Y002007D01*
X001946Y001894D01*
X002241Y001894D01*
X002513Y002007D01*
X002721Y002215D01*
X002833Y002487D01*
X002833Y002781D01*
X002721Y003053D01*
X002513Y003261D01*
X002241Y003374D01*
X001946Y003374D01*
X002308Y003346D02*
X008739Y003346D01*
X008806Y003374D02*
X008534Y003261D01*
X008326Y003053D01*
X008213Y002781D01*
X008213Y002487D01*
X008326Y002215D01*
X008534Y002007D01*
X008806Y001894D01*
X009101Y001894D01*
X009373Y002007D01*
X009581Y002215D01*
X009693Y002487D01*
X009693Y002781D01*
X009581Y003053D01*
X009373Y003261D01*
X009101Y003374D01*
X008806Y003374D01*
X009168Y003346D02*
X009808Y003346D01*
X009808Y003188D02*
X009446Y003188D01*
X009591Y003029D02*
X009808Y003029D01*
X009808Y002870D02*
X009656Y002870D01*
X009693Y002712D02*
X009808Y002712D01*
X009808Y002553D02*
X009693Y002553D01*
X009655Y002395D02*
X009808Y002395D01*
X009808Y002236D02*
X009590Y002236D01*
X009444Y002078D02*
X009808Y002078D01*
X009808Y001919D02*
X009162Y001919D01*
X008745Y001919D02*
X002302Y001919D01*
X002584Y002078D02*
X008463Y002078D01*
X008317Y002236D02*
X002730Y002236D01*
X002795Y002395D02*
X008251Y002395D01*
X008213Y002553D02*
X002833Y002553D01*
X002833Y002712D02*
X008213Y002712D01*
X008250Y002870D02*
X002796Y002870D01*
X002731Y003029D02*
X008316Y003029D01*
X008461Y003188D02*
X002586Y003188D01*
X001885Y001919D02*
X001238Y001919D01*
X001238Y001761D02*
X009808Y001761D01*
X009808Y001602D02*
X001238Y001602D01*
X001238Y001444D02*
X009808Y001444D01*
X009808Y001285D02*
X001238Y001285D01*
X001238Y001126D02*
X009808Y001126D01*
X009808Y000968D02*
X001238Y000968D01*
X001238Y000809D02*
X009808Y000809D01*
X009808Y000651D02*
X002093Y000651D01*
X002093Y000492D02*
X009808Y000492D01*
X009808Y000334D02*
X002093Y000334D01*
X001576Y000784D02*
X001576Y000784D01*
X001603Y002078D02*
X001238Y002078D01*
X001238Y002236D02*
X001457Y002236D01*
X001391Y002395D02*
X001238Y002395D01*
X001238Y002553D02*
X001353Y002553D01*
X001353Y002712D02*
X001238Y002712D01*
X001238Y002870D02*
X001390Y002870D01*
X001456Y003029D02*
X001238Y003029D01*
X001238Y003188D02*
X001601Y003188D01*
X001238Y005249D02*
X004913Y005249D01*
X004748Y005407D02*
X001238Y005407D01*
X001238Y005566D02*
X004639Y005566D01*
X004561Y005724D02*
X001238Y005724D01*
X001238Y005883D02*
X004519Y005883D01*
X004503Y006041D02*
X001238Y006041D01*
X001238Y006200D02*
X004503Y006200D01*
X004544Y006358D02*
X001238Y006358D01*
X001238Y016981D02*
X003260Y016981D01*
X003117Y017139D02*
X001238Y017139D01*
X001238Y017298D02*
X003057Y017298D01*
X003057Y017456D02*
X001238Y017456D01*
X001238Y017615D02*
X003057Y017615D01*
X003057Y017774D02*
X001238Y017774D01*
X001238Y017932D02*
X003057Y017932D01*
X003068Y018091D02*
X001238Y018091D01*
X001238Y018249D02*
X003142Y018249D01*
X003233Y018408D02*
X001238Y018408D01*
X001238Y018566D02*
X003233Y018566D01*
X003233Y018725D02*
X001238Y018725D01*
X001238Y018883D02*
X003233Y018883D01*
X003233Y019042D02*
X001238Y019042D01*
X001238Y019200D02*
X003233Y019200D01*
X003233Y019359D02*
X001238Y019359D01*
X001238Y019517D02*
X003233Y019517D01*
X003905Y018249D02*
X004142Y018249D01*
X004068Y018091D02*
X003979Y018091D01*
X003990Y017932D02*
X004057Y017932D01*
X004057Y017774D02*
X003990Y017774D01*
X003990Y017615D02*
X004057Y017615D01*
X004057Y017456D02*
X003990Y017456D01*
X003990Y017298D02*
X004057Y017298D01*
X004117Y017139D02*
X003930Y017139D01*
X003787Y016981D02*
X004260Y016981D01*
X004787Y016981D02*
X005260Y016981D01*
X005117Y017139D02*
X004930Y017139D01*
X004990Y017298D02*
X005057Y017298D01*
X005057Y017456D02*
X004990Y017456D01*
X004990Y017615D02*
X005057Y017615D01*
X005057Y017774D02*
X004990Y017774D01*
X004990Y017932D02*
X005057Y017932D01*
X005068Y018091D02*
X004979Y018091D01*
X004905Y018249D02*
X005142Y018249D01*
X005905Y018249D02*
X006142Y018249D01*
X006068Y018091D02*
X005979Y018091D01*
X005990Y017932D02*
X006057Y017932D01*
X006057Y017774D02*
X005990Y017774D01*
X005990Y017615D02*
X006057Y017615D01*
X006057Y017456D02*
X005990Y017456D01*
X005990Y017298D02*
X006057Y017298D01*
X006117Y017139D02*
X005930Y017139D01*
X005787Y016981D02*
X006260Y016981D01*
X006787Y016981D02*
X007258Y016981D01*
X007109Y017139D02*
X006930Y017139D01*
X006990Y017298D02*
X007053Y017298D01*
X007047Y017456D02*
X006990Y017456D01*
X006990Y017615D02*
X007047Y017615D01*
X007047Y017774D02*
X006990Y017774D01*
X006990Y017932D02*
X007047Y017932D01*
X007061Y018091D02*
X006979Y018091D01*
X006905Y018249D02*
X007136Y018249D01*
D13*
X008023Y015324D03*
X009123Y016324D03*
X007323Y013024D03*
X005273Y014324D03*
X004323Y012724D03*
X003773Y013024D03*
X001773Y017074D03*
X004523Y007024D03*
X004773Y004874D03*
X006223Y004874D03*
X006573Y007024D03*
X008823Y006924D03*
D14*
X009223Y016324D02*
X009723Y016924D01*
X009723Y019524D01*
X003523Y019524D01*
X003523Y017674D01*
M02*
