G75*
G70*
%OFA0B0*%
%FSLAX24Y24*%
%IPPOS*%
%LPD*%
%AMOC8*
5,1,8,0,0,1.08239X$1,22.5*
%
%ADD10R,0.0197X0.0866*%
%ADD11R,0.0400X0.0200*%
%ADD12R,0.0433X0.0394*%
%ADD13R,0.0394X0.0433*%
%ADD14R,0.0315X0.0315*%
%ADD15C,0.0157*%
D10*
X004773Y013332D03*
X005270Y013332D03*
X005770Y013332D03*
X006270Y013332D03*
X006273Y015816D03*
X005773Y015816D03*
X005273Y015816D03*
X004773Y015816D03*
D11*
G36*
X002865Y005063D02*
X002493Y005207D01*
X002565Y005393D01*
X002937Y005249D01*
X002865Y005063D01*
G37*
G36*
X003120Y005725D02*
X002748Y005869D01*
X002820Y006055D01*
X003192Y005911D01*
X003120Y005725D01*
G37*
G36*
X004187Y004553D02*
X003815Y004697D01*
X003887Y004883D01*
X004259Y004739D01*
X004187Y004553D01*
G37*
G36*
X004442Y005214D02*
X004070Y005358D01*
X004142Y005544D01*
X004514Y005400D01*
X004442Y005214D01*
G37*
G36*
X006977Y005358D02*
X006605Y005214D01*
X006533Y005400D01*
X006905Y005544D01*
X006977Y005358D01*
G37*
G36*
X007232Y004697D02*
X006860Y004553D01*
X006788Y004739D01*
X007160Y004883D01*
X007232Y004697D01*
G37*
G36*
X008299Y005869D02*
X007927Y005725D01*
X007855Y005911D01*
X008227Y006055D01*
X008299Y005869D01*
G37*
G36*
X008554Y005207D02*
X008182Y005063D01*
X008110Y005249D01*
X008482Y005393D01*
X008554Y005207D01*
G37*
D12*
X007173Y006889D03*
X007173Y007559D03*
X003873Y007559D03*
X003873Y006889D03*
X002873Y006889D03*
X002873Y007559D03*
X003773Y014939D03*
X003773Y015609D03*
X007273Y015609D03*
X007273Y014939D03*
D13*
X007273Y014209D03*
X007273Y013539D03*
X008589Y017674D03*
X009258Y017674D03*
X008173Y007559D03*
X008173Y006889D03*
X003773Y013539D03*
X003773Y014209D03*
X002458Y017674D03*
X001789Y017674D03*
D14*
X001828Y018824D03*
X002419Y018824D03*
X008628Y018824D03*
X009219Y018824D03*
D15*
X009376Y015830D02*
X009376Y015830D01*
X009198Y015830D01*
X009198Y015830D01*
X009376Y015830D01*
X009376Y015574D02*
X009376Y015574D01*
X009198Y015574D01*
X009198Y015574D01*
X009376Y015574D01*
X009376Y015318D02*
X009376Y015318D01*
X009198Y015318D01*
X009198Y015318D01*
X009376Y015318D01*
X008549Y015318D02*
X008549Y015318D01*
X008371Y015318D01*
X008371Y015318D01*
X008549Y015318D01*
X008549Y015574D02*
X008549Y015574D01*
X008371Y015574D01*
X008371Y015574D01*
X008549Y015574D01*
X008549Y015830D02*
X008549Y015830D01*
X008371Y015830D01*
X008371Y015830D01*
X008549Y015830D01*
M02*
