G75*
G70*
%OFA0B0*%
%FSLAX24Y24*%
%IPPOS*%
%LPD*%
%AMOC8*
5,1,8,0,0,1.08239X$1,22.5*
%
%ADD10C,0.1060*%
%ADD11C,0.1180*%
%ADD12C,0.1740*%
%ADD13R,0.0257X0.0926*%
%ADD14R,0.0460X0.0260*%
%ADD15R,0.0493X0.0454*%
%ADD16R,0.0454X0.0493*%
%ADD17C,0.0560*%
%ADD18C,0.0654*%
%ADD19R,0.0375X0.0375*%
%ADD20C,0.0217*%
%ADD21C,0.0847*%
%ADD22C,0.1181*%
%ADD23C,0.0436*%
D10*
X002053Y013864D03*
X008993Y013864D03*
D11*
X002093Y002634D03*
X008953Y002634D03*
D12*
X005523Y006074D03*
D13*
X005770Y013332D03*
X005270Y013332D03*
X004773Y013332D03*
X004773Y015816D03*
X005273Y015816D03*
X005773Y015816D03*
X006273Y015816D03*
X006270Y013332D03*
D14*
G36*
X008338Y005852D02*
X007910Y005686D01*
X007816Y005928D01*
X008244Y006094D01*
X008338Y005852D01*
G37*
G36*
X008593Y005190D02*
X008165Y005024D01*
X008071Y005266D01*
X008499Y005432D01*
X008593Y005190D01*
G37*
G36*
X007271Y004680D02*
X006843Y004514D01*
X006749Y004756D01*
X007177Y004922D01*
X007271Y004680D01*
G37*
G36*
X007016Y005341D02*
X006588Y005175D01*
X006494Y005417D01*
X006922Y005583D01*
X007016Y005341D01*
G37*
G36*
X004459Y005175D02*
X004031Y005341D01*
X004125Y005583D01*
X004553Y005417D01*
X004459Y005175D01*
G37*
G36*
X004204Y004514D02*
X003776Y004680D01*
X003870Y004922D01*
X004298Y004756D01*
X004204Y004514D01*
G37*
G36*
X003137Y005686D02*
X002709Y005852D01*
X002803Y006094D01*
X003231Y005928D01*
X003137Y005686D01*
G37*
G36*
X002882Y005024D02*
X002454Y005190D01*
X002548Y005432D01*
X002976Y005266D01*
X002882Y005024D01*
G37*
D15*
X002873Y006889D03*
X002873Y007559D03*
X003873Y007559D03*
X003873Y006889D03*
X007173Y006889D03*
X007173Y007559D03*
X007273Y014939D03*
X007273Y015609D03*
X003773Y015609D03*
X003773Y014939D03*
D16*
X003773Y014209D03*
X003773Y013539D03*
X002458Y017674D03*
X001789Y017674D03*
X007273Y014209D03*
X007273Y013539D03*
X008589Y017674D03*
X009258Y017674D03*
X008173Y007559D03*
X008173Y006889D03*
D17*
X005523Y007324D03*
X008473Y016664D03*
D18*
X007523Y017377D02*
X007523Y017971D01*
X006523Y017971D02*
X006523Y017377D01*
X005523Y017377D02*
X005523Y017971D01*
X004523Y017971D02*
X004523Y017377D01*
X003523Y017377D02*
X003523Y017971D01*
D19*
X002419Y018824D03*
X001828Y018824D03*
X008628Y018824D03*
X009219Y018824D03*
D20*
X009376Y015830D02*
X009376Y015830D01*
X009198Y015830D01*
X009198Y015830D01*
X009376Y015830D01*
X009376Y015574D02*
X009376Y015574D01*
X009198Y015574D01*
X009198Y015574D01*
X009376Y015574D01*
X009376Y015318D02*
X009376Y015318D01*
X009198Y015318D01*
X009198Y015318D01*
X009376Y015318D01*
X008549Y015318D02*
X008549Y015318D01*
X008371Y015318D01*
X008371Y015318D01*
X008549Y015318D01*
X008549Y015574D02*
X008549Y015574D01*
X008371Y015574D01*
X008371Y015574D01*
X008549Y015574D01*
X008549Y015830D02*
X008549Y015830D01*
X008371Y015830D01*
X008371Y015830D01*
X008549Y015830D01*
D21*
X002053Y015824D03*
X008953Y000924D03*
D22*
X008953Y000924D03*
X002053Y015824D03*
D23*
X001773Y017074D03*
X003773Y013024D03*
X004323Y012724D03*
X005273Y014324D03*
X007323Y013024D03*
X008023Y015324D03*
X009123Y016324D03*
X006573Y007024D03*
X006223Y004874D03*
X004773Y004874D03*
X004523Y007024D03*
X008823Y006924D03*
M02*
