G75*
G70*
%OFA0B0*%
%FSLAX24Y24*%
%IPPOS*%
%LPD*%
%AMOC8*
5,1,8,0,0,1.08239X$1,22.5*
%
%ADD10C,0.0050*%
%ADD11C,0.0060*%
%ADD12C,0.0080*%
%ADD13C,0.0020*%
%ADD14C,0.0100*%
%ADD15R,0.0118X0.0059*%
%ADD16R,0.0118X0.0118*%
%ADD17C,0.0197*%
D10*
X002348Y000499D02*
X002348Y000849D01*
X002582Y000499D01*
X002582Y000849D01*
X002717Y000674D02*
X002717Y000557D01*
X002775Y000499D01*
X002892Y000499D01*
X002950Y000557D01*
X002950Y000674D01*
X002892Y000732D01*
X002775Y000732D01*
X002717Y000674D01*
X003085Y000674D02*
X003143Y000732D01*
X003260Y000732D01*
X003319Y000674D01*
X003319Y000616D01*
X003085Y000616D01*
X003085Y000674D02*
X003085Y000557D01*
X003143Y000499D01*
X003260Y000499D01*
X003453Y000732D02*
X003570Y000732D01*
X003512Y000791D02*
X003512Y000557D01*
X003570Y000499D01*
X003699Y000499D02*
X003816Y000499D01*
X003757Y000499D02*
X003757Y000732D01*
X003699Y000732D01*
X003757Y000849D02*
X003757Y000908D01*
X003944Y000674D02*
X003944Y000557D01*
X004003Y000499D01*
X004178Y000499D01*
X004178Y000732D02*
X004003Y000732D01*
X003944Y000674D01*
X004315Y001049D02*
X004198Y001166D01*
X004198Y001282D01*
X004315Y001399D01*
X004444Y001224D02*
X004444Y001107D01*
X004502Y001049D01*
X004677Y001049D01*
X004812Y001049D02*
X004929Y001166D01*
X004929Y001282D01*
X004812Y001399D01*
X004677Y001282D02*
X004502Y001282D01*
X004444Y001224D01*
X004681Y000849D02*
X004856Y000849D01*
X004915Y000791D01*
X004915Y000557D01*
X004856Y000499D01*
X004681Y000499D01*
X004681Y000849D01*
X005049Y000674D02*
X005108Y000732D01*
X005224Y000732D01*
X005283Y000674D01*
X005283Y000616D01*
X005049Y000616D01*
X005049Y000674D02*
X005049Y000557D01*
X005108Y000499D01*
X005224Y000499D01*
X005418Y000499D02*
X005593Y000499D01*
X005651Y000557D01*
X005593Y000616D01*
X005476Y000616D01*
X005418Y000674D01*
X005476Y000732D01*
X005651Y000732D01*
X005786Y000732D02*
X005844Y000732D01*
X005844Y000499D01*
X005786Y000499D02*
X005903Y000499D01*
X006031Y000557D02*
X006090Y000499D01*
X006265Y000499D01*
X006265Y000441D02*
X006265Y000732D01*
X006090Y000732D01*
X006031Y000674D01*
X006031Y000557D01*
X006148Y000382D02*
X006207Y000382D01*
X006265Y000441D01*
X006400Y000499D02*
X006400Y000732D01*
X006575Y000732D01*
X006633Y000674D01*
X006633Y000499D01*
X006768Y000382D02*
X006885Y000499D01*
X006826Y000499D01*
X006826Y000557D01*
X006885Y000557D01*
X006885Y000499D01*
X007382Y000499D02*
X007499Y000499D01*
X007440Y000499D02*
X007440Y000849D01*
X007382Y000849D02*
X007499Y000849D01*
X007627Y000732D02*
X007803Y000732D01*
X007861Y000674D01*
X007861Y000499D01*
X007996Y000557D02*
X008054Y000499D01*
X008229Y000499D01*
X008364Y000499D02*
X008364Y000557D01*
X008422Y000557D01*
X008422Y000499D01*
X008364Y000499D01*
X008229Y000732D02*
X008054Y000732D01*
X007996Y000674D01*
X007996Y000557D01*
X007627Y000499D02*
X007627Y000732D01*
X007699Y001699D02*
X007641Y001757D01*
X007641Y001874D01*
X007699Y001932D01*
X007816Y001932D01*
X007874Y001874D01*
X007874Y001757D01*
X007816Y001699D01*
X007699Y001699D01*
X007506Y001699D02*
X007331Y001699D01*
X007273Y001757D01*
X007273Y001874D01*
X007331Y001932D01*
X007506Y001932D01*
X007147Y001757D02*
X007147Y001699D01*
X007088Y001699D01*
X007088Y001757D01*
X007147Y001757D01*
X006954Y001757D02*
X006895Y001816D01*
X006778Y001816D01*
X006720Y001874D01*
X006778Y001932D01*
X006954Y001932D01*
X006954Y001757D02*
X006895Y001699D01*
X006720Y001699D01*
X006585Y001699D02*
X006410Y001699D01*
X006352Y001757D01*
X006352Y001874D01*
X006410Y001932D01*
X006585Y001932D01*
X006575Y002349D02*
X006517Y002407D01*
X006517Y002524D01*
X006575Y002582D01*
X006692Y002582D01*
X006750Y002524D01*
X006750Y002466D01*
X006517Y002466D01*
X006575Y002349D02*
X006692Y002349D01*
X006885Y002582D02*
X007002Y002349D01*
X007119Y002582D01*
X007622Y002582D02*
X007738Y002699D01*
X007855Y002582D01*
X007855Y002349D01*
X007855Y002524D02*
X007622Y002524D01*
X007622Y002582D02*
X007622Y002349D01*
X008009Y001932D02*
X008009Y001699D01*
X008126Y001699D02*
X008126Y001874D01*
X008184Y001932D01*
X008243Y001874D01*
X008243Y001699D01*
X008126Y001874D02*
X008067Y001932D01*
X008009Y001932D01*
X006765Y001341D02*
X006765Y001107D01*
X006706Y001049D01*
X006589Y001049D01*
X006531Y001107D01*
X006765Y001341D01*
X006706Y001399D01*
X006589Y001399D01*
X006531Y001341D01*
X006531Y001107D01*
X006396Y001049D02*
X006163Y001049D01*
X006279Y001049D02*
X006279Y001399D01*
X006163Y001282D01*
X006028Y001341D02*
X005794Y001107D01*
X005853Y001049D01*
X005970Y001049D01*
X006028Y001107D01*
X006028Y001341D01*
X005970Y001399D01*
X005853Y001399D01*
X005794Y001341D01*
X005794Y001107D01*
X005660Y001049D02*
X005426Y001049D01*
X005660Y001282D01*
X005660Y001341D01*
X005601Y001399D01*
X005484Y001399D01*
X005426Y001341D01*
X005551Y001699D02*
X005492Y001757D01*
X005492Y001874D01*
X005551Y001932D01*
X005668Y001932D01*
X005726Y001874D01*
X005726Y001757D01*
X005668Y001699D01*
X005551Y001699D01*
X005358Y001757D02*
X005358Y001874D01*
X005299Y001932D01*
X005124Y001932D01*
X005124Y002049D02*
X005124Y001699D01*
X005299Y001699D01*
X005358Y001757D01*
X004989Y001699D02*
X004989Y001932D01*
X004989Y001699D02*
X004814Y001699D01*
X004756Y001757D01*
X004756Y001932D01*
X004621Y001874D02*
X004621Y001699D01*
X004621Y001874D02*
X004563Y001932D01*
X004388Y001932D01*
X004388Y001699D01*
X004262Y001699D02*
X004203Y001699D01*
X004203Y001757D01*
X004262Y001757D01*
X004262Y001699D01*
X004069Y001757D02*
X004069Y001932D01*
X004069Y001757D02*
X004010Y001699D01*
X003952Y001757D01*
X003893Y001699D01*
X003835Y001757D01*
X003835Y001932D01*
X003700Y001932D02*
X003700Y001757D01*
X003642Y001699D01*
X003584Y001757D01*
X003525Y001699D01*
X003467Y001757D01*
X003467Y001932D01*
X003332Y001932D02*
X003332Y001757D01*
X003274Y001699D01*
X003215Y001757D01*
X003157Y001699D01*
X003098Y001757D01*
X003098Y001932D01*
X003717Y004546D02*
X004185Y005758D01*
X003304Y006098D01*
X002907Y005070D01*
X003056Y004801D01*
X003717Y004546D01*
X003537Y004953D02*
X003500Y004968D01*
X003486Y004931D01*
X003500Y004968D02*
X003514Y005004D01*
X003500Y004968D02*
X003464Y004982D01*
X003713Y005519D02*
X003727Y005555D01*
X003764Y005541D01*
X003727Y005555D02*
X003690Y005569D01*
X003727Y005555D02*
X003741Y005592D01*
X003848Y006019D02*
X004150Y006153D01*
X004171Y006208D01*
X004137Y006283D01*
X004028Y006325D01*
X003953Y006292D01*
X003848Y006395D02*
X003743Y006122D01*
X003668Y006089D01*
X003559Y006131D01*
X003525Y006206D01*
X003630Y006479D01*
X003848Y006019D02*
X004066Y005935D01*
X004025Y007929D02*
X004142Y007929D01*
X004200Y007987D01*
X004200Y008046D01*
X004142Y008104D01*
X003967Y008104D01*
X003967Y007987D01*
X004025Y007929D01*
X003967Y008104D02*
X004084Y008221D01*
X004200Y008279D01*
X003832Y008221D02*
X003832Y008104D01*
X003774Y008046D01*
X003598Y008046D01*
X003598Y007929D02*
X003598Y008279D01*
X003774Y008279D01*
X003832Y008221D01*
X003715Y008046D02*
X003832Y007929D01*
X003250Y007949D02*
X003017Y007949D01*
X003134Y007949D02*
X003134Y008299D01*
X003017Y008182D01*
X002882Y008124D02*
X002824Y008066D01*
X002648Y008066D01*
X002648Y007949D02*
X002648Y008299D01*
X002824Y008299D01*
X002882Y008241D01*
X002882Y008124D01*
X002765Y008066D02*
X002882Y007949D01*
X003557Y012349D02*
X003498Y012407D01*
X003498Y012641D01*
X003557Y012699D01*
X003674Y012699D01*
X003732Y012641D01*
X003867Y012582D02*
X003984Y012699D01*
X003984Y012349D01*
X004100Y012349D02*
X003867Y012349D01*
X003732Y012407D02*
X003674Y012349D01*
X003557Y012349D01*
X004298Y013299D02*
X004532Y013299D01*
X004415Y013299D02*
X004415Y013649D01*
X004298Y013532D01*
X004092Y015949D02*
X004092Y016299D01*
X003917Y016124D01*
X004150Y016124D01*
X003782Y016124D02*
X003724Y016066D01*
X003548Y016066D01*
X003548Y015949D02*
X003548Y016299D01*
X003724Y016299D01*
X003782Y016241D01*
X003782Y016124D01*
X003665Y016066D02*
X003782Y015949D01*
X003784Y016579D02*
X003784Y016929D01*
X003667Y016812D01*
X003532Y016929D02*
X003415Y016929D01*
X003474Y016929D02*
X003474Y016637D01*
X003415Y016579D01*
X003357Y016579D01*
X003298Y016637D01*
X003667Y016579D02*
X003900Y016579D01*
X002345Y018089D02*
X002229Y018089D01*
X002170Y018147D01*
X002035Y018089D02*
X001919Y018206D01*
X001977Y018206D02*
X001802Y018206D01*
X001802Y018089D02*
X001802Y018439D01*
X001977Y018439D01*
X002035Y018381D01*
X002035Y018264D01*
X001977Y018206D01*
X002170Y018381D02*
X002229Y018439D01*
X002345Y018439D01*
X002404Y018381D01*
X002404Y018322D01*
X002345Y018264D01*
X002404Y018206D01*
X002404Y018147D01*
X002345Y018089D01*
X002345Y018264D02*
X002287Y018264D01*
X002404Y019099D02*
X002170Y019099D01*
X002404Y019332D01*
X002404Y019391D01*
X002345Y019449D01*
X002229Y019449D01*
X002170Y019391D01*
X002035Y019391D02*
X002035Y019157D01*
X001977Y019099D01*
X001802Y019099D01*
X001802Y019449D01*
X001977Y019449D01*
X002035Y019391D01*
X005628Y014824D02*
X005628Y014532D01*
X005687Y014474D01*
X005804Y014474D01*
X005862Y014532D01*
X005862Y014824D01*
X005997Y014766D02*
X006055Y014824D01*
X006172Y014824D01*
X006230Y014766D01*
X006230Y014707D01*
X006172Y014649D01*
X006230Y014591D01*
X006230Y014532D01*
X006172Y014474D01*
X006055Y014474D01*
X005997Y014532D01*
X006114Y014649D02*
X006172Y014649D01*
X007048Y015949D02*
X007048Y016299D01*
X007224Y016299D01*
X007282Y016241D01*
X007282Y016124D01*
X007224Y016066D01*
X007048Y016066D01*
X007165Y016066D02*
X007282Y015949D01*
X007417Y015949D02*
X007417Y016007D01*
X007650Y016241D01*
X007650Y016299D01*
X007417Y016299D01*
X008592Y018089D02*
X008592Y018439D01*
X008767Y018439D01*
X008825Y018381D01*
X008825Y018264D01*
X008767Y018206D01*
X008592Y018206D01*
X008709Y018206D02*
X008825Y018089D01*
X008960Y018089D02*
X009194Y018322D01*
X009194Y018381D01*
X009135Y018439D01*
X009019Y018439D01*
X008960Y018381D01*
X008960Y018089D02*
X009194Y018089D01*
X009194Y019099D02*
X008960Y019099D01*
X009077Y019099D02*
X009077Y019449D01*
X008960Y019332D01*
X008825Y019391D02*
X008825Y019157D01*
X008767Y019099D01*
X008592Y019099D01*
X008592Y019449D01*
X008767Y019449D01*
X008825Y019391D01*
X008898Y017007D02*
X008898Y016715D01*
X008957Y016657D01*
X009074Y016657D01*
X009132Y016715D01*
X009132Y017007D01*
X009267Y016832D02*
X009500Y016832D01*
X009442Y016657D02*
X009442Y017007D01*
X009267Y016832D01*
X008952Y016007D02*
X008795Y016007D01*
X008795Y015141D01*
X008952Y015141D01*
X008952Y016007D01*
X007542Y012699D02*
X007425Y012699D01*
X007367Y012641D01*
X007232Y012641D02*
X007174Y012699D01*
X007057Y012699D01*
X006998Y012641D01*
X006998Y012407D01*
X007057Y012349D01*
X007174Y012349D01*
X007232Y012407D01*
X007367Y012407D02*
X007425Y012349D01*
X007542Y012349D01*
X007600Y012407D01*
X007600Y012466D01*
X007542Y012524D01*
X007484Y012524D01*
X007542Y012524D02*
X007600Y012582D01*
X007600Y012641D01*
X007542Y012699D01*
X003523Y010544D02*
X003525Y010642D01*
X003533Y010740D01*
X003545Y010837D01*
X003561Y010934D01*
X003583Y011030D01*
X003609Y011125D01*
X003640Y011218D01*
X003675Y011309D01*
X003715Y011399D01*
X003759Y011487D01*
X003808Y011572D01*
X003860Y011655D01*
X003917Y011735D01*
X003977Y011813D01*
X004041Y011887D01*
X004109Y011958D01*
X004180Y012026D01*
X004254Y012090D01*
X004332Y012150D01*
X004412Y012207D01*
X004495Y012259D01*
X004580Y012308D01*
X004668Y012352D01*
X004758Y012392D01*
X004849Y012427D01*
X004942Y012458D01*
X005037Y012484D01*
X005133Y012506D01*
X005230Y012522D01*
X005327Y012534D01*
X005425Y012542D01*
X005523Y012544D01*
X005621Y012542D01*
X005719Y012534D01*
X005816Y012522D01*
X005913Y012506D01*
X006009Y012484D01*
X006104Y012458D01*
X006197Y012427D01*
X006288Y012392D01*
X006378Y012352D01*
X006466Y012308D01*
X006551Y012259D01*
X006634Y012207D01*
X006714Y012150D01*
X006792Y012090D01*
X006866Y012026D01*
X006937Y011958D01*
X007005Y011887D01*
X007069Y011813D01*
X007129Y011735D01*
X007186Y011655D01*
X007238Y011572D01*
X007287Y011487D01*
X007331Y011399D01*
X007371Y011309D01*
X007406Y011218D01*
X007437Y011125D01*
X007463Y011030D01*
X007485Y010934D01*
X007501Y010837D01*
X007513Y010740D01*
X007521Y010642D01*
X007523Y010544D01*
X007521Y010446D01*
X007513Y010348D01*
X007501Y010251D01*
X007485Y010154D01*
X007463Y010058D01*
X007437Y009963D01*
X007406Y009870D01*
X007371Y009779D01*
X007331Y009689D01*
X007287Y009601D01*
X007238Y009516D01*
X007186Y009433D01*
X007129Y009353D01*
X007069Y009275D01*
X007005Y009201D01*
X006937Y009130D01*
X006866Y009062D01*
X006792Y008998D01*
X006714Y008938D01*
X006634Y008881D01*
X006551Y008829D01*
X006466Y008780D01*
X006378Y008736D01*
X006288Y008696D01*
X006197Y008661D01*
X006104Y008630D01*
X006009Y008604D01*
X005913Y008582D01*
X005816Y008566D01*
X005719Y008554D01*
X005621Y008546D01*
X005523Y008544D01*
X005425Y008546D01*
X005327Y008554D01*
X005230Y008566D01*
X005133Y008582D01*
X005037Y008604D01*
X004942Y008630D01*
X004849Y008661D01*
X004758Y008696D01*
X004668Y008736D01*
X004580Y008780D01*
X004495Y008829D01*
X004412Y008881D01*
X004332Y008938D01*
X004254Y008998D01*
X004180Y009062D01*
X004109Y009130D01*
X004041Y009201D01*
X003977Y009275D01*
X003917Y009353D01*
X003860Y009433D01*
X003808Y009516D01*
X003759Y009601D01*
X003715Y009689D01*
X003675Y009779D01*
X003640Y009870D01*
X003609Y009963D01*
X003583Y010058D01*
X003561Y010154D01*
X003545Y010251D01*
X003533Y010348D01*
X003525Y010446D01*
X003523Y010544D01*
X006858Y006251D02*
X006963Y005978D01*
X007038Y005945D01*
X007147Y005987D01*
X007181Y006062D01*
X007075Y006335D01*
X007243Y006274D02*
X007310Y006425D01*
X007436Y006098D01*
X007327Y006056D02*
X007545Y006140D01*
X007743Y006098D02*
X006862Y005758D01*
X007259Y004730D01*
X007550Y004631D01*
X008211Y004886D01*
X007743Y006098D01*
X007526Y005677D02*
X007540Y005640D01*
X007504Y005626D01*
X007540Y005640D02*
X007577Y005654D01*
X007540Y005640D02*
X007554Y005604D01*
X007753Y005089D02*
X007767Y005053D01*
X007781Y005016D01*
X007767Y005053D02*
X007804Y005067D01*
X007767Y005053D02*
X007730Y005038D01*
X006324Y002699D02*
X006382Y002641D01*
X006382Y002524D01*
X006324Y002466D01*
X006148Y002466D01*
X006148Y002349D02*
X006148Y002699D01*
X006324Y002699D01*
X006265Y002466D02*
X006382Y002349D01*
X006165Y002108D02*
X006165Y002049D01*
X006165Y001932D02*
X006165Y001699D01*
X006223Y001699D02*
X006106Y001699D01*
X005977Y001699D02*
X005919Y001757D01*
X005919Y001991D01*
X005861Y001932D02*
X005977Y001932D01*
X006106Y001932D02*
X006165Y001932D01*
X005844Y000908D02*
X005844Y000849D01*
X006898Y007929D02*
X006898Y008279D01*
X007074Y008279D01*
X007132Y008221D01*
X007132Y008104D01*
X007074Y008046D01*
X006898Y008046D01*
X007015Y008046D02*
X007132Y007929D01*
X007267Y007987D02*
X007325Y007929D01*
X007442Y007929D01*
X007500Y007987D01*
X007500Y008104D01*
X007442Y008162D01*
X007384Y008162D01*
X007267Y008104D01*
X007267Y008279D01*
X007500Y008279D01*
X007898Y008231D02*
X007898Y007997D01*
X007957Y007939D01*
X008074Y007939D01*
X008132Y007997D01*
X008267Y007939D02*
X008500Y008172D01*
X008500Y008231D01*
X008442Y008289D01*
X008325Y008289D01*
X008267Y008231D01*
X008132Y008231D02*
X008074Y008289D01*
X007957Y008289D01*
X007898Y008231D01*
X008267Y007939D02*
X008500Y007939D01*
D11*
X005663Y002744D02*
X005516Y002744D01*
X005443Y002671D01*
X005663Y002744D02*
X005737Y002671D01*
X005737Y002598D01*
X005443Y002304D01*
X005737Y002304D01*
X005276Y002304D02*
X004983Y002304D01*
X005129Y002304D02*
X005129Y002744D01*
X004983Y002598D01*
X004816Y002524D02*
X004522Y002524D01*
X004355Y002304D02*
X004355Y002744D01*
X004209Y002451D02*
X004355Y002304D01*
X004209Y002451D02*
X004062Y002304D01*
X004062Y002744D01*
X003895Y002744D02*
X003895Y002304D01*
X003748Y002451D01*
X003602Y002304D01*
X003602Y002744D01*
X004602Y013590D02*
X004653Y013590D01*
X004598Y013590D02*
X004581Y013591D01*
X004564Y013596D01*
X004549Y013603D01*
X004535Y013613D01*
X004523Y013625D01*
X004513Y013639D01*
X004506Y013654D01*
X004501Y013671D01*
X004500Y013688D01*
X004500Y013692D02*
X004500Y015460D01*
X004501Y015477D01*
X004506Y015494D01*
X004513Y015509D01*
X004523Y015523D01*
X004535Y015535D01*
X004549Y015545D01*
X004564Y015552D01*
X004581Y015557D01*
X004598Y015558D01*
X004602Y015558D02*
X004653Y015558D01*
X004897Y015558D02*
X005149Y015558D01*
X005397Y015558D02*
X005649Y015558D01*
X005897Y015558D02*
X006149Y015558D01*
X006394Y015558D02*
X006453Y015558D01*
X006449Y015558D02*
X006466Y015557D01*
X006483Y015552D01*
X006498Y015545D01*
X006512Y015535D01*
X006524Y015523D01*
X006534Y015509D01*
X006541Y015494D01*
X006546Y015477D01*
X006547Y015460D01*
X006547Y013688D01*
X006546Y013671D01*
X006541Y013654D01*
X006534Y013639D01*
X006524Y013625D01*
X006512Y013613D01*
X006498Y013603D01*
X006483Y013596D01*
X006466Y013591D01*
X006449Y013590D01*
X006441Y013590D02*
X006390Y013590D01*
X006149Y013590D02*
X005894Y013590D01*
X005649Y013590D02*
X005394Y013590D01*
X005149Y013590D02*
X004897Y013590D01*
X002880Y016504D02*
X002453Y016504D01*
X002667Y016504D02*
X002667Y017144D01*
X002453Y016931D01*
X004303Y019054D02*
X004524Y019054D01*
X004597Y019127D01*
X004597Y019201D01*
X004524Y019274D01*
X004303Y019274D01*
X004303Y019054D02*
X004303Y019494D01*
X004524Y019494D01*
X004597Y019421D01*
X004597Y019348D01*
X004524Y019274D01*
X005303Y019274D02*
X005597Y019274D01*
X005597Y019348D02*
X005597Y019054D01*
X005597Y019348D02*
X005450Y019494D01*
X005303Y019348D01*
X005303Y019054D01*
X006303Y019054D02*
X006303Y019494D01*
X006450Y019348D01*
X006597Y019494D01*
X006597Y019054D01*
D12*
X007313Y019274D02*
X007727Y019274D01*
X003727Y019274D02*
X003313Y019274D01*
X003520Y019481D02*
X003520Y019067D01*
D13*
X002880Y018904D02*
X002733Y018757D01*
X002770Y018794D02*
X002880Y018684D01*
X002733Y018684D02*
X002733Y018904D01*
X001530Y018831D02*
X001530Y018684D01*
X001530Y018794D02*
X001383Y018794D01*
X001383Y018831D02*
X001457Y018904D01*
X001530Y018831D01*
X001383Y018831D02*
X001383Y018684D01*
X004767Y014135D02*
X004769Y014162D01*
X004775Y014189D01*
X004784Y014215D01*
X004797Y014239D01*
X004813Y014262D01*
X004832Y014281D01*
X004854Y014298D01*
X004878Y014312D01*
X004903Y014322D01*
X004930Y014329D01*
X004957Y014332D01*
X004985Y014331D01*
X005012Y014326D01*
X005038Y014318D01*
X005062Y014306D01*
X005085Y014290D01*
X005106Y014272D01*
X005123Y014251D01*
X005138Y014227D01*
X005149Y014202D01*
X005157Y014176D01*
X005161Y014149D01*
X005161Y014121D01*
X005157Y014094D01*
X005149Y014068D01*
X005138Y014043D01*
X005123Y014019D01*
X005106Y013998D01*
X005085Y013980D01*
X005063Y013964D01*
X005038Y013952D01*
X005012Y013944D01*
X004985Y013939D01*
X004957Y013938D01*
X004930Y013941D01*
X004903Y013948D01*
X004878Y013958D01*
X004854Y013972D01*
X004832Y013989D01*
X004813Y014008D01*
X004797Y014031D01*
X004784Y014055D01*
X004775Y014081D01*
X004769Y014108D01*
X004767Y014135D01*
X008233Y018684D02*
X008233Y018904D01*
X008270Y018794D02*
X008380Y018684D01*
X008233Y018757D02*
X008380Y018904D01*
X009533Y018831D02*
X009533Y018684D01*
X009533Y018794D02*
X009680Y018794D01*
X009680Y018831D02*
X009680Y018684D01*
X009680Y018831D02*
X009607Y018904D01*
X009533Y018831D01*
D14*
X008023Y018924D02*
X008023Y018174D01*
X003023Y018174D01*
X003023Y018924D01*
X008023Y018924D01*
X008023Y018174D02*
X008023Y016424D01*
X003023Y016424D01*
X003023Y018174D01*
D15*
X002183Y018676D03*
X002183Y018972D03*
X008864Y018972D03*
X008864Y018676D03*
D16*
X008864Y018824D03*
X002183Y018824D03*
D17*
X008391Y016107D03*
M02*
