G75*
G70*
%OFA0B0*%
%FSLAX24Y24*%
%IPPOS*%
%LPD*%
%AMOC8*
5,1,8,0,0,1.08239X$1,22.5*
%
%ADD10C,0.0050*%
%ADD11C,0.0060*%
%ADD12C,0.0080*%
%ADD13C,0.0000*%
%ADD14C,0.0010*%
%ADD15C,0.0020*%
%ADD16R,0.0138X0.0354*%
%ADD17R,0.0340X0.0160*%
%ADD18R,0.0160X0.0340*%
%ADD19C,0.0100*%
%ADD20R,0.0374X0.0197*%
%ADD21C,0.0040*%
%ADD22R,0.0157X0.0354*%
%ADD23R,0.0118X0.0059*%
%ADD24R,0.0118X0.0118*%
%ADD25C,0.0197*%
%ADD26R,0.0167X0.0118*%
D10*
X003523Y010544D02*
X003525Y010642D01*
X003533Y010740D01*
X003545Y010837D01*
X003561Y010934D01*
X003583Y011030D01*
X003609Y011125D01*
X003640Y011218D01*
X003675Y011309D01*
X003715Y011399D01*
X003759Y011487D01*
X003808Y011572D01*
X003860Y011655D01*
X003917Y011735D01*
X003977Y011813D01*
X004041Y011887D01*
X004109Y011958D01*
X004180Y012026D01*
X004254Y012090D01*
X004332Y012150D01*
X004412Y012207D01*
X004495Y012259D01*
X004580Y012308D01*
X004668Y012352D01*
X004758Y012392D01*
X004849Y012427D01*
X004942Y012458D01*
X005037Y012484D01*
X005133Y012506D01*
X005230Y012522D01*
X005327Y012534D01*
X005425Y012542D01*
X005523Y012544D01*
X005621Y012542D01*
X005719Y012534D01*
X005816Y012522D01*
X005913Y012506D01*
X006009Y012484D01*
X006104Y012458D01*
X006197Y012427D01*
X006288Y012392D01*
X006378Y012352D01*
X006466Y012308D01*
X006551Y012259D01*
X006634Y012207D01*
X006714Y012150D01*
X006792Y012090D01*
X006866Y012026D01*
X006937Y011958D01*
X007005Y011887D01*
X007069Y011813D01*
X007129Y011735D01*
X007186Y011655D01*
X007238Y011572D01*
X007287Y011487D01*
X007331Y011399D01*
X007371Y011309D01*
X007406Y011218D01*
X007437Y011125D01*
X007463Y011030D01*
X007485Y010934D01*
X007501Y010837D01*
X007513Y010740D01*
X007521Y010642D01*
X007523Y010544D01*
X007521Y010446D01*
X007513Y010348D01*
X007501Y010251D01*
X007485Y010154D01*
X007463Y010058D01*
X007437Y009963D01*
X007406Y009870D01*
X007371Y009779D01*
X007331Y009689D01*
X007287Y009601D01*
X007238Y009516D01*
X007186Y009433D01*
X007129Y009353D01*
X007069Y009275D01*
X007005Y009201D01*
X006937Y009130D01*
X006866Y009062D01*
X006792Y008998D01*
X006714Y008938D01*
X006634Y008881D01*
X006551Y008829D01*
X006466Y008780D01*
X006378Y008736D01*
X006288Y008696D01*
X006197Y008661D01*
X006104Y008630D01*
X006009Y008604D01*
X005913Y008582D01*
X005816Y008566D01*
X005719Y008554D01*
X005621Y008546D01*
X005523Y008544D01*
X005425Y008546D01*
X005327Y008554D01*
X005230Y008566D01*
X005133Y008582D01*
X005037Y008604D01*
X004942Y008630D01*
X004849Y008661D01*
X004758Y008696D01*
X004668Y008736D01*
X004580Y008780D01*
X004495Y008829D01*
X004412Y008881D01*
X004332Y008938D01*
X004254Y008998D01*
X004180Y009062D01*
X004109Y009130D01*
X004041Y009201D01*
X003977Y009275D01*
X003917Y009353D01*
X003860Y009433D01*
X003808Y009516D01*
X003759Y009601D01*
X003715Y009689D01*
X003675Y009779D01*
X003640Y009870D01*
X003609Y009963D01*
X003583Y010058D01*
X003561Y010154D01*
X003545Y010251D01*
X003533Y010348D01*
X003525Y010446D01*
X003523Y010544D01*
X002348Y000499D02*
X002348Y000849D01*
X002582Y000499D01*
X002582Y000849D01*
X002775Y000499D02*
X002892Y000499D01*
X002950Y000557D01*
X002950Y000674D01*
X002892Y000732D01*
X002775Y000732D01*
X002717Y000674D01*
X002717Y000557D01*
X002775Y000499D01*
X003260Y000499D02*
X003143Y000499D01*
X003085Y000557D01*
X003085Y000674D01*
X003143Y000732D01*
X003260Y000732D01*
X003319Y000674D01*
X003319Y000616D01*
X003085Y000616D01*
X003512Y000791D02*
X003512Y000557D01*
X003570Y000499D01*
X003570Y000732D02*
X003453Y000732D01*
X003699Y000732D02*
X003757Y000732D01*
X003757Y000499D01*
X003699Y000499D02*
X003816Y000499D01*
X003757Y000849D02*
X003757Y000908D01*
X004178Y000732D02*
X004003Y000732D01*
X003944Y000674D01*
X003944Y000557D01*
X004003Y000499D01*
X004178Y000499D01*
X004681Y000849D02*
X004681Y000499D01*
X004856Y000499D01*
X004915Y000557D01*
X004915Y000791D01*
X004856Y000849D01*
X004681Y000849D01*
X005224Y000499D02*
X005108Y000499D01*
X005049Y000557D01*
X005049Y000674D01*
X005108Y000732D01*
X005224Y000732D01*
X005283Y000674D01*
X005283Y000616D01*
X005049Y000616D01*
X005418Y000499D02*
X005593Y000499D01*
X005651Y000557D01*
X005593Y000616D01*
X005476Y000616D01*
X005418Y000674D01*
X005476Y000732D01*
X005651Y000732D01*
X005786Y000732D02*
X005844Y000732D01*
X005844Y000499D01*
X005786Y000499D02*
X005903Y000499D01*
X005844Y000849D02*
X005844Y000908D01*
X006148Y000382D02*
X006207Y000382D01*
X006265Y000441D01*
X006265Y000732D01*
X006090Y000732D01*
X006031Y000674D01*
X006031Y000557D01*
X006090Y000499D01*
X006265Y000499D01*
X006400Y000499D02*
X006400Y000732D01*
X006575Y000732D01*
X006633Y000674D01*
X006633Y000499D01*
X006768Y000382D02*
X006885Y000499D01*
X006885Y000557D01*
X006826Y000557D01*
X006826Y000499D01*
X006885Y000499D01*
X007382Y000499D02*
X007499Y000499D01*
X007440Y000499D02*
X007440Y000849D01*
X007382Y000849D02*
X007499Y000849D01*
X007627Y000499D02*
X007627Y000732D01*
X007803Y000732D01*
X007861Y000674D01*
X007861Y000499D01*
X008229Y000732D02*
X008054Y000732D01*
X007996Y000674D01*
X007996Y000557D01*
X008054Y000499D01*
X008229Y000499D01*
X008364Y000499D02*
X008364Y000557D01*
X008422Y000557D01*
X008422Y000499D01*
X008364Y000499D01*
X003098Y001932D02*
X003098Y001757D01*
X003157Y001699D01*
X003215Y001757D01*
X003274Y001699D01*
X003332Y001757D01*
X003332Y001932D01*
X003467Y001932D02*
X003467Y001757D01*
X003525Y001699D01*
X003584Y001757D01*
X003642Y001699D01*
X003700Y001757D01*
X003700Y001932D01*
X003835Y001932D02*
X003835Y001757D01*
X003893Y001699D01*
X003952Y001757D01*
X004010Y001699D01*
X004069Y001757D01*
X004069Y001932D01*
X004203Y001699D02*
X004203Y001757D01*
X004262Y001757D01*
X004262Y001699D01*
X004203Y001699D01*
X004388Y001699D02*
X004388Y001932D01*
X004563Y001932D01*
X004621Y001874D01*
X004621Y001699D01*
X004756Y001932D02*
X004756Y001757D01*
X004814Y001699D01*
X004989Y001699D01*
X004989Y001932D01*
X005124Y002049D02*
X005124Y001699D01*
X005299Y001699D01*
X005358Y001757D01*
X005358Y001874D01*
X005299Y001932D01*
X005124Y001932D01*
X005551Y001699D02*
X005668Y001699D01*
X005726Y001757D01*
X005726Y001874D01*
X005668Y001932D01*
X005551Y001932D01*
X005492Y001874D01*
X005492Y001757D01*
X005551Y001699D01*
X005919Y001991D02*
X005919Y001757D01*
X005977Y001699D01*
X005977Y001932D02*
X005861Y001932D01*
X006106Y001932D02*
X006165Y001932D01*
X006165Y001699D01*
X006223Y001699D02*
X006106Y001699D01*
X006165Y002049D02*
X006165Y002108D01*
X006585Y001932D02*
X006410Y001932D01*
X006352Y001874D01*
X006352Y001757D01*
X006410Y001699D01*
X006585Y001699D01*
X006720Y001699D02*
X006895Y001699D01*
X006954Y001757D01*
X006895Y001816D01*
X006778Y001816D01*
X006720Y001874D01*
X006778Y001932D01*
X006954Y001932D01*
X007088Y001699D02*
X007088Y001757D01*
X007147Y001757D01*
X007147Y001699D01*
X007088Y001699D01*
X007506Y001932D02*
X007331Y001932D01*
X007273Y001874D01*
X007273Y001757D01*
X007331Y001699D01*
X007506Y001699D01*
X007699Y001699D02*
X007816Y001699D01*
X007874Y001757D01*
X007874Y001874D01*
X007816Y001932D01*
X007699Y001932D01*
X007641Y001874D01*
X007641Y001757D01*
X007699Y001699D01*
X008009Y001699D02*
X008009Y001932D01*
X008067Y001932D01*
X008126Y001874D01*
X008126Y001699D01*
X008126Y001874D02*
X008184Y001932D01*
X008243Y001874D01*
X008243Y001699D01*
X004315Y001049D02*
X004198Y001166D01*
X004198Y001282D01*
X004315Y001399D01*
X004677Y001282D02*
X004502Y001282D01*
X004444Y001224D01*
X004444Y001107D01*
X004502Y001049D01*
X004677Y001049D01*
X004812Y001049D02*
X004929Y001166D01*
X004929Y001282D01*
X004812Y001399D01*
X005660Y001049D02*
X005426Y001049D01*
X005660Y001282D01*
X005660Y001341D01*
X005601Y001399D01*
X005484Y001399D01*
X005426Y001341D01*
X005794Y001107D02*
X005794Y001341D01*
X005853Y001399D01*
X005970Y001399D01*
X006028Y001341D01*
X006028Y001107D01*
X005970Y001049D01*
X005853Y001049D01*
X005794Y001107D01*
X006028Y001341D01*
X006163Y001282D02*
X006279Y001399D01*
X006279Y001049D01*
X006163Y001049D02*
X006396Y001049D01*
X006531Y001107D02*
X006531Y001341D01*
X006589Y001399D01*
X006706Y001399D01*
X006765Y001341D01*
X006765Y001107D01*
X006706Y001049D01*
X006589Y001049D01*
X006531Y001107D01*
X006765Y001341D01*
X004298Y013532D02*
X004415Y013649D01*
X004415Y013299D01*
X004298Y013299D02*
X004532Y013299D01*
X006148Y002349D02*
X006148Y002699D01*
X006324Y002699D01*
X006382Y002641D01*
X006382Y002524D01*
X006324Y002466D01*
X006148Y002466D01*
X006265Y002466D02*
X006382Y002349D01*
X006692Y002349D02*
X006575Y002349D01*
X006517Y002407D01*
X006517Y002524D01*
X006575Y002582D01*
X006692Y002582D01*
X006750Y002524D01*
X006750Y002466D01*
X006517Y002466D01*
X006885Y002582D02*
X007002Y002349D01*
X007119Y002582D01*
X007622Y002349D02*
X007622Y002582D01*
X007738Y002699D01*
X007855Y002582D01*
X007855Y002349D01*
X007855Y002524D02*
X007622Y002524D01*
X005628Y014824D02*
X005628Y014532D01*
X005687Y014474D01*
X005804Y014474D01*
X005862Y014532D01*
X005862Y014824D01*
X005997Y014766D02*
X006055Y014824D01*
X006172Y014824D01*
X006230Y014766D01*
X006230Y014707D01*
X006172Y014649D01*
X006114Y014649D01*
X006172Y014649D02*
X006230Y014591D01*
X006230Y014532D01*
X006172Y014474D01*
X006055Y014474D01*
X005997Y014532D01*
X006862Y005758D02*
X007259Y004730D01*
X007550Y004631D01*
X008211Y004886D01*
X007743Y006098D01*
X006862Y005758D01*
X007554Y005604D02*
X007540Y005640D01*
X007526Y005677D01*
X007504Y005626D02*
X007540Y005640D01*
X007577Y005654D01*
X007730Y005038D02*
X007767Y005053D01*
X007804Y005067D01*
X007753Y005089D02*
X007767Y005053D01*
X007781Y005016D01*
X006811Y005781D02*
X007222Y004716D01*
X007564Y004594D01*
X008262Y004864D01*
X007766Y006149D01*
X006811Y005781D01*
X007514Y004612D02*
X007610Y004612D01*
X007736Y004661D02*
X007377Y004661D01*
X007240Y004709D02*
X007862Y004709D01*
X007988Y004758D02*
X007206Y004758D01*
X007187Y004806D02*
X008113Y004806D01*
X008239Y004855D02*
X007168Y004855D01*
X007149Y004904D02*
X008247Y004904D01*
X008228Y004952D02*
X007131Y004952D01*
X007112Y005001D02*
X008209Y005001D01*
X008190Y005049D02*
X007093Y005049D01*
X007074Y005098D02*
X008172Y005098D01*
X008153Y005146D02*
X007056Y005146D01*
X007037Y005195D02*
X008134Y005195D01*
X008115Y005243D02*
X007018Y005243D01*
X006999Y005292D02*
X008097Y005292D01*
X008078Y005340D02*
X006981Y005340D01*
X006962Y005389D02*
X008059Y005389D01*
X008041Y005437D02*
X006943Y005437D01*
X006925Y005486D02*
X008022Y005486D01*
X008003Y005535D02*
X006906Y005535D01*
X006887Y005583D02*
X007984Y005583D01*
X007966Y005632D02*
X006868Y005632D01*
X006850Y005680D02*
X007947Y005680D01*
X007928Y005729D02*
X006831Y005729D01*
X006812Y005777D02*
X007909Y005777D01*
X007891Y005826D02*
X006927Y005826D01*
X007053Y005874D02*
X007872Y005874D01*
X007853Y005923D02*
X007179Y005923D01*
X007305Y005971D02*
X007834Y005971D01*
X007816Y006020D02*
X007431Y006020D01*
X007556Y006069D02*
X007797Y006069D01*
X007778Y006117D02*
X007682Y006117D01*
X006858Y006251D02*
X006963Y005978D01*
X007038Y005945D01*
X007147Y005987D01*
X007181Y006062D01*
X007075Y006335D01*
X007243Y006274D02*
X007310Y006425D01*
X007436Y006098D01*
X007327Y006056D02*
X007545Y006140D01*
X003304Y006098D02*
X002907Y005070D01*
X003056Y004801D01*
X003717Y004546D01*
X004185Y005758D01*
X003304Y006098D01*
X003713Y005519D02*
X003727Y005555D01*
X003741Y005592D01*
X003690Y005569D02*
X003727Y005555D01*
X003764Y005541D01*
X003464Y004982D02*
X003500Y004968D01*
X003537Y004953D01*
X003514Y005004D02*
X003500Y004968D01*
X003486Y004931D01*
X003281Y006149D02*
X002870Y005084D01*
X003042Y004765D01*
X003740Y004495D01*
X004236Y005781D01*
X003281Y006149D01*
X003688Y004515D02*
X003748Y004515D01*
X003766Y004564D02*
X003563Y004564D01*
X003437Y004612D02*
X003785Y004612D01*
X003804Y004661D02*
X003311Y004661D01*
X003185Y004709D02*
X003823Y004709D01*
X003841Y004758D02*
X003059Y004758D01*
X003020Y004806D02*
X003860Y004806D01*
X003879Y004855D02*
X002993Y004855D01*
X002967Y004904D02*
X003898Y004904D01*
X003916Y004952D02*
X002941Y004952D01*
X002915Y005001D02*
X003935Y005001D01*
X003954Y005049D02*
X002889Y005049D01*
X002875Y005098D02*
X003972Y005098D01*
X003991Y005146D02*
X002894Y005146D01*
X002913Y005195D02*
X004010Y005195D01*
X004029Y005243D02*
X002931Y005243D01*
X002950Y005292D02*
X004047Y005292D01*
X004066Y005340D02*
X002969Y005340D01*
X002988Y005389D02*
X004085Y005389D01*
X004104Y005437D02*
X003006Y005437D01*
X003025Y005486D02*
X004122Y005486D01*
X004141Y005535D02*
X003044Y005535D01*
X003063Y005583D02*
X004160Y005583D01*
X004178Y005632D02*
X003081Y005632D01*
X003100Y005680D02*
X004197Y005680D01*
X004216Y005729D02*
X003119Y005729D01*
X003138Y005777D02*
X004235Y005777D01*
X004119Y005826D02*
X003156Y005826D01*
X003175Y005874D02*
X003994Y005874D01*
X003868Y005923D02*
X003194Y005923D01*
X003212Y005971D02*
X003742Y005971D01*
X003616Y006020D02*
X003231Y006020D01*
X003250Y006069D02*
X003490Y006069D01*
X003365Y006117D02*
X003269Y006117D01*
X003630Y006479D02*
X003525Y006206D01*
X003559Y006131D01*
X003668Y006089D01*
X003743Y006122D01*
X003848Y006395D01*
X004066Y005935D02*
X003848Y006019D01*
X004150Y006153D01*
X004171Y006208D01*
X004137Y006283D01*
X004028Y006325D01*
X003953Y006292D01*
X002648Y007949D02*
X002648Y008299D01*
X002824Y008299D01*
X002882Y008241D01*
X002882Y008124D01*
X002824Y008066D01*
X002648Y008066D01*
X002765Y008066D02*
X002882Y007949D01*
X003017Y008182D02*
X003134Y008299D01*
X003134Y007949D01*
X003250Y007949D02*
X003017Y007949D01*
X008592Y018089D02*
X008592Y018439D01*
X008767Y018439D01*
X008825Y018381D01*
X008825Y018264D01*
X008767Y018206D01*
X008592Y018206D01*
X008709Y018206D02*
X008825Y018089D01*
X009194Y018089D02*
X008960Y018089D01*
X009194Y018322D01*
X009194Y018381D01*
X009135Y018439D01*
X009019Y018439D01*
X008960Y018381D01*
X001802Y018089D02*
X001802Y018439D01*
X001977Y018439D01*
X002035Y018381D01*
X002035Y018264D01*
X001977Y018206D01*
X001802Y018206D01*
X001919Y018206D02*
X002035Y018089D01*
X002170Y018381D02*
X002229Y018439D01*
X002345Y018439D01*
X002404Y018381D01*
X002404Y018322D01*
X002345Y018264D01*
X002287Y018264D01*
X002345Y018264D02*
X002404Y018206D01*
X002404Y018147D01*
X002345Y018089D01*
X002229Y018089D01*
X002170Y018147D01*
X006898Y007929D02*
X006898Y008279D01*
X007074Y008279D01*
X007132Y008221D01*
X007132Y008104D01*
X007074Y008046D01*
X006898Y008046D01*
X007015Y008046D02*
X007132Y007929D01*
X007500Y008279D02*
X007267Y008279D01*
X007267Y008104D01*
X007384Y008162D01*
X007442Y008162D01*
X007500Y008104D01*
X007500Y007987D01*
X007442Y007929D01*
X007325Y007929D01*
X007267Y007987D01*
X003598Y007929D02*
X003598Y008279D01*
X003774Y008279D01*
X003832Y008221D01*
X003832Y008104D01*
X003774Y008046D01*
X003598Y008046D01*
X003715Y008046D02*
X003832Y007929D01*
X004200Y008279D02*
X004084Y008221D01*
X003967Y008104D01*
X003967Y007987D01*
X004025Y007929D01*
X004142Y007929D01*
X004200Y007987D01*
X004200Y008046D01*
X004142Y008104D01*
X003967Y008104D01*
X003298Y016637D02*
X003357Y016579D01*
X003415Y016579D01*
X003474Y016637D01*
X003474Y016929D01*
X003532Y016929D02*
X003415Y016929D01*
X003667Y016812D02*
X003784Y016929D01*
X003784Y016579D01*
X003900Y016579D02*
X003667Y016579D01*
X003732Y012641D02*
X003674Y012699D01*
X003557Y012699D01*
X003498Y012641D01*
X003498Y012407D01*
X003557Y012349D01*
X003674Y012349D01*
X003732Y012407D01*
X003867Y012582D02*
X003984Y012699D01*
X003984Y012349D01*
X004100Y012349D02*
X003867Y012349D01*
X008132Y008231D02*
X008074Y008289D01*
X007957Y008289D01*
X007898Y008231D01*
X007898Y007997D01*
X007957Y007939D01*
X008074Y007939D01*
X008132Y007997D01*
X008500Y007939D02*
X008267Y007939D01*
X008500Y008172D01*
X008500Y008231D01*
X008442Y008289D01*
X008325Y008289D01*
X008267Y008231D01*
X008592Y019449D02*
X008592Y019099D01*
X008767Y019099D01*
X008825Y019157D01*
X008825Y019391D01*
X008767Y019449D01*
X008592Y019449D01*
X008960Y019332D02*
X009077Y019449D01*
X009077Y019099D01*
X008960Y019099D02*
X009194Y019099D01*
X001802Y019449D02*
X001802Y019099D01*
X001977Y019099D01*
X002035Y019157D01*
X002035Y019391D01*
X001977Y019449D01*
X001802Y019449D01*
X002404Y019099D02*
X002170Y019099D01*
X002404Y019332D01*
X002404Y019391D01*
X002345Y019449D01*
X002229Y019449D01*
X002170Y019391D01*
X003548Y015949D02*
X003548Y016299D01*
X003724Y016299D01*
X003782Y016241D01*
X003782Y016124D01*
X003724Y016066D01*
X003548Y016066D01*
X003665Y016066D02*
X003782Y015949D01*
X004092Y015949D02*
X004092Y016299D01*
X003917Y016124D01*
X004150Y016124D01*
X007232Y012641D02*
X007174Y012699D01*
X007057Y012699D01*
X006998Y012641D01*
X006998Y012407D01*
X007057Y012349D01*
X007174Y012349D01*
X007232Y012407D01*
X007367Y012641D02*
X007425Y012699D01*
X007542Y012699D01*
X007600Y012641D01*
X007600Y012582D01*
X007542Y012524D01*
X007484Y012524D01*
X007542Y012524D02*
X007600Y012466D01*
X007600Y012407D01*
X007542Y012349D01*
X007425Y012349D01*
X007367Y012407D01*
X008795Y015141D02*
X008795Y016007D01*
X008952Y016007D01*
X008952Y015141D01*
X008795Y015141D01*
X008608Y015141D02*
X008608Y016007D01*
X009139Y016007D01*
X009139Y015141D01*
X008608Y015141D01*
X008898Y017007D02*
X008898Y016715D01*
X008957Y016657D01*
X009074Y016657D01*
X009132Y016715D01*
X009132Y017007D01*
X009442Y016657D02*
X009442Y017007D01*
X009267Y016832D01*
X009500Y016832D01*
X007048Y015949D02*
X007048Y016299D01*
X007224Y016299D01*
X007282Y016241D01*
X007282Y016124D01*
X007224Y016066D01*
X007048Y016066D01*
X007165Y016066D02*
X007282Y015949D01*
X007417Y016299D02*
X007650Y016299D01*
X007650Y016241D01*
X007417Y016007D01*
X007417Y015949D01*
X008353Y000924D02*
X008355Y000973D01*
X008361Y001021D01*
X008371Y001069D01*
X008385Y001116D01*
X008402Y001162D01*
X008423Y001206D01*
X008448Y001248D01*
X008476Y001288D01*
X008508Y001326D01*
X008542Y001361D01*
X008579Y001393D01*
X008618Y001422D01*
X008660Y001448D01*
X008704Y001470D01*
X008749Y001488D01*
X008796Y001503D01*
X008843Y001514D01*
X008892Y001521D01*
X008941Y001524D01*
X008990Y001523D01*
X009038Y001518D01*
X009087Y001509D01*
X009134Y001496D01*
X009180Y001479D01*
X009224Y001459D01*
X009267Y001435D01*
X009308Y001408D01*
X009346Y001377D01*
X009382Y001344D01*
X009414Y001308D01*
X009444Y001269D01*
X009471Y001228D01*
X009494Y001184D01*
X009513Y001139D01*
X009529Y001093D01*
X009541Y001046D01*
X009549Y000997D01*
X009553Y000948D01*
X009553Y000900D01*
X009549Y000851D01*
X009541Y000802D01*
X009529Y000755D01*
X009513Y000709D01*
X009494Y000664D01*
X009471Y000620D01*
X009444Y000579D01*
X009414Y000540D01*
X009382Y000504D01*
X009346Y000471D01*
X009308Y000440D01*
X009267Y000413D01*
X009224Y000389D01*
X009180Y000369D01*
X009134Y000352D01*
X009087Y000339D01*
X009038Y000330D01*
X008990Y000325D01*
X008941Y000324D01*
X008892Y000327D01*
X008843Y000334D01*
X008796Y000345D01*
X008749Y000360D01*
X008704Y000378D01*
X008660Y000400D01*
X008618Y000426D01*
X008579Y000455D01*
X008542Y000487D01*
X008508Y000522D01*
X008476Y000560D01*
X008448Y000600D01*
X008423Y000642D01*
X008402Y000686D01*
X008385Y000732D01*
X008371Y000779D01*
X008361Y000827D01*
X008355Y000875D01*
X008353Y000924D01*
X001453Y015824D02*
X001455Y015873D01*
X001461Y015921D01*
X001471Y015969D01*
X001485Y016016D01*
X001502Y016062D01*
X001523Y016106D01*
X001548Y016148D01*
X001576Y016188D01*
X001608Y016226D01*
X001642Y016261D01*
X001679Y016293D01*
X001718Y016322D01*
X001760Y016348D01*
X001804Y016370D01*
X001849Y016388D01*
X001896Y016403D01*
X001943Y016414D01*
X001992Y016421D01*
X002041Y016424D01*
X002090Y016423D01*
X002138Y016418D01*
X002187Y016409D01*
X002234Y016396D01*
X002280Y016379D01*
X002324Y016359D01*
X002367Y016335D01*
X002408Y016308D01*
X002446Y016277D01*
X002482Y016244D01*
X002514Y016208D01*
X002544Y016169D01*
X002571Y016128D01*
X002594Y016084D01*
X002613Y016039D01*
X002629Y015993D01*
X002641Y015946D01*
X002649Y015897D01*
X002653Y015848D01*
X002653Y015800D01*
X002649Y015751D01*
X002641Y015702D01*
X002629Y015655D01*
X002613Y015609D01*
X002594Y015564D01*
X002571Y015520D01*
X002544Y015479D01*
X002514Y015440D01*
X002482Y015404D01*
X002446Y015371D01*
X002408Y015340D01*
X002367Y015313D01*
X002324Y015289D01*
X002280Y015269D01*
X002234Y015252D01*
X002187Y015239D01*
X002138Y015230D01*
X002090Y015225D01*
X002041Y015224D01*
X001992Y015227D01*
X001943Y015234D01*
X001896Y015245D01*
X001849Y015260D01*
X001804Y015278D01*
X001760Y015300D01*
X001718Y015326D01*
X001679Y015355D01*
X001642Y015387D01*
X001608Y015422D01*
X001576Y015460D01*
X001548Y015500D01*
X001523Y015542D01*
X001502Y015586D01*
X001485Y015632D01*
X001471Y015679D01*
X001461Y015727D01*
X001455Y015775D01*
X001453Y015824D01*
D11*
X002453Y016931D02*
X002667Y017144D01*
X002667Y016504D01*
X002880Y016504D02*
X002453Y016504D01*
X003602Y002744D02*
X003602Y002304D01*
X003748Y002451D01*
X003895Y002304D01*
X003895Y002744D01*
X004062Y002744D02*
X004062Y002304D01*
X004209Y002451D01*
X004355Y002304D01*
X004355Y002744D01*
X004522Y002524D02*
X004816Y002524D01*
X004983Y002598D02*
X005129Y002744D01*
X005129Y002304D01*
X004983Y002304D02*
X005276Y002304D01*
X005737Y002304D02*
X005443Y002304D01*
X005737Y002598D01*
X005737Y002671D01*
X005663Y002744D01*
X005516Y002744D01*
X005443Y002671D01*
X005303Y019054D02*
X005303Y019348D01*
X005450Y019494D01*
X005597Y019348D01*
X005597Y019054D01*
X005597Y019274D02*
X005303Y019274D01*
X006303Y019054D02*
X006303Y019494D01*
X006450Y019348D01*
X006597Y019494D01*
X006597Y019054D01*
X004303Y019054D02*
X004303Y019494D01*
X004524Y019494D01*
X004597Y019421D01*
X004597Y019348D01*
X004524Y019274D01*
X004597Y019201D01*
X004597Y019127D01*
X004524Y019054D01*
X004303Y019054D01*
X004303Y019274D02*
X004524Y019274D01*
X004598Y015558D02*
X004581Y015557D01*
X004564Y015552D01*
X004549Y015545D01*
X004535Y015535D01*
X004523Y015523D01*
X004513Y015509D01*
X004506Y015494D01*
X004501Y015477D01*
X004500Y015460D01*
X006449Y015558D02*
X006466Y015557D01*
X006483Y015552D01*
X006498Y015545D01*
X006512Y015535D01*
X006524Y015523D01*
X006534Y015509D01*
X006541Y015494D01*
X006546Y015477D01*
X006547Y015460D01*
X006547Y013688D02*
X006546Y013671D01*
X006541Y013654D01*
X006534Y013639D01*
X006524Y013625D01*
X006512Y013613D01*
X006498Y013603D01*
X006483Y013596D01*
X006466Y013591D01*
X006449Y013590D01*
X004598Y013590D02*
X004581Y013591D01*
X004564Y013596D01*
X004549Y013603D01*
X004535Y013613D01*
X004523Y013625D01*
X004513Y013639D01*
X004506Y013654D01*
X004501Y013671D01*
X004500Y013688D01*
X004602Y013590D02*
X006453Y013590D01*
X006453Y015558D02*
X004602Y015558D01*
X004653Y015558D01*
X004897Y015558D02*
X005149Y015558D01*
X005397Y015558D02*
X005649Y015558D01*
X005897Y015558D02*
X006149Y015558D01*
X006394Y015558D02*
X006453Y015558D01*
X006441Y013590D02*
X006390Y013590D01*
X006149Y013590D02*
X005894Y013590D01*
X005649Y013590D02*
X005394Y013590D01*
X005149Y013590D02*
X004897Y013590D01*
X004653Y013590D02*
X004602Y013590D01*
X004500Y013692D02*
X004500Y015460D01*
X006547Y015460D02*
X006547Y013688D01*
X003014Y007394D02*
X003014Y007054D01*
X002733Y007054D02*
X002733Y007394D01*
X008753Y017814D02*
X009094Y017814D01*
X009094Y017534D02*
X008753Y017534D01*
X002294Y017534D02*
X001953Y017534D01*
X001953Y017814D02*
X002294Y017814D01*
X007314Y007394D02*
X007314Y007054D01*
X007033Y007054D02*
X007033Y007394D01*
X004014Y007394D02*
X004014Y007054D01*
X003733Y007054D02*
X003733Y007394D01*
X003633Y015104D02*
X003633Y015444D01*
X003914Y015444D02*
X003914Y015104D01*
X007414Y015104D02*
X007414Y015444D01*
X007133Y015444D02*
X007133Y015104D01*
D12*
X003727Y019274D02*
X003313Y019274D01*
X003520Y019481D02*
X003520Y019067D01*
X007313Y019274D02*
X007727Y019274D01*
D13*
X001553Y013864D02*
X001555Y013908D01*
X001561Y013952D01*
X001571Y013995D01*
X001584Y014037D01*
X001601Y014078D01*
X001622Y014117D01*
X001646Y014154D01*
X001673Y014189D01*
X001703Y014221D01*
X001736Y014251D01*
X001772Y014277D01*
X001809Y014301D01*
X001849Y014320D01*
X001890Y014337D01*
X001933Y014349D01*
X001976Y014358D01*
X002020Y014363D01*
X002064Y014364D01*
X002108Y014361D01*
X002152Y014354D01*
X002195Y014343D01*
X002237Y014329D01*
X002277Y014311D01*
X002316Y014289D01*
X002352Y014265D01*
X002386Y014237D01*
X002418Y014206D01*
X002447Y014172D01*
X002473Y014136D01*
X002495Y014098D01*
X002514Y014058D01*
X002529Y014016D01*
X002541Y013974D01*
X002549Y013930D01*
X002553Y013886D01*
X002553Y013842D01*
X002549Y013798D01*
X002541Y013754D01*
X002529Y013712D01*
X002514Y013670D01*
X002495Y013630D01*
X002473Y013592D01*
X002447Y013556D01*
X002418Y013522D01*
X002386Y013491D01*
X002352Y013463D01*
X002316Y013439D01*
X002277Y013417D01*
X002237Y013399D01*
X002195Y013385D01*
X002152Y013374D01*
X002108Y013367D01*
X002064Y013364D01*
X002020Y013365D01*
X001976Y013370D01*
X001933Y013379D01*
X001890Y013391D01*
X001849Y013408D01*
X001809Y013427D01*
X001772Y013451D01*
X001736Y013477D01*
X001703Y013507D01*
X001673Y013539D01*
X001646Y013574D01*
X001622Y013611D01*
X001601Y013650D01*
X001584Y013691D01*
X001571Y013733D01*
X001561Y013776D01*
X001555Y013820D01*
X001553Y013864D01*
X008493Y013864D02*
X008495Y013908D01*
X008501Y013952D01*
X008511Y013995D01*
X008524Y014037D01*
X008541Y014078D01*
X008562Y014117D01*
X008586Y014154D01*
X008613Y014189D01*
X008643Y014221D01*
X008676Y014251D01*
X008712Y014277D01*
X008749Y014301D01*
X008789Y014320D01*
X008830Y014337D01*
X008873Y014349D01*
X008916Y014358D01*
X008960Y014363D01*
X009004Y014364D01*
X009048Y014361D01*
X009092Y014354D01*
X009135Y014343D01*
X009177Y014329D01*
X009217Y014311D01*
X009256Y014289D01*
X009292Y014265D01*
X009326Y014237D01*
X009358Y014206D01*
X009387Y014172D01*
X009413Y014136D01*
X009435Y014098D01*
X009454Y014058D01*
X009469Y014016D01*
X009481Y013974D01*
X009489Y013930D01*
X009493Y013886D01*
X009493Y013842D01*
X009489Y013798D01*
X009481Y013754D01*
X009469Y013712D01*
X009454Y013670D01*
X009435Y013630D01*
X009413Y013592D01*
X009387Y013556D01*
X009358Y013522D01*
X009326Y013491D01*
X009292Y013463D01*
X009256Y013439D01*
X009217Y013417D01*
X009177Y013399D01*
X009135Y013385D01*
X009092Y013374D01*
X009048Y013367D01*
X009004Y013364D01*
X008960Y013365D01*
X008916Y013370D01*
X008873Y013379D01*
X008830Y013391D01*
X008789Y013408D01*
X008749Y013427D01*
X008712Y013451D01*
X008676Y013477D01*
X008643Y013507D01*
X008613Y013539D01*
X008586Y013574D01*
X008562Y013611D01*
X008541Y013650D01*
X008524Y013691D01*
X008511Y013733D01*
X008501Y013776D01*
X008495Y013820D01*
X008493Y013864D01*
X001533Y002634D02*
X001535Y002681D01*
X001541Y002727D01*
X001551Y002773D01*
X001564Y002818D01*
X001581Y002862D01*
X001602Y002904D01*
X001627Y002944D01*
X001654Y002982D01*
X001685Y003017D01*
X001718Y003050D01*
X001754Y003080D01*
X001793Y003107D01*
X001834Y003130D01*
X001876Y003150D01*
X001920Y003167D01*
X001965Y003179D01*
X002011Y003188D01*
X002058Y003193D01*
X002105Y003194D01*
X002152Y003191D01*
X002198Y003184D01*
X002244Y003173D01*
X002288Y003159D01*
X002331Y003141D01*
X002373Y003119D01*
X002413Y003094D01*
X002450Y003065D01*
X002485Y003034D01*
X002517Y003000D01*
X002546Y002963D01*
X002572Y002924D01*
X002595Y002883D01*
X002614Y002840D01*
X002629Y002796D01*
X002641Y002750D01*
X002649Y002704D01*
X002653Y002657D01*
X002653Y002611D01*
X002649Y002564D01*
X002641Y002518D01*
X002629Y002472D01*
X002614Y002428D01*
X002595Y002385D01*
X002572Y002344D01*
X002546Y002305D01*
X002517Y002268D01*
X002485Y002234D01*
X002450Y002203D01*
X002413Y002174D01*
X002373Y002149D01*
X002331Y002127D01*
X002288Y002109D01*
X002244Y002095D01*
X002198Y002084D01*
X002152Y002077D01*
X002105Y002074D01*
X002058Y002075D01*
X002011Y002080D01*
X001965Y002089D01*
X001920Y002101D01*
X001876Y002118D01*
X001834Y002138D01*
X001793Y002161D01*
X001754Y002188D01*
X001718Y002218D01*
X001685Y002251D01*
X001654Y002286D01*
X001627Y002324D01*
X001602Y002364D01*
X001581Y002406D01*
X001564Y002450D01*
X001551Y002495D01*
X001541Y002541D01*
X001535Y002587D01*
X001533Y002634D01*
X008393Y002634D02*
X008395Y002681D01*
X008401Y002727D01*
X008411Y002773D01*
X008424Y002818D01*
X008441Y002862D01*
X008462Y002904D01*
X008487Y002944D01*
X008514Y002982D01*
X008545Y003017D01*
X008578Y003050D01*
X008614Y003080D01*
X008653Y003107D01*
X008694Y003130D01*
X008736Y003150D01*
X008780Y003167D01*
X008825Y003179D01*
X008871Y003188D01*
X008918Y003193D01*
X008965Y003194D01*
X009012Y003191D01*
X009058Y003184D01*
X009104Y003173D01*
X009148Y003159D01*
X009191Y003141D01*
X009233Y003119D01*
X009273Y003094D01*
X009310Y003065D01*
X009345Y003034D01*
X009377Y003000D01*
X009406Y002963D01*
X009432Y002924D01*
X009455Y002883D01*
X009474Y002840D01*
X009489Y002796D01*
X009501Y002750D01*
X009509Y002704D01*
X009513Y002657D01*
X009513Y002611D01*
X009509Y002564D01*
X009501Y002518D01*
X009489Y002472D01*
X009474Y002428D01*
X009455Y002385D01*
X009432Y002344D01*
X009406Y002305D01*
X009377Y002268D01*
X009345Y002234D01*
X009310Y002203D01*
X009273Y002174D01*
X009233Y002149D01*
X009191Y002127D01*
X009148Y002109D01*
X009104Y002095D01*
X009058Y002084D01*
X009012Y002077D01*
X008965Y002074D01*
X008918Y002075D01*
X008871Y002080D01*
X008825Y002089D01*
X008780Y002101D01*
X008736Y002118D01*
X008694Y002138D01*
X008653Y002161D01*
X008614Y002188D01*
X008578Y002218D01*
X008545Y002251D01*
X008514Y002286D01*
X008487Y002324D01*
X008462Y002364D01*
X008441Y002406D01*
X008424Y002450D01*
X008411Y002495D01*
X008401Y002541D01*
X008395Y002587D01*
X008393Y002634D01*
X004683Y006074D02*
X004685Y006131D01*
X004691Y006188D01*
X004701Y006245D01*
X004714Y006301D01*
X004732Y006355D01*
X004753Y006409D01*
X004777Y006460D01*
X004805Y006510D01*
X004837Y006558D01*
X004871Y006604D01*
X004909Y006647D01*
X004950Y006688D01*
X004993Y006726D01*
X005039Y006760D01*
X005087Y006792D01*
X005137Y006820D01*
X005188Y006844D01*
X005242Y006865D01*
X005296Y006883D01*
X005352Y006896D01*
X005409Y006906D01*
X005466Y006912D01*
X005523Y006914D01*
X005580Y006912D01*
X005637Y006906D01*
X005694Y006896D01*
X005750Y006883D01*
X005804Y006865D01*
X005858Y006844D01*
X005909Y006820D01*
X005959Y006792D01*
X006007Y006760D01*
X006053Y006726D01*
X006096Y006688D01*
X006137Y006647D01*
X006175Y006604D01*
X006209Y006558D01*
X006241Y006510D01*
X006269Y006460D01*
X006293Y006409D01*
X006314Y006355D01*
X006332Y006301D01*
X006345Y006245D01*
X006355Y006188D01*
X006361Y006131D01*
X006363Y006074D01*
X006361Y006017D01*
X006355Y005960D01*
X006345Y005903D01*
X006332Y005847D01*
X006314Y005793D01*
X006293Y005739D01*
X006269Y005688D01*
X006241Y005638D01*
X006209Y005590D01*
X006175Y005544D01*
X006137Y005501D01*
X006096Y005460D01*
X006053Y005422D01*
X006007Y005388D01*
X005959Y005356D01*
X005909Y005328D01*
X005858Y005304D01*
X005804Y005283D01*
X005750Y005265D01*
X005694Y005252D01*
X005637Y005242D01*
X005580Y005236D01*
X005523Y005234D01*
X005466Y005236D01*
X005409Y005242D01*
X005352Y005252D01*
X005296Y005265D01*
X005242Y005283D01*
X005188Y005304D01*
X005137Y005328D01*
X005087Y005356D01*
X005039Y005388D01*
X004993Y005422D01*
X004950Y005460D01*
X004909Y005501D01*
X004871Y005544D01*
X004837Y005590D01*
X004805Y005638D01*
X004777Y005688D01*
X004753Y005739D01*
X004732Y005793D01*
X004714Y005847D01*
X004701Y005903D01*
X004691Y005960D01*
X004685Y006017D01*
X004683Y006074D01*
X005123Y014574D02*
X005923Y014574D01*
X005523Y014174D02*
X005523Y014974D01*
X007143Y005304D02*
X007943Y005304D01*
X007543Y004904D02*
X007543Y005704D01*
X003903Y005304D02*
X003103Y005304D01*
X003503Y004904D02*
X003503Y005704D01*
X003142Y007224D02*
X002605Y007224D01*
X002873Y006955D02*
X002873Y007493D01*
X008655Y017674D02*
X009192Y017674D01*
X008923Y017405D02*
X008923Y017943D01*
X002392Y017674D02*
X001855Y017674D01*
X002123Y017405D02*
X002123Y017943D01*
X006905Y007224D02*
X007442Y007224D01*
X007173Y006955D02*
X007173Y007493D01*
X004142Y007224D02*
X003605Y007224D01*
X003873Y006955D02*
X003873Y007493D01*
X008285Y016664D02*
X008662Y016664D01*
X008473Y016476D02*
X008473Y016852D01*
X005923Y017674D02*
X005123Y017674D01*
X005523Y017274D02*
X005523Y018074D01*
X004042Y013874D02*
X003505Y013874D01*
X003773Y013605D02*
X003773Y014143D01*
X007905Y007224D02*
X008442Y007224D01*
X008173Y006955D02*
X008173Y007493D01*
X008796Y018824D02*
X009051Y018824D01*
X008923Y018696D02*
X008923Y018952D01*
X002251Y018824D02*
X001996Y018824D01*
X002123Y018696D02*
X002123Y018952D01*
X003505Y015274D02*
X004042Y015274D01*
X003773Y015005D02*
X003773Y015543D01*
X007005Y013874D02*
X007542Y013874D01*
X007273Y013605D02*
X007273Y014143D01*
X008184Y015042D02*
X008184Y016105D01*
X009562Y016105D01*
X009562Y015042D01*
X008184Y015042D01*
X008484Y015574D02*
X009263Y015574D01*
X008873Y015184D02*
X008873Y015964D01*
X007542Y015274D02*
X007005Y015274D01*
X007273Y015005D02*
X007273Y015543D01*
X008553Y000924D02*
X009353Y000924D01*
X008953Y000524D02*
X008953Y001324D01*
X002453Y015824D02*
X001653Y015824D01*
X002053Y015424D02*
X002053Y016224D01*
X005123Y010544D02*
X005923Y010544D01*
X005523Y010144D02*
X005523Y010944D01*
X005335Y007324D02*
X005712Y007324D01*
X005523Y007136D02*
X005523Y007512D01*
D14*
X001053Y019754D02*
X009993Y019754D01*
X009993Y000114D01*
X001053Y000114D01*
X001053Y019754D01*
X001053Y013864D02*
X001055Y013927D01*
X001061Y013989D01*
X001071Y014051D01*
X001084Y014113D01*
X001102Y014173D01*
X001123Y014232D01*
X001148Y014290D01*
X001177Y014346D01*
X001209Y014400D01*
X001244Y014452D01*
X001282Y014501D01*
X001324Y014549D01*
X001368Y014593D01*
X001416Y014635D01*
X001465Y014673D01*
X001517Y014708D01*
X001571Y014740D01*
X001627Y014769D01*
X001685Y014794D01*
X001744Y014815D01*
X001804Y014833D01*
X001866Y014846D01*
X001928Y014856D01*
X001990Y014862D01*
X002053Y014864D01*
X002116Y014862D01*
X002178Y014856D01*
X002240Y014846D01*
X002302Y014833D01*
X002362Y014815D01*
X002421Y014794D01*
X002479Y014769D01*
X002535Y014740D01*
X002589Y014708D01*
X002641Y014673D01*
X002690Y014635D01*
X002738Y014593D01*
X002782Y014549D01*
X002824Y014501D01*
X002862Y014452D01*
X002897Y014400D01*
X002929Y014346D01*
X002958Y014290D01*
X002983Y014232D01*
X003004Y014173D01*
X003022Y014113D01*
X003035Y014051D01*
X003045Y013989D01*
X003051Y013927D01*
X003053Y013864D01*
X003051Y013801D01*
X003045Y013739D01*
X003035Y013677D01*
X003022Y013615D01*
X003004Y013555D01*
X002983Y013496D01*
X002958Y013438D01*
X002929Y013382D01*
X002897Y013328D01*
X002862Y013276D01*
X002824Y013227D01*
X002782Y013179D01*
X002738Y013135D01*
X002690Y013093D01*
X002641Y013055D01*
X002589Y013020D01*
X002535Y012988D01*
X002479Y012959D01*
X002421Y012934D01*
X002362Y012913D01*
X002302Y012895D01*
X002240Y012882D01*
X002178Y012872D01*
X002116Y012866D01*
X002053Y012864D01*
X001990Y012866D01*
X001928Y012872D01*
X001866Y012882D01*
X001804Y012895D01*
X001744Y012913D01*
X001685Y012934D01*
X001627Y012959D01*
X001571Y012988D01*
X001517Y013020D01*
X001465Y013055D01*
X001416Y013093D01*
X001368Y013135D01*
X001324Y013179D01*
X001282Y013227D01*
X001244Y013276D01*
X001209Y013328D01*
X001177Y013382D01*
X001148Y013438D01*
X001123Y013496D01*
X001102Y013555D01*
X001084Y013615D01*
X001071Y013677D01*
X001061Y013739D01*
X001055Y013801D01*
X001053Y013864D01*
X007993Y013864D02*
X007995Y013927D01*
X008001Y013989D01*
X008011Y014051D01*
X008024Y014113D01*
X008042Y014173D01*
X008063Y014232D01*
X008088Y014290D01*
X008117Y014346D01*
X008149Y014400D01*
X008184Y014452D01*
X008222Y014501D01*
X008264Y014549D01*
X008308Y014593D01*
X008356Y014635D01*
X008405Y014673D01*
X008457Y014708D01*
X008511Y014740D01*
X008567Y014769D01*
X008625Y014794D01*
X008684Y014815D01*
X008744Y014833D01*
X008806Y014846D01*
X008868Y014856D01*
X008930Y014862D01*
X008993Y014864D01*
X009056Y014862D01*
X009118Y014856D01*
X009180Y014846D01*
X009242Y014833D01*
X009302Y014815D01*
X009361Y014794D01*
X009419Y014769D01*
X009475Y014740D01*
X009529Y014708D01*
X009581Y014673D01*
X009630Y014635D01*
X009678Y014593D01*
X009722Y014549D01*
X009764Y014501D01*
X009802Y014452D01*
X009837Y014400D01*
X009869Y014346D01*
X009898Y014290D01*
X009923Y014232D01*
X009944Y014173D01*
X009962Y014113D01*
X009975Y014051D01*
X009985Y013989D01*
X009991Y013927D01*
X009993Y013864D01*
X009991Y013801D01*
X009985Y013739D01*
X009975Y013677D01*
X009962Y013615D01*
X009944Y013555D01*
X009923Y013496D01*
X009898Y013438D01*
X009869Y013382D01*
X009837Y013328D01*
X009802Y013276D01*
X009764Y013227D01*
X009722Y013179D01*
X009678Y013135D01*
X009630Y013093D01*
X009581Y013055D01*
X009529Y013020D01*
X009475Y012988D01*
X009419Y012959D01*
X009361Y012934D01*
X009302Y012913D01*
X009242Y012895D01*
X009180Y012882D01*
X009118Y012872D01*
X009056Y012866D01*
X008993Y012864D01*
X008930Y012866D01*
X008868Y012872D01*
X008806Y012882D01*
X008744Y012895D01*
X008684Y012913D01*
X008625Y012934D01*
X008567Y012959D01*
X008511Y012988D01*
X008457Y013020D01*
X008405Y013055D01*
X008356Y013093D01*
X008308Y013135D01*
X008264Y013179D01*
X008222Y013227D01*
X008184Y013276D01*
X008149Y013328D01*
X008117Y013382D01*
X008088Y013438D01*
X008063Y013496D01*
X008042Y013555D01*
X008024Y013615D01*
X008011Y013677D01*
X008001Y013739D01*
X007995Y013801D01*
X007993Y013864D01*
X003603Y010544D02*
X003605Y010638D01*
X003612Y010732D01*
X003624Y010826D01*
X003640Y010919D01*
X003661Y011011D01*
X003686Y011101D01*
X003715Y011191D01*
X003749Y011279D01*
X003787Y011365D01*
X003830Y011449D01*
X003876Y011531D01*
X003927Y011611D01*
X003981Y011688D01*
X004039Y011762D01*
X004100Y011833D01*
X004165Y011902D01*
X004234Y011967D01*
X004305Y012028D01*
X004379Y012086D01*
X004456Y012140D01*
X004536Y012191D01*
X004618Y012237D01*
X004702Y012280D01*
X004788Y012318D01*
X004876Y012352D01*
X004966Y012381D01*
X005056Y012406D01*
X005148Y012427D01*
X005241Y012443D01*
X005335Y012455D01*
X005429Y012462D01*
X005523Y012464D01*
X005617Y012462D01*
X005711Y012455D01*
X005805Y012443D01*
X005898Y012427D01*
X005990Y012406D01*
X006080Y012381D01*
X006170Y012352D01*
X006258Y012318D01*
X006344Y012280D01*
X006428Y012237D01*
X006510Y012191D01*
X006590Y012140D01*
X006667Y012086D01*
X006741Y012028D01*
X006812Y011967D01*
X006881Y011902D01*
X006946Y011833D01*
X007007Y011762D01*
X007065Y011688D01*
X007119Y011611D01*
X007170Y011531D01*
X007216Y011449D01*
X007259Y011365D01*
X007297Y011279D01*
X007331Y011191D01*
X007360Y011101D01*
X007385Y011011D01*
X007406Y010919D01*
X007422Y010826D01*
X007434Y010732D01*
X007441Y010638D01*
X007443Y010544D01*
X007441Y010450D01*
X007434Y010356D01*
X007422Y010262D01*
X007406Y010169D01*
X007385Y010077D01*
X007360Y009987D01*
X007331Y009897D01*
X007297Y009809D01*
X007259Y009723D01*
X007216Y009639D01*
X007170Y009557D01*
X007119Y009477D01*
X007065Y009400D01*
X007007Y009326D01*
X006946Y009255D01*
X006881Y009186D01*
X006812Y009121D01*
X006741Y009060D01*
X006667Y009002D01*
X006590Y008948D01*
X006510Y008897D01*
X006428Y008851D01*
X006344Y008808D01*
X006258Y008770D01*
X006170Y008736D01*
X006080Y008707D01*
X005990Y008682D01*
X005898Y008661D01*
X005805Y008645D01*
X005711Y008633D01*
X005617Y008626D01*
X005523Y008624D01*
X005429Y008626D01*
X005335Y008633D01*
X005241Y008645D01*
X005148Y008661D01*
X005056Y008682D01*
X004966Y008707D01*
X004876Y008736D01*
X004788Y008770D01*
X004702Y008808D01*
X004618Y008851D01*
X004536Y008897D01*
X004456Y008948D01*
X004379Y009002D01*
X004305Y009060D01*
X004234Y009121D01*
X004165Y009186D01*
X004100Y009255D01*
X004039Y009326D01*
X003981Y009400D01*
X003927Y009477D01*
X003876Y009557D01*
X003830Y009639D01*
X003787Y009723D01*
X003749Y009809D01*
X003715Y009897D01*
X003686Y009987D01*
X003661Y010077D01*
X003640Y010169D01*
X003624Y010262D01*
X003612Y010356D01*
X003605Y010450D01*
X003603Y010544D01*
D15*
X001383Y018684D02*
X001383Y018831D01*
X001457Y018904D01*
X001530Y018831D01*
X001530Y018684D01*
X001530Y018794D02*
X001383Y018794D01*
X009533Y018684D02*
X009533Y018831D01*
X009607Y018904D01*
X009680Y018831D01*
X009680Y018684D01*
X009680Y018794D02*
X009533Y018794D01*
X008233Y018904D02*
X008233Y018684D01*
X008233Y018757D02*
X008380Y018904D01*
X008270Y018794D02*
X008380Y018684D01*
X002733Y018684D02*
X002733Y018904D01*
X002733Y018757D02*
X002880Y018904D01*
X002770Y018794D02*
X002880Y018684D01*
X004767Y014135D02*
X004769Y014162D01*
X004775Y014189D01*
X004784Y014215D01*
X004797Y014239D01*
X004813Y014262D01*
X004832Y014281D01*
X004854Y014298D01*
X004878Y014312D01*
X004903Y014322D01*
X004930Y014329D01*
X004957Y014332D01*
X004985Y014331D01*
X005012Y014326D01*
X005038Y014318D01*
X005062Y014306D01*
X005085Y014290D01*
X005106Y014272D01*
X005123Y014251D01*
X005138Y014227D01*
X005149Y014202D01*
X005157Y014176D01*
X005161Y014149D01*
X005161Y014121D01*
X005157Y014094D01*
X005149Y014068D01*
X005138Y014043D01*
X005123Y014019D01*
X005106Y013998D01*
X005085Y013980D01*
X005063Y013964D01*
X005038Y013952D01*
X005012Y013944D01*
X004985Y013939D01*
X004957Y013938D01*
X004930Y013941D01*
X004903Y013948D01*
X004878Y013958D01*
X004854Y013972D01*
X004832Y013989D01*
X004813Y014008D01*
X004797Y014031D01*
X004784Y014055D01*
X004775Y014081D01*
X004769Y014108D01*
X004767Y014135D01*
X002486Y006644D02*
X002486Y007804D01*
X003260Y007804D01*
X003260Y006644D01*
X002486Y006644D01*
X009503Y017287D02*
X008344Y017287D01*
X008344Y018061D01*
X009503Y018061D01*
X009503Y017287D01*
X001544Y018061D02*
X002703Y018061D01*
X002703Y017287D01*
X001544Y017287D01*
X001544Y018061D01*
X006786Y006644D02*
X006786Y007804D01*
X007560Y007804D01*
X007560Y006644D01*
X006786Y006644D01*
X003486Y006644D02*
X003486Y007804D01*
X004260Y007804D01*
X004260Y006644D01*
X003486Y006644D01*
X004160Y014454D02*
X004160Y013294D01*
X003386Y013294D01*
X003386Y014454D01*
X004160Y014454D01*
X008560Y007804D02*
X008560Y006644D01*
X007786Y006644D01*
X007786Y007804D01*
X008560Y007804D01*
X004160Y015854D02*
X004160Y014694D01*
X003386Y014694D01*
X003386Y015854D01*
X004160Y015854D01*
X007660Y014454D02*
X007660Y013294D01*
X006886Y013294D01*
X006886Y014454D01*
X007660Y014454D01*
X006886Y014694D02*
X006886Y015854D01*
X007660Y015854D01*
X007660Y014694D01*
X006886Y014694D01*
D16*
X004773Y015735D03*
X005273Y015735D03*
X005773Y015735D03*
X006273Y015735D03*
X006270Y013413D03*
X005770Y013413D03*
X005270Y013413D03*
X004773Y013413D03*
D17*
X002873Y007474D03*
X002873Y006974D03*
X007173Y007474D03*
X007173Y006974D03*
X003873Y007474D03*
X003873Y006974D03*
X003773Y015024D03*
X003773Y015524D03*
X007273Y015524D03*
X007273Y015024D03*
D18*
X008673Y017674D03*
X009173Y017674D03*
X002373Y017674D03*
X001873Y017674D03*
D19*
X003023Y018924D02*
X008023Y018924D01*
X008023Y018174D01*
X008023Y016424D01*
X003023Y016424D01*
X003023Y018174D01*
X003023Y018924D01*
X003023Y018174D02*
X008023Y018174D01*
D20*
X003775Y014105D03*
X003775Y013646D03*
X008175Y007455D03*
X008175Y006996D03*
X007275Y014105D03*
X007275Y013646D03*
D21*
X003944Y013734D02*
X003944Y014014D01*
X003609Y014014D02*
X003609Y013734D01*
X008344Y007364D02*
X008344Y007084D01*
X008009Y007084D02*
X008009Y007364D01*
X008746Y018666D02*
X009101Y018666D01*
X009101Y018981D02*
X008746Y018981D01*
X002301Y018981D02*
X001946Y018981D01*
X001946Y018666D02*
X002301Y018666D01*
X007444Y014014D02*
X007444Y013734D01*
X007109Y013734D02*
X007109Y014014D01*
D22*
X008668Y018824D03*
X009179Y018824D03*
X002379Y018824D03*
X001868Y018824D03*
D23*
X008864Y018676D03*
X008864Y018972D03*
X002183Y018972D03*
X002183Y018676D03*
D24*
X008864Y018824D03*
X002183Y018824D03*
D25*
X008391Y016107D03*
D26*
X008524Y015830D03*
X008524Y015574D03*
X008524Y015318D03*
X009223Y015318D03*
X009223Y015574D03*
X009223Y015830D03*
M02*
