G75*
G70*
%OFA0B0*%
%FSLAX24Y24*%
%IPPOS*%
%LPD*%
%AMOC8*
5,1,8,0,0,1.08239X$1,22.5*
%
%ADD10C,0.0030*%
%ADD11C,0.0040*%
%ADD12C,0.0050*%
%ADD13C,0.0500*%
%ADD14C,0.0591*%
%ADD15C,0.0787*%
%ADD16C,0.0600*%
%ADD17OC8,0.0600*%
%ADD18R,0.0394X0.0433*%
%ADD19R,0.0315X0.0315*%
%ADD20C,0.0080*%
%ADD21C,0.0160*%
%ADD22C,0.0396*%
%ADD23OC8,0.0900*%
D10*
X000461Y000689D02*
X000461Y000899D01*
X000391Y000899D02*
X000531Y000899D01*
X000612Y000864D02*
X000612Y000724D01*
X000647Y000689D01*
X000717Y000689D01*
X000752Y000724D01*
X000752Y000864D01*
X000717Y000899D01*
X000647Y000899D01*
X000612Y000864D01*
X000833Y000899D02*
X000833Y000689D01*
X000833Y000759D02*
X000938Y000759D01*
X000973Y000794D01*
X000973Y000864D01*
X000938Y000899D01*
X000833Y000899D01*
D11*
X000759Y020684D02*
X000759Y021144D01*
X000606Y020991D01*
X000606Y020684D02*
X000913Y020684D01*
D12*
X001725Y017129D02*
X001725Y016519D01*
X001928Y016519D02*
X001521Y016519D01*
X001521Y016926D02*
X001725Y017129D01*
D13*
X007526Y016664D03*
X004576Y007324D03*
D14*
X004576Y019229D02*
X004576Y019819D01*
X003576Y019819D02*
X003576Y019229D01*
X002576Y019229D02*
X002576Y019819D01*
X005576Y019819D02*
X005576Y019229D01*
X006576Y019229D02*
X006576Y019819D01*
D15*
X001106Y015824D03*
X008006Y000924D03*
D16*
X000826Y021804D03*
D17*
X000826Y022804D03*
X001826Y022804D03*
X001826Y021804D03*
X002826Y021804D03*
X002826Y022804D03*
X005306Y022824D03*
X005306Y021824D03*
X006306Y021824D03*
X006306Y022824D03*
X007306Y022824D03*
X007306Y021824D03*
X008306Y021824D03*
X008306Y022824D03*
D18*
X004186Y023109D03*
X004186Y023779D03*
X004161Y015384D03*
X004831Y015384D03*
D19*
X004801Y014154D03*
X004211Y014154D03*
D20*
X004176Y014174D01*
X004176Y015374D02*
X004161Y015384D01*
X004826Y015424D02*
X004831Y015384D01*
X007526Y016664D02*
X007526Y016674D01*
X007306Y021824D02*
X007276Y021824D01*
X007306Y022824D02*
X007276Y022824D01*
X007306Y022824D02*
X007326Y022824D01*
X008276Y021824D02*
X008306Y021824D01*
X005326Y021824D02*
X005306Y021824D01*
X002826Y022774D02*
X002826Y022804D01*
X001826Y021804D02*
X001826Y021774D01*
X000826Y022774D02*
X000826Y022804D01*
X000826Y022824D01*
D21*
X000826Y023654D01*
X004166Y023654D01*
X004186Y023779D01*
X004166Y023654D02*
X007376Y023654D01*
X007796Y023044D01*
X007796Y022614D01*
X007806Y022604D01*
X007806Y022594D01*
X008276Y021824D01*
X007786Y022114D02*
X007326Y022824D01*
X007276Y022824D02*
X006996Y023374D01*
X004866Y023374D01*
X004266Y021804D01*
X002826Y021804D01*
X001826Y021774D02*
X001826Y021144D01*
X003576Y020174D01*
X003576Y019524D01*
X003576Y017674D01*
X002583Y017664D02*
X002583Y017674D01*
X002576Y017674D01*
X002583Y017664D02*
X002576Y019524D01*
X001326Y020554D01*
X001326Y022264D01*
X000826Y022774D01*
X004166Y023009D02*
X004176Y022604D01*
X004166Y023009D02*
X004186Y023109D01*
X005326Y021824D02*
X005576Y021544D01*
X005576Y021424D01*
X005576Y019524D01*
X005576Y017674D01*
X004576Y017674D02*
X004576Y019524D01*
X006566Y019524D02*
X006576Y019524D01*
X006576Y017704D01*
X007276Y017424D02*
X006766Y016934D01*
X006766Y015924D01*
X006766Y009714D01*
X004576Y007324D01*
X004801Y014154D02*
X005206Y014154D01*
X005306Y014164D01*
X004826Y015424D02*
X004826Y015804D01*
X002586Y017004D01*
X002583Y017664D01*
X004176Y015374D02*
X004176Y014174D01*
X007276Y017424D02*
X007276Y021824D01*
X007786Y022114D02*
X007776Y016924D01*
X007526Y016674D01*
D22*
X005306Y014164D03*
X004176Y022604D03*
D23*
X004576Y017674D03*
X003576Y017674D03*
X002576Y017674D03*
X005576Y017674D03*
X006576Y017674D03*
X007526Y016664D03*
X004576Y007324D03*
M02*
