G75*
G70*
%OFA0B0*%
%FSLAX24Y24*%
%IPPOS*%
%LPD*%
%AMOC8*
5,1,8,0,0,1.08239X$1,22.5*
%
%ADD10C,0.0030*%
%ADD11C,0.0591*%
%ADD12C,0.0600*%
%ADD13OC8,0.0600*%
%ADD14C,0.0160*%
%ADD15C,0.0080*%
%ADD16C,0.0396*%
%ADD17OC8,0.0900*%
D10*
X000449Y000389D02*
X000449Y000599D01*
X000519Y000599D02*
X000379Y000599D01*
X000600Y000564D02*
X000600Y000424D01*
X000635Y000389D01*
X000705Y000389D01*
X000740Y000424D01*
X000740Y000564D01*
X000705Y000599D01*
X000635Y000599D01*
X000600Y000564D01*
X000821Y000564D02*
X000821Y000529D01*
X000856Y000494D01*
X000961Y000494D01*
X000856Y000494D02*
X000821Y000459D01*
X000821Y000424D01*
X000856Y000389D01*
X000961Y000389D01*
X000961Y000599D01*
X000856Y000599D01*
X000821Y000564D01*
D11*
X002576Y019229D02*
X002576Y019819D01*
X003576Y019819D02*
X003576Y019229D01*
X004576Y019229D02*
X004576Y019819D01*
X005576Y019819D02*
X005576Y019229D01*
X006576Y019229D02*
X006576Y019819D01*
D12*
X000826Y021804D03*
D13*
X000826Y022804D03*
X001826Y022804D03*
X001826Y021804D03*
X002826Y021804D03*
X002826Y022804D03*
X005306Y022824D03*
X005306Y021824D03*
X006306Y021824D03*
X006306Y022824D03*
X007306Y022824D03*
X007306Y021824D03*
X008306Y021824D03*
X008306Y022824D03*
D14*
X008286Y022844D02*
X008286Y022804D01*
X007826Y022804D01*
X007826Y022625D01*
X008107Y022344D01*
X008286Y022344D01*
X008286Y022804D01*
X008326Y022804D01*
X008326Y022344D01*
X008505Y022344D01*
X008761Y022600D01*
X008761Y022034D01*
X008501Y022294D01*
X008111Y022294D01*
X007836Y022019D01*
X007836Y021629D01*
X008111Y021354D01*
X008501Y021354D01*
X008761Y021614D01*
X008761Y014176D01*
X008707Y014306D01*
X008488Y014525D01*
X008201Y014644D01*
X007891Y014644D01*
X007604Y014525D01*
X007385Y014306D01*
X007266Y014019D01*
X007266Y013709D01*
X007385Y013422D01*
X007604Y013203D01*
X007891Y013084D01*
X008201Y013084D01*
X008488Y013203D01*
X008707Y013422D01*
X008761Y013552D01*
X008761Y003006D01*
X008718Y003110D01*
X008482Y003346D01*
X008173Y003474D01*
X007839Y003474D01*
X007530Y003346D01*
X007294Y003110D01*
X007166Y002801D01*
X007166Y002467D01*
X007294Y002158D01*
X007530Y001922D01*
X007839Y001794D01*
X008173Y001794D01*
X008482Y001922D01*
X008718Y002158D01*
X008761Y002262D01*
X008761Y000399D01*
X001146Y000399D01*
X001146Y000417D01*
X001146Y000571D01*
X001146Y000676D01*
X001038Y000784D01*
X000933Y000784D01*
X000782Y000784D01*
X000712Y000784D01*
X000700Y000784D01*
X000629Y000784D01*
X000596Y000784D01*
X000391Y000784D01*
X000391Y002262D01*
X000434Y002158D01*
X000670Y001922D01*
X000979Y001794D01*
X001313Y001794D01*
X001622Y001922D01*
X001858Y002158D01*
X001986Y002467D01*
X001986Y002801D01*
X001858Y003110D01*
X001622Y003346D01*
X001313Y003474D01*
X000979Y003474D01*
X000670Y003346D01*
X000434Y003110D01*
X000391Y003006D01*
X000391Y013552D01*
X000445Y013422D01*
X000664Y013203D01*
X000951Y013084D01*
X001261Y013084D01*
X001548Y013203D01*
X001767Y013422D01*
X001886Y013709D01*
X001886Y014019D01*
X001767Y014306D01*
X001548Y014525D01*
X001261Y014644D01*
X000951Y014644D01*
X000664Y014525D01*
X000445Y014306D01*
X000391Y014176D01*
X000391Y021626D01*
X000428Y021538D01*
X000560Y021405D01*
X000733Y021334D01*
X000869Y021334D01*
X001106Y021097D01*
X001229Y020974D01*
X001239Y020974D01*
X001239Y020974D01*
X001316Y020974D01*
X001413Y020974D01*
X001413Y020974D01*
X004360Y020979D01*
X004357Y020232D01*
X004312Y020214D01*
X004182Y020083D01*
X004111Y019912D01*
X004111Y019136D01*
X004182Y018965D01*
X004312Y018834D01*
X004483Y018763D01*
X004669Y018763D01*
X004840Y018834D01*
X004970Y018965D01*
X005041Y019136D01*
X005041Y019912D01*
X004970Y020083D01*
X004840Y020214D01*
X004777Y020240D01*
X004780Y020974D01*
X006863Y020974D01*
X006986Y021097D01*
X006986Y021271D01*
X006986Y021479D01*
X007111Y021354D01*
X007501Y021354D01*
X007776Y021629D01*
X007776Y022019D01*
X007501Y022294D01*
X007111Y022294D01*
X006932Y022115D01*
X006863Y022184D01*
X006597Y022450D01*
X006776Y022629D01*
X006776Y023019D01*
X006501Y023294D01*
X006111Y023294D01*
X005836Y023019D01*
X005836Y022629D01*
X005981Y022484D01*
X005963Y022484D01*
X005776Y022671D01*
X005776Y023019D01*
X005501Y023294D01*
X005111Y023294D01*
X004836Y023019D01*
X004836Y022629D01*
X004981Y022484D01*
X003185Y022484D01*
X003306Y022605D01*
X003306Y022784D01*
X002846Y022784D01*
X002846Y022824D01*
X002806Y022824D01*
X002806Y023284D01*
X002627Y023284D01*
X002346Y023003D01*
X002346Y022824D01*
X002806Y022824D01*
X002806Y022784D01*
X002346Y022784D01*
X002346Y022605D01*
X002467Y022484D01*
X002363Y022484D01*
X002189Y022484D01*
X001979Y022274D01*
X001631Y022274D01*
X001536Y022179D01*
X001536Y022187D01*
X001683Y022334D01*
X002021Y022334D01*
X002296Y022609D01*
X002296Y022999D01*
X002021Y023274D01*
X001631Y023274D01*
X001356Y022999D01*
X001356Y022609D01*
X001360Y022605D01*
X001239Y022484D01*
X001116Y022361D01*
X001116Y022179D01*
X001092Y022202D01*
X000920Y022274D01*
X000733Y022274D01*
X000560Y022202D01*
X000428Y022070D01*
X000391Y021982D01*
X000391Y022574D01*
X000631Y022334D01*
X001021Y022334D01*
X001296Y022609D01*
X001296Y022999D01*
X001021Y023274D01*
X000631Y023274D01*
X000391Y023034D01*
X000391Y023939D01*
X008761Y023939D01*
X008761Y023048D01*
X008505Y023304D01*
X008326Y023304D01*
X008326Y022844D01*
X008286Y022844D01*
X008286Y023304D01*
X008107Y023304D01*
X007826Y023023D01*
X007826Y022844D01*
X008286Y022844D01*
X008286Y022847D02*
X008326Y022847D01*
X008326Y023005D02*
X008286Y023005D01*
X008286Y023164D02*
X008326Y023164D01*
X008645Y023164D02*
X008761Y023164D01*
X008761Y023323D02*
X000391Y023323D01*
X000391Y023481D02*
X008761Y023481D01*
X008761Y023640D02*
X000391Y023640D01*
X000391Y023798D02*
X008761Y023798D01*
X008326Y022688D02*
X008286Y022688D01*
X008286Y022530D02*
X008326Y022530D01*
X008326Y022371D02*
X008286Y022371D01*
X008080Y022371D02*
X007518Y022371D01*
X007501Y022354D02*
X007776Y022629D01*
X007776Y023019D01*
X007501Y023294D01*
X007111Y023294D01*
X006836Y023019D01*
X006836Y022629D01*
X007111Y022354D01*
X007501Y022354D01*
X007582Y022213D02*
X008030Y022213D01*
X007872Y022054D02*
X007740Y022054D01*
X007776Y021896D02*
X007836Y021896D01*
X007836Y021737D02*
X007776Y021737D01*
X007725Y021579D02*
X007887Y021579D01*
X008045Y021420D02*
X007567Y021420D01*
X007045Y021420D02*
X006986Y021420D01*
X006986Y021261D02*
X008761Y021261D01*
X008761Y021103D02*
X006986Y021103D01*
X006687Y020283D02*
X006613Y020294D01*
X006594Y020294D01*
X006594Y019543D01*
X006558Y019543D01*
X006558Y020294D01*
X006539Y020294D01*
X006465Y020283D01*
X006394Y020260D01*
X006327Y020226D01*
X006266Y020182D01*
X006214Y020129D01*
X006170Y020068D01*
X006136Y020002D01*
X006112Y019931D01*
X006101Y019857D01*
X006101Y019542D01*
X006557Y019542D01*
X006557Y019505D01*
X006101Y019505D01*
X006101Y019191D01*
X006112Y019117D01*
X006136Y019046D01*
X006170Y018980D01*
X006214Y018919D01*
X006266Y018866D01*
X006327Y018822D01*
X006394Y018788D01*
X006465Y018765D01*
X006539Y018753D01*
X006558Y018753D01*
X006558Y019505D01*
X006594Y019505D01*
X006594Y018753D01*
X006613Y018753D01*
X006687Y018765D01*
X006759Y018788D01*
X006825Y018822D01*
X006886Y018866D01*
X006939Y018919D01*
X006983Y018980D01*
X007016Y019046D01*
X007040Y019117D01*
X007051Y019191D01*
X007051Y019505D01*
X006595Y019505D01*
X006595Y019542D01*
X007051Y019542D01*
X007051Y019857D01*
X007040Y019931D01*
X007016Y020002D01*
X006983Y020068D01*
X006939Y020129D01*
X006886Y020182D01*
X006825Y020226D01*
X006759Y020260D01*
X006687Y020283D01*
X006594Y020152D02*
X006558Y020152D01*
X006558Y019993D02*
X006594Y019993D01*
X006594Y019835D02*
X006558Y019835D01*
X006558Y019676D02*
X006594Y019676D01*
X006595Y019517D02*
X008761Y019517D01*
X008761Y019359D02*
X007051Y019359D01*
X007051Y019200D02*
X008761Y019200D01*
X008761Y019042D02*
X007014Y019042D01*
X006903Y018883D02*
X008761Y018883D01*
X008761Y018725D02*
X000391Y018725D01*
X000391Y018883D02*
X002263Y018883D01*
X002312Y018834D02*
X002483Y018763D01*
X002669Y018763D01*
X002840Y018834D01*
X002970Y018965D01*
X003041Y019136D01*
X003041Y019912D01*
X002970Y020083D01*
X002840Y020214D01*
X002669Y020284D01*
X002483Y020284D01*
X002312Y020214D01*
X002182Y020083D01*
X002111Y019912D01*
X002111Y019136D01*
X002182Y018965D01*
X002312Y018834D01*
X002150Y019042D02*
X000391Y019042D01*
X000391Y019200D02*
X002111Y019200D01*
X002111Y019359D02*
X000391Y019359D01*
X000391Y019517D02*
X002111Y019517D01*
X002111Y019676D02*
X000391Y019676D01*
X000391Y019835D02*
X002111Y019835D01*
X002144Y019993D02*
X000391Y019993D01*
X000391Y020152D02*
X002251Y020152D01*
X002902Y020152D02*
X003251Y020152D01*
X003312Y020214D02*
X003182Y020083D01*
X003111Y019912D01*
X003111Y019136D01*
X003182Y018965D01*
X003312Y018834D01*
X003483Y018763D01*
X003669Y018763D01*
X003840Y018834D01*
X003970Y018965D01*
X004041Y019136D01*
X004041Y019912D01*
X003970Y020083D01*
X003840Y020214D01*
X003669Y020284D01*
X003483Y020284D01*
X003312Y020214D01*
X003144Y019993D02*
X003008Y019993D01*
X003041Y019835D02*
X003111Y019835D01*
X003111Y019676D02*
X003041Y019676D01*
X003041Y019517D02*
X003111Y019517D01*
X003111Y019359D02*
X003041Y019359D01*
X003041Y019200D02*
X003111Y019200D01*
X003150Y019042D02*
X003002Y019042D01*
X002889Y018883D02*
X003263Y018883D01*
X003319Y018294D02*
X003076Y018051D01*
X002833Y018294D01*
X002319Y018294D01*
X001956Y017931D01*
X001956Y017417D01*
X002319Y017054D01*
X002833Y017054D01*
X003076Y017297D01*
X003319Y017054D01*
X003833Y017054D01*
X004076Y017297D01*
X004319Y017054D01*
X004833Y017054D01*
X005076Y017297D01*
X005319Y017054D01*
X005833Y017054D01*
X006196Y017417D01*
X006196Y017931D01*
X005833Y018294D01*
X005319Y018294D01*
X005076Y018051D01*
X004833Y018294D01*
X004319Y018294D01*
X004076Y018051D01*
X003833Y018294D01*
X003319Y018294D01*
X003274Y018249D02*
X002878Y018249D01*
X003036Y018091D02*
X003116Y018091D01*
X003234Y017139D02*
X002918Y017139D01*
X002234Y017139D02*
X000391Y017139D01*
X000391Y016981D02*
X006966Y016981D01*
X006906Y016921D02*
X006906Y016407D01*
X007269Y016044D01*
X007783Y016044D01*
X008146Y016407D01*
X008146Y016921D01*
X007783Y017284D01*
X007269Y017284D01*
X006906Y016921D01*
X006906Y016822D02*
X000391Y016822D01*
X000391Y016664D02*
X006906Y016664D01*
X006906Y016505D02*
X000391Y016505D01*
X000391Y016347D02*
X006967Y016347D01*
X007125Y016188D02*
X000391Y016188D01*
X000391Y016030D02*
X008761Y016030D01*
X008761Y016188D02*
X007927Y016188D01*
X008086Y016347D02*
X008761Y016347D01*
X008761Y016505D02*
X008146Y016505D01*
X008146Y016664D02*
X008761Y016664D01*
X008761Y016822D02*
X008146Y016822D01*
X008086Y016981D02*
X008761Y016981D01*
X008761Y017139D02*
X007927Y017139D01*
X007125Y017139D02*
X005918Y017139D01*
X006077Y017298D02*
X008761Y017298D01*
X008761Y017456D02*
X006196Y017456D01*
X006196Y017615D02*
X008761Y017615D01*
X008761Y017774D02*
X006196Y017774D01*
X006195Y017932D02*
X008761Y017932D01*
X008761Y018091D02*
X006036Y018091D01*
X005878Y018249D02*
X008761Y018249D01*
X008761Y018408D02*
X000391Y018408D01*
X000391Y018566D02*
X008761Y018566D01*
X008761Y019676D02*
X007051Y019676D01*
X007051Y019835D02*
X008761Y019835D01*
X008761Y019993D02*
X007019Y019993D01*
X006916Y020152D02*
X008761Y020152D01*
X008761Y020310D02*
X004777Y020310D01*
X004778Y020469D02*
X008761Y020469D01*
X008761Y020627D02*
X004779Y020627D01*
X004779Y020786D02*
X008761Y020786D01*
X008761Y020944D02*
X004780Y020944D01*
X004360Y020944D02*
X000391Y020944D01*
X000391Y020786D02*
X004359Y020786D01*
X004359Y020627D02*
X000391Y020627D01*
X000391Y020469D02*
X004358Y020469D01*
X004357Y020310D02*
X000391Y020310D01*
X000391Y021103D02*
X001100Y021103D01*
X001106Y021097D02*
X001106Y021097D01*
X000942Y021261D02*
X000391Y021261D01*
X000391Y021420D02*
X000545Y021420D01*
X000411Y021579D02*
X000391Y021579D01*
X000391Y022054D02*
X000421Y022054D01*
X000391Y022213D02*
X000585Y022213D01*
X000594Y022371D02*
X000391Y022371D01*
X000391Y022530D02*
X000436Y022530D01*
X000391Y023164D02*
X000521Y023164D01*
X001131Y023164D02*
X001521Y023164D01*
X001363Y023005D02*
X001289Y023005D01*
X001296Y022847D02*
X001356Y022847D01*
X001356Y022688D02*
X001296Y022688D01*
X001285Y022530D02*
X001217Y022530D01*
X001126Y022371D02*
X001058Y022371D01*
X001067Y022213D02*
X001116Y022213D01*
X001562Y022213D02*
X001570Y022213D01*
X002058Y022371D02*
X002076Y022371D01*
X002217Y022530D02*
X002421Y022530D01*
X002346Y022688D02*
X002296Y022688D01*
X002296Y022847D02*
X002346Y022847D01*
X002349Y023005D02*
X002289Y023005D01*
X002131Y023164D02*
X002507Y023164D01*
X002806Y023164D02*
X002846Y023164D01*
X002846Y023284D02*
X002846Y022824D01*
X003306Y022824D01*
X003306Y023003D01*
X003025Y023284D01*
X002846Y023284D01*
X002846Y023005D02*
X002806Y023005D01*
X002806Y022847D02*
X002846Y022847D01*
X003145Y023164D02*
X004981Y023164D01*
X004836Y023005D02*
X003303Y023005D01*
X003306Y022847D02*
X004836Y022847D01*
X004836Y022688D02*
X003306Y022688D01*
X003231Y022530D02*
X004936Y022530D01*
X005631Y023164D02*
X005981Y023164D01*
X005836Y023005D02*
X005776Y023005D01*
X005776Y022847D02*
X005836Y022847D01*
X005836Y022688D02*
X005776Y022688D01*
X005917Y022530D02*
X005936Y022530D01*
X006677Y022530D02*
X006936Y022530D01*
X006836Y022688D02*
X006776Y022688D01*
X006776Y022847D02*
X006836Y022847D01*
X006836Y023005D02*
X006776Y023005D01*
X006631Y023164D02*
X006981Y023164D01*
X007631Y023164D02*
X007967Y023164D01*
X007826Y023005D02*
X007776Y023005D01*
X007776Y022847D02*
X007826Y022847D01*
X007826Y022688D02*
X007776Y022688D01*
X007677Y022530D02*
X007921Y022530D01*
X008532Y022371D02*
X008761Y022371D01*
X008761Y022213D02*
X008582Y022213D01*
X008740Y022054D02*
X008761Y022054D01*
X008761Y021579D02*
X008725Y021579D01*
X008761Y021420D02*
X008567Y021420D01*
X008691Y022530D02*
X008761Y022530D01*
X007094Y022371D02*
X006676Y022371D01*
X006834Y022213D02*
X007030Y022213D01*
X005840Y020214D02*
X005669Y020284D01*
X005483Y020284D01*
X005312Y020214D01*
X005182Y020083D01*
X005111Y019912D01*
X005111Y019136D01*
X005182Y018965D01*
X005312Y018834D01*
X005483Y018763D01*
X005669Y018763D01*
X005840Y018834D01*
X005970Y018965D01*
X006041Y019136D01*
X006041Y019912D01*
X005970Y020083D01*
X005840Y020214D01*
X005902Y020152D02*
X006236Y020152D01*
X006133Y019993D02*
X006008Y019993D01*
X006041Y019835D02*
X006101Y019835D01*
X006101Y019676D02*
X006041Y019676D01*
X006041Y019517D02*
X006557Y019517D01*
X006558Y019359D02*
X006594Y019359D01*
X006594Y019200D02*
X006558Y019200D01*
X006558Y019042D02*
X006594Y019042D01*
X006594Y018883D02*
X006558Y018883D01*
X006249Y018883D02*
X005889Y018883D01*
X006002Y019042D02*
X006138Y019042D01*
X006101Y019200D02*
X006041Y019200D01*
X006041Y019359D02*
X006101Y019359D01*
X005263Y018883D02*
X004889Y018883D01*
X005002Y019042D02*
X005150Y019042D01*
X005111Y019200D02*
X005041Y019200D01*
X005041Y019359D02*
X005111Y019359D01*
X005111Y019517D02*
X005041Y019517D01*
X005041Y019676D02*
X005111Y019676D01*
X005111Y019835D02*
X005041Y019835D01*
X005008Y019993D02*
X005144Y019993D01*
X005251Y020152D02*
X004902Y020152D01*
X004251Y020152D02*
X003902Y020152D01*
X004008Y019993D02*
X004144Y019993D01*
X004111Y019835D02*
X004041Y019835D01*
X004041Y019676D02*
X004111Y019676D01*
X004111Y019517D02*
X004041Y019517D01*
X004041Y019359D02*
X004111Y019359D01*
X004111Y019200D02*
X004041Y019200D01*
X004002Y019042D02*
X004150Y019042D01*
X004263Y018883D02*
X003889Y018883D01*
X003878Y018249D02*
X004275Y018249D01*
X004116Y018091D02*
X004036Y018091D01*
X003918Y017139D02*
X004234Y017139D01*
X004918Y017139D02*
X005234Y017139D01*
X005116Y018091D02*
X005036Y018091D01*
X004878Y018249D02*
X005274Y018249D01*
X007523Y014444D02*
X001629Y014444D01*
X001776Y014286D02*
X007376Y014286D01*
X007311Y014127D02*
X001841Y014127D01*
X001886Y013968D02*
X007266Y013968D01*
X007266Y013810D02*
X001886Y013810D01*
X001862Y013651D02*
X007290Y013651D01*
X007355Y013493D02*
X001797Y013493D01*
X001679Y013334D02*
X007473Y013334D01*
X007669Y013176D02*
X001483Y013176D01*
X000729Y013176D02*
X000391Y013176D01*
X000391Y013334D02*
X000533Y013334D01*
X000415Y013493D02*
X000391Y013493D01*
X000391Y013017D02*
X008761Y013017D01*
X008761Y012859D02*
X000391Y012859D01*
X000391Y012700D02*
X008761Y012700D01*
X008761Y012542D02*
X000391Y012542D01*
X000391Y012383D02*
X008761Y012383D01*
X008761Y012224D02*
X000391Y012224D01*
X000391Y012066D02*
X008761Y012066D01*
X008761Y011907D02*
X000391Y011907D01*
X000391Y011749D02*
X008761Y011749D01*
X008761Y011590D02*
X000391Y011590D01*
X000391Y011432D02*
X008761Y011432D01*
X008761Y011273D02*
X000391Y011273D01*
X000391Y011115D02*
X008761Y011115D01*
X008761Y010956D02*
X000391Y010956D01*
X000391Y010798D02*
X008761Y010798D01*
X008761Y010639D02*
X000391Y010639D01*
X000391Y010481D02*
X008761Y010481D01*
X008761Y010322D02*
X000391Y010322D01*
X000391Y010163D02*
X008761Y010163D01*
X008761Y010005D02*
X000391Y010005D01*
X000391Y009846D02*
X008761Y009846D01*
X008761Y009688D02*
X000391Y009688D01*
X000391Y009529D02*
X008761Y009529D01*
X008761Y009371D02*
X000391Y009371D01*
X000391Y009212D02*
X008761Y009212D01*
X008761Y009054D02*
X000391Y009054D01*
X000391Y008895D02*
X008761Y008895D01*
X008761Y008737D02*
X000391Y008737D01*
X000391Y008578D02*
X008761Y008578D01*
X008761Y008419D02*
X000391Y008419D01*
X000391Y008261D02*
X008761Y008261D01*
X008761Y008102D02*
X000391Y008102D01*
X000391Y007944D02*
X004319Y007944D01*
X003956Y007581D01*
X003956Y007067D01*
X004294Y006729D01*
X004172Y006678D01*
X003972Y006478D01*
X003863Y006216D01*
X003863Y005932D01*
X003972Y005670D01*
X004172Y005469D01*
X004434Y005361D01*
X004718Y005361D01*
X004980Y005469D01*
X005181Y005670D01*
X005289Y005932D01*
X005289Y006216D01*
X005181Y006478D01*
X004980Y006678D01*
X004858Y006729D01*
X005196Y007067D01*
X005196Y007581D01*
X004833Y007944D01*
X008761Y007944D01*
X008761Y007785D02*
X004991Y007785D01*
X004833Y007944D02*
X004319Y007944D01*
X004161Y007785D02*
X000391Y007785D01*
X000391Y007627D02*
X004002Y007627D01*
X003956Y007468D02*
X000391Y007468D01*
X000391Y007310D02*
X003956Y007310D01*
X003956Y007151D02*
X000391Y007151D01*
X000391Y006993D02*
X004031Y006993D01*
X004189Y006834D02*
X000391Y006834D01*
X000391Y006675D02*
X004169Y006675D01*
X004011Y006517D02*
X000391Y006517D01*
X000391Y006358D02*
X003922Y006358D01*
X003863Y006200D02*
X000391Y006200D01*
X000391Y006041D02*
X003863Y006041D01*
X003883Y005883D02*
X000391Y005883D01*
X000391Y005724D02*
X003949Y005724D01*
X004076Y005566D02*
X000391Y005566D01*
X000391Y005407D02*
X004322Y005407D01*
X004830Y005407D02*
X008761Y005407D01*
X008761Y005249D02*
X000391Y005249D01*
X000391Y005090D02*
X008761Y005090D01*
X008761Y004931D02*
X000391Y004931D01*
X000391Y004773D02*
X008761Y004773D01*
X008761Y004614D02*
X000391Y004614D01*
X000391Y004456D02*
X008761Y004456D01*
X008761Y004297D02*
X000391Y004297D01*
X000391Y004139D02*
X008761Y004139D01*
X008761Y003980D02*
X000391Y003980D01*
X000391Y003822D02*
X008761Y003822D01*
X008761Y003663D02*
X000391Y003663D01*
X000391Y003505D02*
X008761Y003505D01*
X008761Y003346D02*
X008482Y003346D01*
X008640Y003188D02*
X008761Y003188D01*
X008752Y003029D02*
X008761Y003029D01*
X008750Y002236D02*
X008761Y002236D01*
X008761Y002078D02*
X008638Y002078D01*
X008761Y001919D02*
X008475Y001919D01*
X008761Y001761D02*
X000391Y001761D01*
X000391Y001919D02*
X000677Y001919D01*
X000514Y002078D02*
X000391Y002078D01*
X000391Y002236D02*
X000402Y002236D01*
X000391Y001602D02*
X008761Y001602D01*
X008761Y001444D02*
X000391Y001444D01*
X000391Y001285D02*
X008761Y001285D01*
X008761Y001126D02*
X000391Y001126D01*
X000391Y000968D02*
X008761Y000968D01*
X008761Y000809D02*
X000391Y000809D01*
X000629Y000784D02*
X000629Y000784D01*
X001146Y000651D02*
X008761Y000651D01*
X008761Y000492D02*
X001146Y000492D01*
X001615Y001919D02*
X007537Y001919D01*
X007374Y002078D02*
X001778Y002078D01*
X001891Y002236D02*
X007262Y002236D01*
X007196Y002395D02*
X001956Y002395D01*
X001986Y002553D02*
X007166Y002553D01*
X007166Y002712D02*
X001986Y002712D01*
X001957Y002870D02*
X007195Y002870D01*
X007261Y003029D02*
X001892Y003029D01*
X001780Y003188D02*
X007372Y003188D01*
X007530Y003346D02*
X001622Y003346D01*
X000670Y003346D02*
X000391Y003346D01*
X000391Y003188D02*
X000512Y003188D01*
X000401Y003029D02*
X000391Y003029D01*
X004983Y006675D02*
X008761Y006675D01*
X008761Y006517D02*
X005141Y006517D01*
X005230Y006358D02*
X008761Y006358D01*
X008761Y006200D02*
X005289Y006200D01*
X005289Y006041D02*
X008761Y006041D01*
X008761Y005883D02*
X005269Y005883D01*
X005203Y005724D02*
X008761Y005724D01*
X008761Y005566D02*
X005076Y005566D01*
X004963Y006834D02*
X008761Y006834D01*
X008761Y006993D02*
X005121Y006993D01*
X005196Y007151D02*
X008761Y007151D01*
X008761Y007310D02*
X005196Y007310D01*
X005196Y007468D02*
X008761Y007468D01*
X008761Y007627D02*
X005150Y007627D01*
X008423Y013176D02*
X008761Y013176D01*
X008761Y013334D02*
X008619Y013334D01*
X008737Y013493D02*
X008761Y013493D01*
X008761Y014286D02*
X008716Y014286D01*
X008761Y014444D02*
X008569Y014444D01*
X008761Y014603D02*
X008301Y014603D01*
X008761Y014761D02*
X000391Y014761D01*
X000391Y014603D02*
X000851Y014603D01*
X000583Y014444D02*
X000391Y014444D01*
X000391Y014286D02*
X000436Y014286D01*
X000391Y014920D02*
X008761Y014920D01*
X008761Y015078D02*
X000391Y015078D01*
X000391Y015237D02*
X008761Y015237D01*
X008761Y015395D02*
X000391Y015395D01*
X000391Y015554D02*
X008761Y015554D01*
X008761Y015712D02*
X000391Y015712D01*
X000391Y015871D02*
X008761Y015871D01*
X007791Y014603D02*
X001361Y014603D01*
X002075Y017298D02*
X000391Y017298D01*
X000391Y017456D02*
X001956Y017456D01*
X001956Y017615D02*
X000391Y017615D01*
X000391Y017774D02*
X001956Y017774D01*
X001957Y017932D02*
X000391Y017932D01*
X000391Y018091D02*
X002116Y018091D01*
X002274Y018249D02*
X000391Y018249D01*
D15*
X001316Y021184D02*
X000826Y021674D01*
X000826Y021774D01*
X000826Y021804D01*
X001326Y021424D02*
X001436Y021374D01*
X004826Y021374D01*
X005276Y021824D01*
X005306Y021824D01*
X005676Y022074D02*
X005476Y022274D01*
X002276Y022274D01*
X001826Y021824D01*
X001826Y021804D01*
X001326Y021424D02*
X001326Y022274D01*
X001826Y022774D01*
X001826Y022804D01*
X001326Y021184D02*
X001316Y021184D01*
X001326Y021184D02*
X004571Y021189D01*
X004566Y021184D01*
X006776Y021184D01*
X006776Y021974D01*
X006476Y022274D01*
X005876Y022274D01*
X005326Y022824D01*
X005306Y022824D01*
X005676Y022074D02*
X006026Y022074D01*
X006276Y021824D01*
X006306Y021824D01*
X004571Y021189D02*
X004566Y020044D01*
X004576Y019524D01*
X008306Y022824D02*
X008326Y022824D01*
X008796Y022324D01*
X008786Y019684D01*
X008781Y019634D01*
D16*
X005306Y014164D03*
X004176Y022604D03*
D17*
X004576Y017674D03*
X003576Y017674D03*
X002576Y017674D03*
X005576Y017674D03*
X006576Y017674D03*
X007526Y016664D03*
X004576Y007324D03*
M02*
