G75*
G70*
%OFA0B0*%
%FSLAX24Y24*%
%IPPOS*%
%LPD*%
%AMOC8*
5,1,8,0,0,1.08239X$1,22.5*
%
%ADD10C,0.0050*%
%ADD11C,0.0060*%
%ADD12C,0.0080*%
%ADD13C,0.0000*%
%ADD14C,0.0010*%
%ADD15C,0.0020*%
%ADD16C,0.0040*%
%ADD17C,0.0100*%
%ADD18R,0.0200X0.0200*%
%ADD19R,0.0160X0.0340*%
%ADD20R,0.0374X0.0197*%
%ADD21R,0.0157X0.0354*%
%ADD22R,0.0118X0.0059*%
%ADD23R,0.0118X0.0118*%
D10*
X002576Y010544D02*
X002578Y010642D01*
X002586Y010740D01*
X002598Y010837D01*
X002614Y010934D01*
X002636Y011030D01*
X002662Y011125D01*
X002693Y011218D01*
X002728Y011309D01*
X002768Y011399D01*
X002812Y011487D01*
X002861Y011572D01*
X002913Y011655D01*
X002970Y011735D01*
X003030Y011813D01*
X003094Y011887D01*
X003162Y011958D01*
X003233Y012026D01*
X003307Y012090D01*
X003385Y012150D01*
X003465Y012207D01*
X003548Y012259D01*
X003633Y012308D01*
X003721Y012352D01*
X003811Y012392D01*
X003902Y012427D01*
X003995Y012458D01*
X004090Y012484D01*
X004186Y012506D01*
X004283Y012522D01*
X004380Y012534D01*
X004478Y012542D01*
X004576Y012544D01*
X004674Y012542D01*
X004772Y012534D01*
X004869Y012522D01*
X004966Y012506D01*
X005062Y012484D01*
X005157Y012458D01*
X005250Y012427D01*
X005341Y012392D01*
X005431Y012352D01*
X005519Y012308D01*
X005604Y012259D01*
X005687Y012207D01*
X005767Y012150D01*
X005845Y012090D01*
X005919Y012026D01*
X005990Y011958D01*
X006058Y011887D01*
X006122Y011813D01*
X006182Y011735D01*
X006239Y011655D01*
X006291Y011572D01*
X006340Y011487D01*
X006384Y011399D01*
X006424Y011309D01*
X006459Y011218D01*
X006490Y011125D01*
X006516Y011030D01*
X006538Y010934D01*
X006554Y010837D01*
X006566Y010740D01*
X006574Y010642D01*
X006576Y010544D01*
X006574Y010446D01*
X006566Y010348D01*
X006554Y010251D01*
X006538Y010154D01*
X006516Y010058D01*
X006490Y009963D01*
X006459Y009870D01*
X006424Y009779D01*
X006384Y009689D01*
X006340Y009601D01*
X006291Y009516D01*
X006239Y009433D01*
X006182Y009353D01*
X006122Y009275D01*
X006058Y009201D01*
X005990Y009130D01*
X005919Y009062D01*
X005845Y008998D01*
X005767Y008938D01*
X005687Y008881D01*
X005604Y008829D01*
X005519Y008780D01*
X005431Y008736D01*
X005341Y008696D01*
X005250Y008661D01*
X005157Y008630D01*
X005062Y008604D01*
X004966Y008582D01*
X004869Y008566D01*
X004772Y008554D01*
X004674Y008546D01*
X004576Y008544D01*
X004478Y008546D01*
X004380Y008554D01*
X004283Y008566D01*
X004186Y008582D01*
X004090Y008604D01*
X003995Y008630D01*
X003902Y008661D01*
X003811Y008696D01*
X003721Y008736D01*
X003633Y008780D01*
X003548Y008829D01*
X003465Y008881D01*
X003385Y008938D01*
X003307Y008998D01*
X003233Y009062D01*
X003162Y009130D01*
X003094Y009201D01*
X003030Y009275D01*
X002970Y009353D01*
X002913Y009433D01*
X002861Y009516D01*
X002812Y009601D01*
X002768Y009689D01*
X002728Y009779D01*
X002693Y009870D01*
X002662Y009963D01*
X002636Y010058D01*
X002614Y010154D01*
X002598Y010251D01*
X002586Y010348D01*
X002578Y010446D01*
X002576Y010544D01*
X001401Y000499D02*
X001401Y000849D01*
X001635Y000499D01*
X001635Y000849D01*
X001828Y000499D02*
X001944Y000499D01*
X002003Y000557D01*
X002003Y000674D01*
X001944Y000732D01*
X001828Y000732D01*
X001769Y000674D01*
X001769Y000557D01*
X001828Y000499D01*
X002313Y000499D02*
X002196Y000499D01*
X002138Y000557D01*
X002138Y000674D01*
X002196Y000732D01*
X002313Y000732D01*
X002371Y000674D01*
X002371Y000616D01*
X002138Y000616D01*
X002564Y000791D02*
X002564Y000557D01*
X002623Y000499D01*
X002623Y000732D02*
X002506Y000732D01*
X002751Y000732D02*
X002810Y000732D01*
X002810Y000499D01*
X002868Y000499D02*
X002751Y000499D01*
X002810Y000849D02*
X002810Y000908D01*
X003231Y000732D02*
X003055Y000732D01*
X002997Y000674D01*
X002997Y000557D01*
X003055Y000499D01*
X003231Y000499D01*
X003734Y000849D02*
X003734Y000499D01*
X003909Y000499D01*
X003967Y000557D01*
X003967Y000791D01*
X003909Y000849D01*
X003734Y000849D01*
X004277Y000499D02*
X004160Y000499D01*
X004102Y000557D01*
X004102Y000674D01*
X004160Y000732D01*
X004277Y000732D01*
X004335Y000674D01*
X004335Y000616D01*
X004102Y000616D01*
X004470Y000499D02*
X004645Y000499D01*
X004704Y000557D01*
X004645Y000616D01*
X004529Y000616D01*
X004470Y000674D01*
X004529Y000732D01*
X004704Y000732D01*
X004839Y000732D02*
X004897Y000732D01*
X004897Y000499D01*
X004839Y000499D02*
X004955Y000499D01*
X004897Y000849D02*
X004897Y000908D01*
X005201Y000382D02*
X005259Y000382D01*
X005318Y000441D01*
X005318Y000732D01*
X005142Y000732D01*
X005084Y000674D01*
X005084Y000557D01*
X005142Y000499D01*
X005318Y000499D01*
X005452Y000499D02*
X005452Y000732D01*
X005627Y000732D01*
X005686Y000674D01*
X005686Y000499D01*
X005821Y000382D02*
X005937Y000499D01*
X005937Y000557D01*
X005879Y000557D01*
X005879Y000499D01*
X005937Y000499D01*
X006434Y000499D02*
X006551Y000499D01*
X006493Y000499D02*
X006493Y000849D01*
X006551Y000849D02*
X006434Y000849D01*
X006680Y000499D02*
X006680Y000732D01*
X006855Y000732D01*
X006914Y000674D01*
X006914Y000499D01*
X007282Y000732D02*
X007107Y000732D01*
X007048Y000674D01*
X007048Y000557D01*
X007107Y000499D01*
X007282Y000499D01*
X007417Y000499D02*
X007417Y000557D01*
X007475Y000557D01*
X007475Y000499D01*
X007417Y000499D01*
X002151Y001932D02*
X002151Y001757D01*
X002209Y001699D01*
X002268Y001757D01*
X002326Y001699D01*
X002385Y001757D01*
X002385Y001932D01*
X002519Y001932D02*
X002519Y001757D01*
X002578Y001699D01*
X002636Y001757D01*
X002694Y001699D01*
X002753Y001757D01*
X002753Y001932D01*
X002888Y001932D02*
X002888Y001757D01*
X002946Y001699D01*
X003004Y001757D01*
X003063Y001699D01*
X003121Y001757D01*
X003121Y001932D01*
X003256Y001699D02*
X003256Y001757D01*
X003314Y001757D01*
X003314Y001699D01*
X003256Y001699D01*
X003440Y001699D02*
X003440Y001932D01*
X003615Y001932D01*
X003674Y001874D01*
X003674Y001699D01*
X003808Y001932D02*
X003808Y001757D01*
X003867Y001699D01*
X004042Y001699D01*
X004042Y001932D01*
X004177Y002049D02*
X004177Y001699D01*
X004352Y001699D01*
X004410Y001757D01*
X004410Y001874D01*
X004352Y001932D01*
X004177Y001932D01*
X004603Y001699D02*
X004720Y001699D01*
X004779Y001757D01*
X004779Y001874D01*
X004720Y001932D01*
X004603Y001932D01*
X004545Y001874D01*
X004545Y001757D01*
X004603Y001699D01*
X004972Y001991D02*
X004972Y001757D01*
X005030Y001699D01*
X005030Y001932D02*
X004913Y001932D01*
X005159Y001932D02*
X005217Y001932D01*
X005217Y001699D01*
X005159Y001699D02*
X005276Y001699D01*
X005217Y002049D02*
X005217Y002108D01*
X005638Y001932D02*
X005463Y001932D01*
X005404Y001874D01*
X005404Y001757D01*
X005463Y001699D01*
X005638Y001699D01*
X005773Y001699D02*
X005948Y001699D01*
X006006Y001757D01*
X005948Y001816D01*
X005831Y001816D01*
X005773Y001874D01*
X005831Y001932D01*
X006006Y001932D01*
X006141Y001699D02*
X006141Y001757D01*
X006199Y001757D01*
X006199Y001699D01*
X006141Y001699D01*
X006559Y001932D02*
X006383Y001932D01*
X006325Y001874D01*
X006325Y001757D01*
X006383Y001699D01*
X006559Y001699D01*
X006752Y001699D02*
X006869Y001699D01*
X006927Y001757D01*
X006927Y001874D01*
X006869Y001932D01*
X006752Y001932D01*
X006693Y001874D01*
X006693Y001757D01*
X006752Y001699D01*
X007062Y001699D02*
X007062Y001932D01*
X007120Y001932D01*
X007178Y001874D01*
X007178Y001699D01*
X007178Y001874D02*
X007237Y001932D01*
X007295Y001874D01*
X007295Y001699D01*
X003368Y001049D02*
X003251Y001166D01*
X003251Y001282D01*
X003368Y001399D01*
X003730Y001282D02*
X003555Y001282D01*
X003497Y001224D01*
X003497Y001107D01*
X003555Y001049D01*
X003730Y001049D01*
X003865Y001049D02*
X003982Y001166D01*
X003982Y001282D01*
X003865Y001399D01*
X004712Y001049D02*
X004479Y001049D01*
X004712Y001282D01*
X004712Y001341D01*
X004654Y001399D01*
X004537Y001399D01*
X004479Y001341D01*
X004847Y001107D02*
X004847Y001341D01*
X004905Y001399D01*
X005022Y001399D01*
X005081Y001341D01*
X005081Y001107D01*
X005022Y001049D01*
X004905Y001049D01*
X004847Y001107D01*
X005081Y001341D01*
X005215Y001282D02*
X005332Y001399D01*
X005332Y001049D01*
X005215Y001049D02*
X005449Y001049D01*
X005584Y001107D02*
X005584Y001341D01*
X005642Y001399D01*
X005759Y001399D01*
X005817Y001341D01*
X005817Y001107D01*
X005759Y001049D01*
X005642Y001049D01*
X005584Y001107D01*
X005817Y001341D01*
X005201Y002349D02*
X005201Y002699D01*
X005376Y002699D01*
X005435Y002641D01*
X005435Y002524D01*
X005376Y002466D01*
X005201Y002466D01*
X005318Y002466D02*
X005435Y002349D01*
X005744Y002349D02*
X005628Y002349D01*
X005569Y002407D01*
X005569Y002524D01*
X005628Y002582D01*
X005744Y002582D01*
X005803Y002524D01*
X005803Y002466D01*
X005569Y002466D01*
X005938Y002582D02*
X006054Y002349D01*
X006171Y002582D01*
X006674Y002349D02*
X006674Y002582D01*
X006791Y002699D01*
X006908Y002582D01*
X006908Y002349D01*
X006908Y002524D02*
X006674Y002524D01*
X002351Y018487D02*
X002409Y018429D01*
X002468Y018429D01*
X002526Y018487D01*
X002526Y018779D01*
X002468Y018779D02*
X002585Y018779D01*
X002719Y018662D02*
X002836Y018779D01*
X002836Y018429D01*
X002719Y018429D02*
X002953Y018429D01*
X007406Y000924D02*
X007408Y000973D01*
X007414Y001021D01*
X007424Y001069D01*
X007438Y001116D01*
X007455Y001162D01*
X007476Y001206D01*
X007501Y001248D01*
X007529Y001288D01*
X007561Y001326D01*
X007595Y001361D01*
X007632Y001393D01*
X007671Y001422D01*
X007713Y001448D01*
X007757Y001470D01*
X007802Y001488D01*
X007849Y001503D01*
X007896Y001514D01*
X007945Y001521D01*
X007994Y001524D01*
X008043Y001523D01*
X008091Y001518D01*
X008140Y001509D01*
X008187Y001496D01*
X008233Y001479D01*
X008277Y001459D01*
X008320Y001435D01*
X008361Y001408D01*
X008399Y001377D01*
X008435Y001344D01*
X008467Y001308D01*
X008497Y001269D01*
X008524Y001228D01*
X008547Y001184D01*
X008566Y001139D01*
X008582Y001093D01*
X008594Y001046D01*
X008602Y000997D01*
X008606Y000948D01*
X008606Y000900D01*
X008602Y000851D01*
X008594Y000802D01*
X008582Y000755D01*
X008566Y000709D01*
X008547Y000664D01*
X008524Y000620D01*
X008497Y000579D01*
X008467Y000540D01*
X008435Y000504D01*
X008399Y000471D01*
X008361Y000440D01*
X008320Y000413D01*
X008277Y000389D01*
X008233Y000369D01*
X008187Y000352D01*
X008140Y000339D01*
X008091Y000330D01*
X008043Y000325D01*
X007994Y000324D01*
X007945Y000327D01*
X007896Y000334D01*
X007849Y000345D01*
X007802Y000360D01*
X007757Y000378D01*
X007713Y000400D01*
X007671Y000426D01*
X007632Y000455D01*
X007595Y000487D01*
X007561Y000522D01*
X007529Y000560D01*
X007501Y000600D01*
X007476Y000642D01*
X007455Y000686D01*
X007438Y000732D01*
X007424Y000779D01*
X007414Y000827D01*
X007408Y000875D01*
X007406Y000924D01*
X000506Y015824D02*
X000508Y015873D01*
X000514Y015921D01*
X000524Y015969D01*
X000538Y016016D01*
X000555Y016062D01*
X000576Y016106D01*
X000601Y016148D01*
X000629Y016188D01*
X000661Y016226D01*
X000695Y016261D01*
X000732Y016293D01*
X000771Y016322D01*
X000813Y016348D01*
X000857Y016370D01*
X000902Y016388D01*
X000949Y016403D01*
X000996Y016414D01*
X001045Y016421D01*
X001094Y016424D01*
X001143Y016423D01*
X001191Y016418D01*
X001240Y016409D01*
X001287Y016396D01*
X001333Y016379D01*
X001377Y016359D01*
X001420Y016335D01*
X001461Y016308D01*
X001499Y016277D01*
X001535Y016244D01*
X001567Y016208D01*
X001597Y016169D01*
X001624Y016128D01*
X001647Y016084D01*
X001666Y016039D01*
X001682Y015993D01*
X001694Y015946D01*
X001702Y015897D01*
X001706Y015848D01*
X001706Y015800D01*
X001702Y015751D01*
X001694Y015702D01*
X001682Y015655D01*
X001666Y015609D01*
X001647Y015564D01*
X001624Y015520D01*
X001597Y015479D01*
X001567Y015440D01*
X001535Y015404D01*
X001499Y015371D01*
X001461Y015340D01*
X001420Y015313D01*
X001377Y015289D01*
X001333Y015269D01*
X001287Y015252D01*
X001240Y015239D01*
X001191Y015230D01*
X001143Y015225D01*
X001094Y015224D01*
X001045Y015227D01*
X000996Y015234D01*
X000949Y015245D01*
X000902Y015260D01*
X000857Y015278D01*
X000813Y015300D01*
X000771Y015326D01*
X000732Y015355D01*
X000695Y015387D01*
X000661Y015422D01*
X000629Y015460D01*
X000601Y015500D01*
X000576Y015542D01*
X000555Y015586D01*
X000538Y015632D01*
X000524Y015679D01*
X000514Y015727D01*
X000508Y015775D01*
X000506Y015824D01*
X000601Y020979D02*
X000751Y021129D01*
X000751Y020679D01*
X000601Y020679D02*
X000901Y020679D01*
X000501Y023479D02*
X000351Y023479D01*
X000426Y023479D02*
X000426Y023929D01*
X000351Y023929D02*
X000501Y023929D01*
X000958Y023854D02*
X000883Y023929D01*
X000733Y023929D01*
X000658Y023854D01*
X000658Y023779D01*
X000733Y023704D01*
X000883Y023704D01*
X000958Y023629D01*
X000958Y023554D01*
X000883Y023479D01*
X000733Y023479D01*
X000658Y023554D01*
X001118Y023479D02*
X001118Y023929D01*
X001343Y023929D01*
X001419Y023854D01*
X001419Y023704D01*
X001343Y023629D01*
X001118Y023629D01*
X003751Y023029D02*
X003601Y022954D01*
X003451Y022804D01*
X003451Y022654D01*
X003526Y022579D01*
X003676Y022579D01*
X003751Y022654D01*
X003751Y022729D01*
X003676Y022804D01*
X003451Y022804D01*
X005131Y020999D02*
X005281Y021149D01*
X005281Y020699D01*
X005131Y020699D02*
X005431Y020699D01*
X008331Y023874D02*
X008406Y023949D01*
X008556Y023949D01*
X008631Y023874D01*
X008631Y023799D01*
X008556Y023724D01*
X008631Y023649D01*
X008631Y023574D01*
X008556Y023499D01*
X008406Y023499D01*
X008331Y023574D01*
X008331Y023649D01*
X008406Y023724D01*
X008331Y023799D01*
X008331Y023874D01*
X008406Y023724D02*
X008556Y023724D01*
X004831Y023499D02*
X004831Y023949D01*
X004831Y023724D02*
X005131Y023724D01*
X005131Y023949D02*
X005131Y023499D01*
X005291Y023949D02*
X005291Y023649D01*
X005442Y023499D01*
X005592Y023649D01*
X005592Y023949D01*
X006052Y023874D02*
X005977Y023949D01*
X005827Y023949D01*
X005752Y023874D01*
X005752Y023799D01*
X005827Y023724D01*
X005977Y023724D01*
X006052Y023649D01*
X006052Y023574D01*
X005977Y023499D01*
X005827Y023499D01*
X005752Y023574D01*
X006212Y023499D02*
X006212Y023949D01*
X006437Y023949D01*
X006512Y023874D01*
X006512Y023724D01*
X006437Y023649D01*
X006212Y023649D01*
D11*
X001506Y016931D02*
X001720Y017144D01*
X001720Y016504D01*
X001933Y016504D02*
X001506Y016504D01*
X002654Y002744D02*
X002654Y002304D01*
X002801Y002451D01*
X002948Y002304D01*
X002948Y002744D01*
X003114Y002744D02*
X003114Y002304D01*
X003261Y002451D01*
X003408Y002304D01*
X003408Y002744D01*
X003575Y002524D02*
X003868Y002524D01*
X004035Y002598D02*
X004182Y002744D01*
X004182Y002304D01*
X004035Y002304D02*
X004329Y002304D01*
X004789Y002304D02*
X004496Y002304D01*
X004789Y002598D01*
X004789Y002671D01*
X004716Y002744D01*
X004569Y002744D01*
X004496Y002671D01*
X004356Y020254D02*
X004356Y020548D01*
X004503Y020694D01*
X004650Y020548D01*
X004650Y020254D01*
X004650Y020474D02*
X004356Y020474D01*
X005356Y020254D02*
X005356Y020694D01*
X005503Y020548D01*
X005650Y020694D01*
X005650Y020254D01*
X003356Y020254D02*
X003356Y020694D01*
X003576Y020694D01*
X003650Y020621D01*
X003650Y020548D01*
X003576Y020474D01*
X003650Y020401D01*
X003650Y020327D01*
X003576Y020254D01*
X003356Y020254D01*
X003356Y020474D02*
X003576Y020474D01*
X000576Y023304D02*
X001076Y023304D01*
X001326Y023054D01*
X001576Y023304D01*
X002076Y023304D01*
X002326Y023054D01*
X000576Y023304D02*
X000326Y023054D01*
X002326Y023054D02*
X002576Y023304D01*
X003076Y023304D01*
X003326Y023054D01*
X003326Y021554D01*
X001326Y021554D02*
X001076Y021304D01*
X002326Y021554D02*
X002076Y021304D01*
X001576Y021304D01*
X001326Y021554D01*
X000326Y023054D02*
X000326Y021554D01*
X000576Y021304D01*
X001076Y021304D01*
X003326Y021554D02*
X003076Y021304D01*
X002576Y021304D01*
X002326Y021554D01*
X005056Y023324D02*
X005556Y023324D01*
X005806Y023074D01*
X006056Y023324D01*
X006556Y023324D01*
X006806Y023074D01*
X005056Y023324D02*
X004806Y023074D01*
X006806Y023074D02*
X007056Y023324D01*
X007556Y023324D01*
X007806Y023074D01*
X008556Y023324D02*
X008056Y023324D01*
X007806Y023074D01*
X008556Y023324D02*
X008806Y023074D01*
X008806Y021574D01*
X005806Y021574D02*
X005556Y021324D01*
X006806Y021574D02*
X006556Y021324D01*
X006056Y021324D01*
X005806Y021574D01*
X004806Y023074D02*
X004806Y021574D01*
X005056Y021324D01*
X005556Y021324D01*
X007806Y021574D02*
X007556Y021324D01*
X007056Y021324D01*
X006806Y021574D01*
X007806Y021574D02*
X008056Y021324D01*
X008556Y021324D01*
X008806Y021574D01*
X004666Y015244D02*
X004326Y015244D01*
X004326Y015524D02*
X004666Y015524D01*
D12*
X002780Y020474D02*
X002366Y020474D01*
X002573Y020681D02*
X002573Y020267D01*
X006366Y020474D02*
X006780Y020474D01*
D13*
X000606Y013864D02*
X000608Y013908D01*
X000614Y013952D01*
X000624Y013995D01*
X000637Y014037D01*
X000654Y014078D01*
X000675Y014117D01*
X000699Y014154D01*
X000726Y014189D01*
X000756Y014221D01*
X000789Y014251D01*
X000825Y014277D01*
X000862Y014301D01*
X000902Y014320D01*
X000943Y014337D01*
X000986Y014349D01*
X001029Y014358D01*
X001073Y014363D01*
X001117Y014364D01*
X001161Y014361D01*
X001205Y014354D01*
X001248Y014343D01*
X001290Y014329D01*
X001330Y014311D01*
X001369Y014289D01*
X001405Y014265D01*
X001439Y014237D01*
X001471Y014206D01*
X001500Y014172D01*
X001526Y014136D01*
X001548Y014098D01*
X001567Y014058D01*
X001582Y014016D01*
X001594Y013974D01*
X001602Y013930D01*
X001606Y013886D01*
X001606Y013842D01*
X001602Y013798D01*
X001594Y013754D01*
X001582Y013712D01*
X001567Y013670D01*
X001548Y013630D01*
X001526Y013592D01*
X001500Y013556D01*
X001471Y013522D01*
X001439Y013491D01*
X001405Y013463D01*
X001369Y013439D01*
X001330Y013417D01*
X001290Y013399D01*
X001248Y013385D01*
X001205Y013374D01*
X001161Y013367D01*
X001117Y013364D01*
X001073Y013365D01*
X001029Y013370D01*
X000986Y013379D01*
X000943Y013391D01*
X000902Y013408D01*
X000862Y013427D01*
X000825Y013451D01*
X000789Y013477D01*
X000756Y013507D01*
X000726Y013539D01*
X000699Y013574D01*
X000675Y013611D01*
X000654Y013650D01*
X000637Y013691D01*
X000624Y013733D01*
X000614Y013776D01*
X000608Y013820D01*
X000606Y013864D01*
X007546Y013864D02*
X007548Y013908D01*
X007554Y013952D01*
X007564Y013995D01*
X007577Y014037D01*
X007594Y014078D01*
X007615Y014117D01*
X007639Y014154D01*
X007666Y014189D01*
X007696Y014221D01*
X007729Y014251D01*
X007765Y014277D01*
X007802Y014301D01*
X007842Y014320D01*
X007883Y014337D01*
X007926Y014349D01*
X007969Y014358D01*
X008013Y014363D01*
X008057Y014364D01*
X008101Y014361D01*
X008145Y014354D01*
X008188Y014343D01*
X008230Y014329D01*
X008270Y014311D01*
X008309Y014289D01*
X008345Y014265D01*
X008379Y014237D01*
X008411Y014206D01*
X008440Y014172D01*
X008466Y014136D01*
X008488Y014098D01*
X008507Y014058D01*
X008522Y014016D01*
X008534Y013974D01*
X008542Y013930D01*
X008546Y013886D01*
X008546Y013842D01*
X008542Y013798D01*
X008534Y013754D01*
X008522Y013712D01*
X008507Y013670D01*
X008488Y013630D01*
X008466Y013592D01*
X008440Y013556D01*
X008411Y013522D01*
X008379Y013491D01*
X008345Y013463D01*
X008309Y013439D01*
X008270Y013417D01*
X008230Y013399D01*
X008188Y013385D01*
X008145Y013374D01*
X008101Y013367D01*
X008057Y013364D01*
X008013Y013365D01*
X007969Y013370D01*
X007926Y013379D01*
X007883Y013391D01*
X007842Y013408D01*
X007802Y013427D01*
X007765Y013451D01*
X007729Y013477D01*
X007696Y013507D01*
X007666Y013539D01*
X007639Y013574D01*
X007615Y013611D01*
X007594Y013650D01*
X007577Y013691D01*
X007564Y013733D01*
X007554Y013776D01*
X007548Y013820D01*
X007546Y013864D01*
X000586Y002634D02*
X000588Y002681D01*
X000594Y002727D01*
X000604Y002773D01*
X000617Y002818D01*
X000634Y002862D01*
X000655Y002904D01*
X000680Y002944D01*
X000707Y002982D01*
X000738Y003017D01*
X000771Y003050D01*
X000807Y003080D01*
X000846Y003107D01*
X000887Y003130D01*
X000929Y003150D01*
X000973Y003167D01*
X001018Y003179D01*
X001064Y003188D01*
X001111Y003193D01*
X001158Y003194D01*
X001205Y003191D01*
X001251Y003184D01*
X001297Y003173D01*
X001341Y003159D01*
X001384Y003141D01*
X001426Y003119D01*
X001466Y003094D01*
X001503Y003065D01*
X001538Y003034D01*
X001570Y003000D01*
X001599Y002963D01*
X001625Y002924D01*
X001648Y002883D01*
X001667Y002840D01*
X001682Y002796D01*
X001694Y002750D01*
X001702Y002704D01*
X001706Y002657D01*
X001706Y002611D01*
X001702Y002564D01*
X001694Y002518D01*
X001682Y002472D01*
X001667Y002428D01*
X001648Y002385D01*
X001625Y002344D01*
X001599Y002305D01*
X001570Y002268D01*
X001538Y002234D01*
X001503Y002203D01*
X001466Y002174D01*
X001426Y002149D01*
X001384Y002127D01*
X001341Y002109D01*
X001297Y002095D01*
X001251Y002084D01*
X001205Y002077D01*
X001158Y002074D01*
X001111Y002075D01*
X001064Y002080D01*
X001018Y002089D01*
X000973Y002101D01*
X000929Y002118D01*
X000887Y002138D01*
X000846Y002161D01*
X000807Y002188D01*
X000771Y002218D01*
X000738Y002251D01*
X000707Y002286D01*
X000680Y002324D01*
X000655Y002364D01*
X000634Y002406D01*
X000617Y002450D01*
X000604Y002495D01*
X000594Y002541D01*
X000588Y002587D01*
X000586Y002634D01*
X007446Y002634D02*
X007448Y002681D01*
X007454Y002727D01*
X007464Y002773D01*
X007477Y002818D01*
X007494Y002862D01*
X007515Y002904D01*
X007540Y002944D01*
X007567Y002982D01*
X007598Y003017D01*
X007631Y003050D01*
X007667Y003080D01*
X007706Y003107D01*
X007747Y003130D01*
X007789Y003150D01*
X007833Y003167D01*
X007878Y003179D01*
X007924Y003188D01*
X007971Y003193D01*
X008018Y003194D01*
X008065Y003191D01*
X008111Y003184D01*
X008157Y003173D01*
X008201Y003159D01*
X008244Y003141D01*
X008286Y003119D01*
X008326Y003094D01*
X008363Y003065D01*
X008398Y003034D01*
X008430Y003000D01*
X008459Y002963D01*
X008485Y002924D01*
X008508Y002883D01*
X008527Y002840D01*
X008542Y002796D01*
X008554Y002750D01*
X008562Y002704D01*
X008566Y002657D01*
X008566Y002611D01*
X008562Y002564D01*
X008554Y002518D01*
X008542Y002472D01*
X008527Y002428D01*
X008508Y002385D01*
X008485Y002344D01*
X008459Y002305D01*
X008430Y002268D01*
X008398Y002234D01*
X008363Y002203D01*
X008326Y002174D01*
X008286Y002149D01*
X008244Y002127D01*
X008201Y002109D01*
X008157Y002095D01*
X008111Y002084D01*
X008065Y002077D01*
X008018Y002074D01*
X007971Y002075D01*
X007924Y002080D01*
X007878Y002089D01*
X007833Y002101D01*
X007789Y002118D01*
X007747Y002138D01*
X007706Y002161D01*
X007667Y002188D01*
X007631Y002218D01*
X007598Y002251D01*
X007567Y002286D01*
X007540Y002324D01*
X007515Y002364D01*
X007494Y002406D01*
X007477Y002450D01*
X007464Y002495D01*
X007454Y002541D01*
X007448Y002587D01*
X007446Y002634D01*
X004143Y006074D02*
X004145Y006115D01*
X004151Y006156D01*
X004161Y006196D01*
X004174Y006235D01*
X004191Y006272D01*
X004212Y006308D01*
X004236Y006342D01*
X004263Y006373D01*
X004292Y006401D01*
X004325Y006427D01*
X004359Y006449D01*
X004396Y006468D01*
X004434Y006483D01*
X004474Y006495D01*
X004514Y006503D01*
X004555Y006507D01*
X004597Y006507D01*
X004638Y006503D01*
X004678Y006495D01*
X004718Y006483D01*
X004756Y006468D01*
X004792Y006449D01*
X004827Y006427D01*
X004860Y006401D01*
X004889Y006373D01*
X004916Y006342D01*
X004940Y006308D01*
X004961Y006272D01*
X004978Y006235D01*
X004991Y006196D01*
X005001Y006156D01*
X005007Y006115D01*
X005009Y006074D01*
X005007Y006033D01*
X005001Y005992D01*
X004991Y005952D01*
X004978Y005913D01*
X004961Y005876D01*
X004940Y005840D01*
X004916Y005806D01*
X004889Y005775D01*
X004860Y005747D01*
X004827Y005721D01*
X004793Y005699D01*
X004756Y005680D01*
X004718Y005665D01*
X004678Y005653D01*
X004638Y005645D01*
X004597Y005641D01*
X004555Y005641D01*
X004514Y005645D01*
X004474Y005653D01*
X004434Y005665D01*
X004396Y005680D01*
X004360Y005699D01*
X004325Y005721D01*
X004292Y005747D01*
X004263Y005775D01*
X004236Y005806D01*
X004212Y005840D01*
X004191Y005876D01*
X004174Y005913D01*
X004161Y005952D01*
X004151Y005992D01*
X004145Y006033D01*
X004143Y006074D01*
X007338Y016664D02*
X007714Y016664D01*
X007526Y016476D02*
X007526Y016852D01*
X004976Y019524D02*
X004176Y019524D01*
X004576Y019124D02*
X004576Y019924D01*
X007606Y000924D02*
X008406Y000924D01*
X008006Y000524D02*
X008006Y001324D01*
X001506Y015824D02*
X000706Y015824D01*
X001106Y015424D02*
X001106Y016224D01*
X004176Y010544D02*
X004976Y010544D01*
X004576Y010144D02*
X004576Y010944D01*
X004388Y007324D02*
X004764Y007324D01*
X004576Y007136D02*
X004576Y007512D01*
X002226Y022304D02*
X001426Y022304D01*
X001826Y021904D02*
X001826Y022704D01*
X006406Y022324D02*
X007206Y022324D01*
X006806Y021924D02*
X006806Y022724D01*
X004765Y015384D02*
X004227Y015384D01*
X004496Y015115D02*
X004496Y015653D01*
X004455Y023444D02*
X003917Y023444D01*
X004186Y023175D02*
X004186Y023713D01*
X004378Y014154D02*
X004634Y014154D01*
X004506Y014026D02*
X004506Y014282D01*
D14*
X000106Y024224D02*
X009046Y024224D01*
X009046Y000114D01*
X000106Y000114D01*
X000106Y024224D01*
X000106Y013864D02*
X000108Y013927D01*
X000114Y013989D01*
X000124Y014051D01*
X000137Y014113D01*
X000155Y014173D01*
X000176Y014232D01*
X000201Y014290D01*
X000230Y014346D01*
X000262Y014400D01*
X000297Y014452D01*
X000335Y014501D01*
X000377Y014549D01*
X000421Y014593D01*
X000469Y014635D01*
X000518Y014673D01*
X000570Y014708D01*
X000624Y014740D01*
X000680Y014769D01*
X000738Y014794D01*
X000797Y014815D01*
X000857Y014833D01*
X000919Y014846D01*
X000981Y014856D01*
X001043Y014862D01*
X001106Y014864D01*
X001169Y014862D01*
X001231Y014856D01*
X001293Y014846D01*
X001355Y014833D01*
X001415Y014815D01*
X001474Y014794D01*
X001532Y014769D01*
X001588Y014740D01*
X001642Y014708D01*
X001694Y014673D01*
X001743Y014635D01*
X001791Y014593D01*
X001835Y014549D01*
X001877Y014501D01*
X001915Y014452D01*
X001950Y014400D01*
X001982Y014346D01*
X002011Y014290D01*
X002036Y014232D01*
X002057Y014173D01*
X002075Y014113D01*
X002088Y014051D01*
X002098Y013989D01*
X002104Y013927D01*
X002106Y013864D01*
X002104Y013801D01*
X002098Y013739D01*
X002088Y013677D01*
X002075Y013615D01*
X002057Y013555D01*
X002036Y013496D01*
X002011Y013438D01*
X001982Y013382D01*
X001950Y013328D01*
X001915Y013276D01*
X001877Y013227D01*
X001835Y013179D01*
X001791Y013135D01*
X001743Y013093D01*
X001694Y013055D01*
X001642Y013020D01*
X001588Y012988D01*
X001532Y012959D01*
X001474Y012934D01*
X001415Y012913D01*
X001355Y012895D01*
X001293Y012882D01*
X001231Y012872D01*
X001169Y012866D01*
X001106Y012864D01*
X001043Y012866D01*
X000981Y012872D01*
X000919Y012882D01*
X000857Y012895D01*
X000797Y012913D01*
X000738Y012934D01*
X000680Y012959D01*
X000624Y012988D01*
X000570Y013020D01*
X000518Y013055D01*
X000469Y013093D01*
X000421Y013135D01*
X000377Y013179D01*
X000335Y013227D01*
X000297Y013276D01*
X000262Y013328D01*
X000230Y013382D01*
X000201Y013438D01*
X000176Y013496D01*
X000155Y013555D01*
X000137Y013615D01*
X000124Y013677D01*
X000114Y013739D01*
X000108Y013801D01*
X000106Y013864D01*
X007046Y013864D02*
X007048Y013927D01*
X007054Y013989D01*
X007064Y014051D01*
X007077Y014113D01*
X007095Y014173D01*
X007116Y014232D01*
X007141Y014290D01*
X007170Y014346D01*
X007202Y014400D01*
X007237Y014452D01*
X007275Y014501D01*
X007317Y014549D01*
X007361Y014593D01*
X007409Y014635D01*
X007458Y014673D01*
X007510Y014708D01*
X007564Y014740D01*
X007620Y014769D01*
X007678Y014794D01*
X007737Y014815D01*
X007797Y014833D01*
X007859Y014846D01*
X007921Y014856D01*
X007983Y014862D01*
X008046Y014864D01*
X008109Y014862D01*
X008171Y014856D01*
X008233Y014846D01*
X008295Y014833D01*
X008355Y014815D01*
X008414Y014794D01*
X008472Y014769D01*
X008528Y014740D01*
X008582Y014708D01*
X008634Y014673D01*
X008683Y014635D01*
X008731Y014593D01*
X008775Y014549D01*
X008817Y014501D01*
X008855Y014452D01*
X008890Y014400D01*
X008922Y014346D01*
X008951Y014290D01*
X008976Y014232D01*
X008997Y014173D01*
X009015Y014113D01*
X009028Y014051D01*
X009038Y013989D01*
X009044Y013927D01*
X009046Y013864D01*
X009044Y013801D01*
X009038Y013739D01*
X009028Y013677D01*
X009015Y013615D01*
X008997Y013555D01*
X008976Y013496D01*
X008951Y013438D01*
X008922Y013382D01*
X008890Y013328D01*
X008855Y013276D01*
X008817Y013227D01*
X008775Y013179D01*
X008731Y013135D01*
X008683Y013093D01*
X008634Y013055D01*
X008582Y013020D01*
X008528Y012988D01*
X008472Y012959D01*
X008414Y012934D01*
X008355Y012913D01*
X008295Y012895D01*
X008233Y012882D01*
X008171Y012872D01*
X008109Y012866D01*
X008046Y012864D01*
X007983Y012866D01*
X007921Y012872D01*
X007859Y012882D01*
X007797Y012895D01*
X007737Y012913D01*
X007678Y012934D01*
X007620Y012959D01*
X007564Y012988D01*
X007510Y013020D01*
X007458Y013055D01*
X007409Y013093D01*
X007361Y013135D01*
X007317Y013179D01*
X007275Y013227D01*
X007237Y013276D01*
X007202Y013328D01*
X007170Y013382D01*
X007141Y013438D01*
X007116Y013496D01*
X007095Y013555D01*
X007077Y013615D01*
X007064Y013677D01*
X007054Y013739D01*
X007048Y013801D01*
X007046Y013864D01*
X002656Y010544D02*
X002658Y010638D01*
X002665Y010732D01*
X002677Y010826D01*
X002693Y010919D01*
X002714Y011011D01*
X002739Y011101D01*
X002768Y011191D01*
X002802Y011279D01*
X002840Y011365D01*
X002883Y011449D01*
X002929Y011531D01*
X002980Y011611D01*
X003034Y011688D01*
X003092Y011762D01*
X003153Y011833D01*
X003218Y011902D01*
X003287Y011967D01*
X003358Y012028D01*
X003432Y012086D01*
X003509Y012140D01*
X003589Y012191D01*
X003671Y012237D01*
X003755Y012280D01*
X003841Y012318D01*
X003929Y012352D01*
X004019Y012381D01*
X004109Y012406D01*
X004201Y012427D01*
X004294Y012443D01*
X004388Y012455D01*
X004482Y012462D01*
X004576Y012464D01*
X004670Y012462D01*
X004764Y012455D01*
X004858Y012443D01*
X004951Y012427D01*
X005043Y012406D01*
X005133Y012381D01*
X005223Y012352D01*
X005311Y012318D01*
X005397Y012280D01*
X005481Y012237D01*
X005563Y012191D01*
X005643Y012140D01*
X005720Y012086D01*
X005794Y012028D01*
X005865Y011967D01*
X005934Y011902D01*
X005999Y011833D01*
X006060Y011762D01*
X006118Y011688D01*
X006172Y011611D01*
X006223Y011531D01*
X006269Y011449D01*
X006312Y011365D01*
X006350Y011279D01*
X006384Y011191D01*
X006413Y011101D01*
X006438Y011011D01*
X006459Y010919D01*
X006475Y010826D01*
X006487Y010732D01*
X006494Y010638D01*
X006496Y010544D01*
X006494Y010450D01*
X006487Y010356D01*
X006475Y010262D01*
X006459Y010169D01*
X006438Y010077D01*
X006413Y009987D01*
X006384Y009897D01*
X006350Y009809D01*
X006312Y009723D01*
X006269Y009639D01*
X006223Y009557D01*
X006172Y009477D01*
X006118Y009400D01*
X006060Y009326D01*
X005999Y009255D01*
X005934Y009186D01*
X005865Y009121D01*
X005794Y009060D01*
X005720Y009002D01*
X005643Y008948D01*
X005563Y008897D01*
X005481Y008851D01*
X005397Y008808D01*
X005311Y008770D01*
X005223Y008736D01*
X005133Y008707D01*
X005043Y008682D01*
X004951Y008661D01*
X004858Y008645D01*
X004764Y008633D01*
X004670Y008626D01*
X004576Y008624D01*
X004482Y008626D01*
X004388Y008633D01*
X004294Y008645D01*
X004201Y008661D01*
X004109Y008682D01*
X004019Y008707D01*
X003929Y008736D01*
X003841Y008770D01*
X003755Y008808D01*
X003671Y008851D01*
X003589Y008897D01*
X003509Y008948D01*
X003432Y009002D01*
X003358Y009060D01*
X003287Y009121D01*
X003218Y009186D01*
X003153Y009255D01*
X003092Y009326D01*
X003034Y009400D01*
X002980Y009477D01*
X002929Y009557D01*
X002883Y009639D01*
X002840Y009723D01*
X002802Y009809D01*
X002768Y009897D01*
X002739Y009987D01*
X002714Y010077D01*
X002693Y010169D01*
X002677Y010262D01*
X002665Y010356D01*
X002658Y010450D01*
X002656Y010544D01*
D15*
X004146Y013514D02*
X004146Y013661D01*
X004219Y013734D01*
X004293Y013661D01*
X004293Y013514D01*
X004293Y013624D02*
X004146Y013624D01*
X004736Y013734D02*
X004736Y013514D01*
X004736Y013587D02*
X004883Y013734D01*
X004773Y013624D02*
X004883Y013514D01*
X003916Y015771D02*
X005076Y015771D01*
X005076Y014997D01*
X003916Y014997D01*
X003916Y015771D01*
X004573Y024024D02*
X004573Y022864D01*
X003799Y022864D01*
X003799Y024024D01*
X004573Y024024D01*
D16*
X001746Y003444D02*
X001746Y003804D01*
X001926Y003804D01*
X001986Y003744D01*
X001986Y003624D01*
X001926Y003564D01*
X001746Y003564D01*
X002114Y003444D02*
X002114Y003684D01*
X002114Y003564D02*
X002234Y003684D01*
X002294Y003684D01*
X002481Y003444D02*
X002601Y003444D01*
X002661Y003504D01*
X002661Y003624D01*
X002601Y003684D01*
X002481Y003684D01*
X002421Y003624D01*
X002421Y003504D01*
X002481Y003444D01*
X002910Y003324D02*
X002970Y003324D01*
X003030Y003384D01*
X003030Y003684D01*
X002850Y003684D01*
X002790Y003624D01*
X002790Y003504D01*
X002850Y003444D01*
X003030Y003444D01*
X003158Y003444D02*
X003158Y003684D01*
X003158Y003564D02*
X003278Y003684D01*
X003338Y003684D01*
X003525Y003684D02*
X003645Y003684D01*
X003705Y003624D01*
X003705Y003444D01*
X003525Y003444D01*
X003465Y003504D01*
X003525Y003564D01*
X003705Y003564D01*
X003833Y003444D02*
X003833Y003684D01*
X003893Y003684D01*
X003953Y003624D01*
X003953Y003444D01*
X003953Y003624D02*
X004013Y003684D01*
X004073Y003624D01*
X004073Y003444D01*
X004201Y003444D02*
X004201Y003684D01*
X004261Y003684D01*
X004321Y003624D01*
X004321Y003444D01*
X004321Y003624D02*
X004381Y003684D01*
X004442Y003624D01*
X004442Y003444D01*
X004570Y003684D02*
X004630Y003684D01*
X004630Y003444D01*
X004570Y003444D02*
X004690Y003444D01*
X004630Y003804D02*
X004630Y003864D01*
X004815Y003444D02*
X004815Y003684D01*
X004995Y003684D01*
X005055Y003624D01*
X005055Y003444D01*
X005304Y003324D02*
X005364Y003324D01*
X005424Y003384D01*
X005424Y003684D01*
X005244Y003684D01*
X005184Y003624D01*
X005184Y003504D01*
X005244Y003444D01*
X005424Y003444D01*
X005920Y003444D02*
X005920Y003804D01*
X006160Y003804D01*
X006040Y003624D02*
X005920Y003624D01*
X006288Y003684D02*
X006348Y003684D01*
X006348Y003444D01*
X006288Y003444D02*
X006409Y003444D01*
X006348Y003804D02*
X006348Y003864D01*
X006534Y003684D02*
X006774Y003444D01*
X006534Y003444D02*
X006774Y003684D01*
X006962Y003744D02*
X006962Y003504D01*
X007022Y003444D01*
X007022Y003684D02*
X006902Y003684D01*
X007148Y003684D02*
X007148Y003504D01*
X007208Y003444D01*
X007388Y003444D01*
X007388Y003684D01*
X007516Y003684D02*
X007516Y003444D01*
X007516Y003564D02*
X007636Y003684D01*
X007696Y003684D01*
X008003Y003444D02*
X007883Y003444D01*
X007823Y003504D01*
X007823Y003624D01*
X007883Y003684D01*
X008003Y003684D01*
X008063Y003624D01*
X008063Y003564D01*
X007823Y003564D01*
X002996Y015164D02*
X002996Y015624D01*
X003226Y015624D01*
X003303Y015548D01*
X003303Y015394D01*
X003226Y015317D01*
X002996Y015317D01*
X003149Y015317D02*
X003303Y015164D01*
X003456Y015471D02*
X003610Y015624D01*
X003610Y015164D01*
X003763Y015164D02*
X003456Y015164D01*
X004356Y023304D02*
X004356Y023584D01*
X004021Y023584D02*
X004021Y023304D01*
X003273Y023978D02*
X003196Y024054D01*
X003043Y024054D01*
X002966Y023978D01*
X002966Y023671D01*
X003043Y023594D01*
X003196Y023594D01*
X003273Y023671D01*
X003426Y023901D02*
X003580Y024054D01*
X003580Y023594D01*
X003733Y023594D02*
X003426Y023594D01*
X004329Y014311D02*
X004683Y014311D01*
X004683Y013996D02*
X004329Y013996D01*
X002206Y014414D02*
X002206Y013954D01*
X002513Y013954D01*
X002973Y014414D02*
X002666Y014414D01*
X002666Y013954D01*
X002973Y013954D01*
X002820Y014184D02*
X002666Y014184D01*
X003127Y014414D02*
X003127Y013954D01*
X003357Y013954D01*
X003434Y014031D01*
X003434Y014338D01*
X003357Y014414D01*
X003127Y014414D01*
X003587Y014261D02*
X003741Y014414D01*
X003741Y013954D01*
X003894Y013954D02*
X003587Y013954D01*
D17*
X002076Y020774D02*
X007076Y020774D01*
X007076Y020024D01*
X007076Y018274D01*
X002076Y018274D01*
X002076Y020024D01*
X002076Y020774D01*
X002076Y020024D02*
X007076Y020024D01*
D18*
X001826Y021804D03*
X000826Y021804D03*
X002826Y021804D03*
X000826Y022804D03*
X001826Y022804D03*
X002826Y022804D03*
X006306Y021824D03*
X005306Y021824D03*
X007306Y021824D03*
X008306Y021824D03*
X005306Y022824D03*
X006306Y022824D03*
X007306Y022824D03*
X008306Y022824D03*
D19*
X004746Y015384D03*
X004246Y015384D03*
D20*
X004188Y023675D03*
X004188Y023216D03*
D21*
X004762Y014154D03*
X004250Y014154D03*
D22*
X004565Y014302D03*
X004565Y014006D03*
D23*
X004565Y014154D03*
M02*
