G75*
G70*
%OFA0B0*%
%FSLAX24Y24*%
%IPPOS*%
%LPD*%
%AMOC8*
5,1,8,0,0,1.08239X$1,22.5*
%
%ADD10C,0.0050*%
%ADD11C,0.0060*%
%ADD12C,0.0080*%
%ADD13C,0.0020*%
%ADD14C,0.0100*%
%ADD15C,0.0040*%
%ADD16R,0.0118X0.0059*%
%ADD17R,0.0118X0.0118*%
D10*
X001401Y000499D02*
X001401Y000849D01*
X001635Y000499D01*
X001635Y000849D01*
X001769Y000674D02*
X001769Y000557D01*
X001828Y000499D01*
X001944Y000499D01*
X002003Y000557D01*
X002003Y000674D01*
X001944Y000732D01*
X001828Y000732D01*
X001769Y000674D01*
X002138Y000674D02*
X002196Y000732D01*
X002313Y000732D01*
X002371Y000674D01*
X002371Y000616D01*
X002138Y000616D01*
X002138Y000674D02*
X002138Y000557D01*
X002196Y000499D01*
X002313Y000499D01*
X002506Y000732D02*
X002623Y000732D01*
X002564Y000791D02*
X002564Y000557D01*
X002623Y000499D01*
X002751Y000499D02*
X002868Y000499D01*
X002810Y000499D02*
X002810Y000732D01*
X002751Y000732D01*
X002810Y000849D02*
X002810Y000908D01*
X002997Y000674D02*
X002997Y000557D01*
X003055Y000499D01*
X003231Y000499D01*
X003231Y000732D02*
X003055Y000732D01*
X002997Y000674D01*
X003368Y001049D02*
X003251Y001166D01*
X003251Y001282D01*
X003368Y001399D01*
X003497Y001224D02*
X003497Y001107D01*
X003555Y001049D01*
X003730Y001049D01*
X003865Y001049D02*
X003982Y001166D01*
X003982Y001282D01*
X003865Y001399D01*
X003730Y001282D02*
X003555Y001282D01*
X003497Y001224D01*
X003440Y001699D02*
X003440Y001932D01*
X003615Y001932D01*
X003674Y001874D01*
X003674Y001699D01*
X003808Y001757D02*
X003867Y001699D01*
X004042Y001699D01*
X004042Y001932D01*
X004177Y001932D02*
X004352Y001932D01*
X004410Y001874D01*
X004410Y001757D01*
X004352Y001699D01*
X004177Y001699D01*
X004177Y002049D01*
X003808Y001932D02*
X003808Y001757D01*
X003314Y001757D02*
X003314Y001699D01*
X003256Y001699D01*
X003256Y001757D01*
X003314Y001757D01*
X003121Y001757D02*
X003063Y001699D01*
X003004Y001757D01*
X002946Y001699D01*
X002888Y001757D01*
X002888Y001932D01*
X002753Y001932D02*
X002753Y001757D01*
X002694Y001699D01*
X002636Y001757D01*
X002578Y001699D01*
X002519Y001757D01*
X002519Y001932D01*
X002385Y001932D02*
X002385Y001757D01*
X002326Y001699D01*
X002268Y001757D01*
X002209Y001699D01*
X002151Y001757D01*
X002151Y001932D01*
X003121Y001932D02*
X003121Y001757D01*
X003734Y000849D02*
X003909Y000849D01*
X003967Y000791D01*
X003967Y000557D01*
X003909Y000499D01*
X003734Y000499D01*
X003734Y000849D01*
X004102Y000674D02*
X004160Y000732D01*
X004277Y000732D01*
X004335Y000674D01*
X004335Y000616D01*
X004102Y000616D01*
X004102Y000674D02*
X004102Y000557D01*
X004160Y000499D01*
X004277Y000499D01*
X004470Y000499D02*
X004645Y000499D01*
X004704Y000557D01*
X004645Y000616D01*
X004529Y000616D01*
X004470Y000674D01*
X004529Y000732D01*
X004704Y000732D01*
X004839Y000732D02*
X004897Y000732D01*
X004897Y000499D01*
X004839Y000499D02*
X004955Y000499D01*
X005084Y000557D02*
X005142Y000499D01*
X005318Y000499D01*
X005318Y000441D02*
X005318Y000732D01*
X005142Y000732D01*
X005084Y000674D01*
X005084Y000557D01*
X005201Y000382D02*
X005259Y000382D01*
X005318Y000441D01*
X005452Y000499D02*
X005452Y000732D01*
X005627Y000732D01*
X005686Y000674D01*
X005686Y000499D01*
X005821Y000382D02*
X005937Y000499D01*
X005879Y000499D01*
X005879Y000557D01*
X005937Y000557D01*
X005937Y000499D01*
X005759Y001049D02*
X005642Y001049D01*
X005584Y001107D01*
X005817Y001341D01*
X005817Y001107D01*
X005759Y001049D01*
X005584Y001107D02*
X005584Y001341D01*
X005642Y001399D01*
X005759Y001399D01*
X005817Y001341D01*
X005773Y001699D02*
X005948Y001699D01*
X006006Y001757D01*
X005948Y001816D01*
X005831Y001816D01*
X005773Y001874D01*
X005831Y001932D01*
X006006Y001932D01*
X006141Y001757D02*
X006141Y001699D01*
X006199Y001699D01*
X006199Y001757D01*
X006141Y001757D01*
X006325Y001757D02*
X006383Y001699D01*
X006559Y001699D01*
X006693Y001757D02*
X006752Y001699D01*
X006869Y001699D01*
X006927Y001757D01*
X006927Y001874D01*
X006869Y001932D01*
X006752Y001932D01*
X006693Y001874D01*
X006693Y001757D01*
X006559Y001932D02*
X006383Y001932D01*
X006325Y001874D01*
X006325Y001757D01*
X006054Y002349D02*
X006171Y002582D01*
X005938Y002582D02*
X006054Y002349D01*
X005803Y002466D02*
X005569Y002466D01*
X005569Y002524D02*
X005628Y002582D01*
X005744Y002582D01*
X005803Y002524D01*
X005803Y002466D01*
X005744Y002349D02*
X005628Y002349D01*
X005569Y002407D01*
X005569Y002524D01*
X005435Y002524D02*
X005376Y002466D01*
X005201Y002466D01*
X005318Y002466D02*
X005435Y002349D01*
X005435Y002524D02*
X005435Y002641D01*
X005376Y002699D01*
X005201Y002699D01*
X005201Y002349D01*
X005217Y002108D02*
X005217Y002049D01*
X005217Y001932D02*
X005159Y001932D01*
X005217Y001932D02*
X005217Y001699D01*
X005159Y001699D02*
X005276Y001699D01*
X005404Y001757D02*
X005463Y001699D01*
X005638Y001699D01*
X005638Y001932D02*
X005463Y001932D01*
X005404Y001874D01*
X005404Y001757D01*
X005332Y001399D02*
X005332Y001049D01*
X005215Y001049D02*
X005449Y001049D01*
X005215Y001282D02*
X005332Y001399D01*
X005081Y001341D02*
X005081Y001107D01*
X005022Y001049D01*
X004905Y001049D01*
X004847Y001107D01*
X005081Y001341D01*
X005022Y001399D01*
X004905Y001399D01*
X004847Y001341D01*
X004847Y001107D01*
X004712Y001049D02*
X004479Y001049D01*
X004712Y001282D01*
X004712Y001341D01*
X004654Y001399D01*
X004537Y001399D01*
X004479Y001341D01*
X004603Y001699D02*
X004545Y001757D01*
X004545Y001874D01*
X004603Y001932D01*
X004720Y001932D01*
X004779Y001874D01*
X004779Y001757D01*
X004720Y001699D01*
X004603Y001699D01*
X004972Y001757D02*
X004972Y001991D01*
X005030Y001932D02*
X004913Y001932D01*
X004972Y001757D02*
X005030Y001699D01*
X004897Y000908D02*
X004897Y000849D01*
X006434Y000849D02*
X006551Y000849D01*
X006493Y000849D02*
X006493Y000499D01*
X006551Y000499D02*
X006434Y000499D01*
X006680Y000499D02*
X006680Y000732D01*
X006855Y000732D01*
X006914Y000674D01*
X006914Y000499D01*
X007048Y000557D02*
X007107Y000499D01*
X007282Y000499D01*
X007417Y000499D02*
X007475Y000499D01*
X007475Y000557D01*
X007417Y000557D01*
X007417Y000499D01*
X007282Y000732D02*
X007107Y000732D01*
X007048Y000674D01*
X007048Y000557D01*
X007062Y001699D02*
X007062Y001932D01*
X007120Y001932D01*
X007178Y001874D01*
X007237Y001932D01*
X007295Y001874D01*
X007295Y001699D01*
X007178Y001699D02*
X007178Y001874D01*
X006908Y002349D02*
X006908Y002582D01*
X006791Y002699D01*
X006674Y002582D01*
X006674Y002349D01*
X006674Y002524D02*
X006908Y002524D01*
X002576Y010544D02*
X002578Y010642D01*
X002586Y010740D01*
X002598Y010837D01*
X002614Y010934D01*
X002636Y011030D01*
X002662Y011125D01*
X002693Y011218D01*
X002728Y011309D01*
X002768Y011399D01*
X002812Y011487D01*
X002861Y011572D01*
X002913Y011655D01*
X002970Y011735D01*
X003030Y011813D01*
X003094Y011887D01*
X003162Y011958D01*
X003233Y012026D01*
X003307Y012090D01*
X003385Y012150D01*
X003465Y012207D01*
X003548Y012259D01*
X003633Y012308D01*
X003721Y012352D01*
X003811Y012392D01*
X003902Y012427D01*
X003995Y012458D01*
X004090Y012484D01*
X004186Y012506D01*
X004283Y012522D01*
X004380Y012534D01*
X004478Y012542D01*
X004576Y012544D01*
X004674Y012542D01*
X004772Y012534D01*
X004869Y012522D01*
X004966Y012506D01*
X005062Y012484D01*
X005157Y012458D01*
X005250Y012427D01*
X005341Y012392D01*
X005431Y012352D01*
X005519Y012308D01*
X005604Y012259D01*
X005687Y012207D01*
X005767Y012150D01*
X005845Y012090D01*
X005919Y012026D01*
X005990Y011958D01*
X006058Y011887D01*
X006122Y011813D01*
X006182Y011735D01*
X006239Y011655D01*
X006291Y011572D01*
X006340Y011487D01*
X006384Y011399D01*
X006424Y011309D01*
X006459Y011218D01*
X006490Y011125D01*
X006516Y011030D01*
X006538Y010934D01*
X006554Y010837D01*
X006566Y010740D01*
X006574Y010642D01*
X006576Y010544D01*
X006574Y010446D01*
X006566Y010348D01*
X006554Y010251D01*
X006538Y010154D01*
X006516Y010058D01*
X006490Y009963D01*
X006459Y009870D01*
X006424Y009779D01*
X006384Y009689D01*
X006340Y009601D01*
X006291Y009516D01*
X006239Y009433D01*
X006182Y009353D01*
X006122Y009275D01*
X006058Y009201D01*
X005990Y009130D01*
X005919Y009062D01*
X005845Y008998D01*
X005767Y008938D01*
X005687Y008881D01*
X005604Y008829D01*
X005519Y008780D01*
X005431Y008736D01*
X005341Y008696D01*
X005250Y008661D01*
X005157Y008630D01*
X005062Y008604D01*
X004966Y008582D01*
X004869Y008566D01*
X004772Y008554D01*
X004674Y008546D01*
X004576Y008544D01*
X004478Y008546D01*
X004380Y008554D01*
X004283Y008566D01*
X004186Y008582D01*
X004090Y008604D01*
X003995Y008630D01*
X003902Y008661D01*
X003811Y008696D01*
X003721Y008736D01*
X003633Y008780D01*
X003548Y008829D01*
X003465Y008881D01*
X003385Y008938D01*
X003307Y008998D01*
X003233Y009062D01*
X003162Y009130D01*
X003094Y009201D01*
X003030Y009275D01*
X002970Y009353D01*
X002913Y009433D01*
X002861Y009516D01*
X002812Y009601D01*
X002768Y009689D01*
X002728Y009779D01*
X002693Y009870D01*
X002662Y009963D01*
X002636Y010058D01*
X002614Y010154D01*
X002598Y010251D01*
X002586Y010348D01*
X002578Y010446D01*
X002576Y010544D01*
X002468Y018429D02*
X002526Y018487D01*
X002526Y018779D01*
X002468Y018779D02*
X002585Y018779D01*
X002719Y018662D02*
X002836Y018779D01*
X002836Y018429D01*
X002719Y018429D02*
X002953Y018429D01*
X002468Y018429D02*
X002409Y018429D01*
X002351Y018487D01*
X000901Y020679D02*
X000601Y020679D01*
X000751Y020679D02*
X000751Y021129D01*
X000601Y020979D01*
X000501Y023479D02*
X000351Y023479D01*
X000426Y023479D02*
X000426Y023929D01*
X000351Y023929D02*
X000501Y023929D01*
X000658Y023854D02*
X000658Y023779D01*
X000733Y023704D01*
X000883Y023704D01*
X000958Y023629D01*
X000958Y023554D01*
X000883Y023479D01*
X000733Y023479D01*
X000658Y023554D01*
X000658Y023854D02*
X000733Y023929D01*
X000883Y023929D01*
X000958Y023854D01*
X001118Y023929D02*
X001118Y023479D01*
X001118Y023629D02*
X001343Y023629D01*
X001419Y023704D01*
X001419Y023854D01*
X001343Y023929D01*
X001118Y023929D01*
X003451Y022804D02*
X003676Y022804D01*
X003751Y022729D01*
X003751Y022654D01*
X003676Y022579D01*
X003526Y022579D01*
X003451Y022654D01*
X003451Y022804D01*
X003601Y022954D01*
X003751Y023029D01*
X004831Y023499D02*
X004831Y023949D01*
X004831Y023724D02*
X005131Y023724D01*
X005291Y023649D02*
X005291Y023949D01*
X005131Y023949D02*
X005131Y023499D01*
X005291Y023649D02*
X005442Y023499D01*
X005592Y023649D01*
X005592Y023949D01*
X005752Y023874D02*
X005752Y023799D01*
X005827Y023724D01*
X005977Y023724D01*
X006052Y023649D01*
X006052Y023574D01*
X005977Y023499D01*
X005827Y023499D01*
X005752Y023574D01*
X005752Y023874D02*
X005827Y023949D01*
X005977Y023949D01*
X006052Y023874D01*
X006212Y023949D02*
X006437Y023949D01*
X006512Y023874D01*
X006512Y023724D01*
X006437Y023649D01*
X006212Y023649D01*
X006212Y023499D02*
X006212Y023949D01*
X005281Y021149D02*
X005131Y020999D01*
X005281Y021149D02*
X005281Y020699D01*
X005131Y020699D02*
X005431Y020699D01*
X008331Y023574D02*
X008331Y023649D01*
X008406Y023724D01*
X008556Y023724D01*
X008631Y023649D01*
X008631Y023574D01*
X008556Y023499D01*
X008406Y023499D01*
X008331Y023574D01*
X008406Y023724D02*
X008331Y023799D01*
X008331Y023874D01*
X008406Y023949D01*
X008556Y023949D01*
X008631Y023874D01*
X008631Y023799D01*
X008556Y023724D01*
D11*
X008556Y023324D02*
X008806Y023074D01*
X008806Y021574D01*
X008556Y021324D01*
X008056Y021324D01*
X007806Y021574D01*
X007556Y021324D01*
X007056Y021324D01*
X006806Y021574D01*
X006556Y021324D01*
X006056Y021324D01*
X005806Y021574D01*
X005556Y021324D01*
X005056Y021324D01*
X004806Y021574D01*
X004806Y023074D01*
X005056Y023324D01*
X005556Y023324D01*
X005806Y023074D01*
X006056Y023324D01*
X006556Y023324D01*
X006806Y023074D01*
X007056Y023324D01*
X007556Y023324D01*
X007806Y023074D01*
X008056Y023324D01*
X008556Y023324D01*
X005650Y020694D02*
X005650Y020254D01*
X005503Y020548D02*
X005650Y020694D01*
X005503Y020548D02*
X005356Y020694D01*
X005356Y020254D01*
X004650Y020254D02*
X004650Y020548D01*
X004503Y020694D01*
X004356Y020548D01*
X004356Y020254D01*
X004356Y020474D02*
X004650Y020474D01*
X003650Y020401D02*
X003650Y020327D01*
X003576Y020254D01*
X003356Y020254D01*
X003356Y020694D01*
X003576Y020694D01*
X003650Y020621D01*
X003650Y020548D01*
X003576Y020474D01*
X003356Y020474D01*
X003576Y020474D02*
X003650Y020401D01*
X003076Y021304D02*
X002576Y021304D01*
X002326Y021554D01*
X002076Y021304D01*
X001576Y021304D01*
X001326Y021554D01*
X001076Y021304D01*
X000576Y021304D01*
X000326Y021554D01*
X000326Y023054D01*
X000576Y023304D01*
X001076Y023304D01*
X001326Y023054D01*
X001576Y023304D01*
X002076Y023304D01*
X002326Y023054D01*
X002576Y023304D01*
X003076Y023304D01*
X003326Y023054D01*
X003326Y021554D01*
X003076Y021304D01*
X001720Y017144D02*
X001720Y016504D01*
X001933Y016504D02*
X001506Y016504D01*
X001506Y016931D02*
X001720Y017144D01*
X002654Y002744D02*
X002654Y002304D01*
X002801Y002451D01*
X002948Y002304D01*
X002948Y002744D01*
X003114Y002744D02*
X003114Y002304D01*
X003261Y002451D01*
X003408Y002304D01*
X003408Y002744D01*
X003575Y002524D02*
X003868Y002524D01*
X004035Y002598D02*
X004182Y002744D01*
X004182Y002304D01*
X004035Y002304D02*
X004329Y002304D01*
X004496Y002304D02*
X004789Y002598D01*
X004789Y002671D01*
X004716Y002744D01*
X004569Y002744D01*
X004496Y002671D01*
X004496Y002304D02*
X004789Y002304D01*
D12*
X002573Y020267D02*
X002573Y020681D01*
X002366Y020474D02*
X002780Y020474D01*
X006366Y020474D02*
X006780Y020474D01*
D13*
X004883Y013734D02*
X004736Y013587D01*
X004773Y013624D02*
X004883Y013514D01*
X004736Y013514D02*
X004736Y013734D01*
X004293Y013661D02*
X004293Y013514D01*
X004293Y013624D02*
X004146Y013624D01*
X004146Y013661D02*
X004146Y013514D01*
X004146Y013661D02*
X004219Y013734D01*
X004293Y013661D01*
D14*
X002076Y018274D02*
X002076Y020024D01*
X007076Y020024D01*
X007076Y018274D01*
X002076Y018274D01*
X002076Y020024D02*
X002076Y020774D01*
X007076Y020774D01*
X007076Y020024D01*
D15*
X003733Y023594D02*
X003426Y023594D01*
X003580Y023594D02*
X003580Y024054D01*
X003426Y023901D01*
X003273Y023978D02*
X003196Y024054D01*
X003043Y024054D01*
X002966Y023978D01*
X002966Y023671D01*
X003043Y023594D01*
X003196Y023594D01*
X003273Y023671D01*
X003226Y015624D02*
X002996Y015624D01*
X002996Y015164D01*
X002996Y015317D02*
X003226Y015317D01*
X003303Y015394D01*
X003303Y015548D01*
X003226Y015624D01*
X003456Y015471D02*
X003610Y015624D01*
X003610Y015164D01*
X003763Y015164D02*
X003456Y015164D01*
X003303Y015164D02*
X003149Y015317D01*
X003127Y014414D02*
X003357Y014414D01*
X003434Y014338D01*
X003434Y014031D01*
X003357Y013954D01*
X003127Y013954D01*
X003127Y014414D01*
X002973Y014414D02*
X002666Y014414D01*
X002666Y013954D01*
X002973Y013954D01*
X002820Y014184D02*
X002666Y014184D01*
X002513Y013954D02*
X002206Y013954D01*
X002206Y014414D01*
X003587Y014261D02*
X003741Y014414D01*
X003741Y013954D01*
X003894Y013954D02*
X003587Y013954D01*
D16*
X004565Y014006D03*
X004565Y014302D03*
D17*
X004565Y014154D03*
M02*
