G75*
G70*
%OFA0B0*%
%FSLAX24Y24*%
%IPPOS*%
%LPD*%
%AMOC8*
5,1,8,0,0,1.08239X$1,22.5*
%
%ADD10C,0.0000*%
%ADD11C,0.0010*%
D10*
X000586Y002634D02*
X000588Y002681D01*
X000594Y002727D01*
X000604Y002773D01*
X000617Y002818D01*
X000634Y002862D01*
X000655Y002904D01*
X000680Y002944D01*
X000707Y002982D01*
X000738Y003017D01*
X000771Y003050D01*
X000807Y003080D01*
X000846Y003107D01*
X000887Y003130D01*
X000929Y003150D01*
X000973Y003167D01*
X001018Y003179D01*
X001064Y003188D01*
X001111Y003193D01*
X001158Y003194D01*
X001205Y003191D01*
X001251Y003184D01*
X001297Y003173D01*
X001341Y003159D01*
X001384Y003141D01*
X001426Y003119D01*
X001466Y003094D01*
X001503Y003065D01*
X001538Y003034D01*
X001570Y003000D01*
X001599Y002963D01*
X001625Y002924D01*
X001648Y002883D01*
X001667Y002840D01*
X001682Y002796D01*
X001694Y002750D01*
X001702Y002704D01*
X001706Y002657D01*
X001706Y002611D01*
X001702Y002564D01*
X001694Y002518D01*
X001682Y002472D01*
X001667Y002428D01*
X001648Y002385D01*
X001625Y002344D01*
X001599Y002305D01*
X001570Y002268D01*
X001538Y002234D01*
X001503Y002203D01*
X001466Y002174D01*
X001426Y002149D01*
X001384Y002127D01*
X001341Y002109D01*
X001297Y002095D01*
X001251Y002084D01*
X001205Y002077D01*
X001158Y002074D01*
X001111Y002075D01*
X001064Y002080D01*
X001018Y002089D01*
X000973Y002101D01*
X000929Y002118D01*
X000887Y002138D01*
X000846Y002161D01*
X000807Y002188D01*
X000771Y002218D01*
X000738Y002251D01*
X000707Y002286D01*
X000680Y002324D01*
X000655Y002364D01*
X000634Y002406D01*
X000617Y002450D01*
X000604Y002495D01*
X000594Y002541D01*
X000588Y002587D01*
X000586Y002634D01*
X004143Y006074D02*
X004145Y006115D01*
X004151Y006156D01*
X004161Y006196D01*
X004174Y006235D01*
X004191Y006272D01*
X004212Y006308D01*
X004236Y006342D01*
X004263Y006373D01*
X004292Y006401D01*
X004325Y006427D01*
X004359Y006449D01*
X004396Y006468D01*
X004434Y006483D01*
X004474Y006495D01*
X004514Y006503D01*
X004555Y006507D01*
X004597Y006507D01*
X004638Y006503D01*
X004678Y006495D01*
X004718Y006483D01*
X004756Y006468D01*
X004792Y006449D01*
X004827Y006427D01*
X004860Y006401D01*
X004889Y006373D01*
X004916Y006342D01*
X004940Y006308D01*
X004961Y006272D01*
X004978Y006235D01*
X004991Y006196D01*
X005001Y006156D01*
X005007Y006115D01*
X005009Y006074D01*
X005007Y006033D01*
X005001Y005992D01*
X004991Y005952D01*
X004978Y005913D01*
X004961Y005876D01*
X004940Y005840D01*
X004916Y005806D01*
X004889Y005775D01*
X004860Y005747D01*
X004827Y005721D01*
X004793Y005699D01*
X004756Y005680D01*
X004718Y005665D01*
X004678Y005653D01*
X004638Y005645D01*
X004597Y005641D01*
X004555Y005641D01*
X004514Y005645D01*
X004474Y005653D01*
X004434Y005665D01*
X004396Y005680D01*
X004360Y005699D01*
X004325Y005721D01*
X004292Y005747D01*
X004263Y005775D01*
X004236Y005806D01*
X004212Y005840D01*
X004191Y005876D01*
X004174Y005913D01*
X004161Y005952D01*
X004151Y005992D01*
X004145Y006033D01*
X004143Y006074D01*
X007446Y002634D02*
X007448Y002681D01*
X007454Y002727D01*
X007464Y002773D01*
X007477Y002818D01*
X007494Y002862D01*
X007515Y002904D01*
X007540Y002944D01*
X007567Y002982D01*
X007598Y003017D01*
X007631Y003050D01*
X007667Y003080D01*
X007706Y003107D01*
X007747Y003130D01*
X007789Y003150D01*
X007833Y003167D01*
X007878Y003179D01*
X007924Y003188D01*
X007971Y003193D01*
X008018Y003194D01*
X008065Y003191D01*
X008111Y003184D01*
X008157Y003173D01*
X008201Y003159D01*
X008244Y003141D01*
X008286Y003119D01*
X008326Y003094D01*
X008363Y003065D01*
X008398Y003034D01*
X008430Y003000D01*
X008459Y002963D01*
X008485Y002924D01*
X008508Y002883D01*
X008527Y002840D01*
X008542Y002796D01*
X008554Y002750D01*
X008562Y002704D01*
X008566Y002657D01*
X008566Y002611D01*
X008562Y002564D01*
X008554Y002518D01*
X008542Y002472D01*
X008527Y002428D01*
X008508Y002385D01*
X008485Y002344D01*
X008459Y002305D01*
X008430Y002268D01*
X008398Y002234D01*
X008363Y002203D01*
X008326Y002174D01*
X008286Y002149D01*
X008244Y002127D01*
X008201Y002109D01*
X008157Y002095D01*
X008111Y002084D01*
X008065Y002077D01*
X008018Y002074D01*
X007971Y002075D01*
X007924Y002080D01*
X007878Y002089D01*
X007833Y002101D01*
X007789Y002118D01*
X007747Y002138D01*
X007706Y002161D01*
X007667Y002188D01*
X007631Y002218D01*
X007598Y002251D01*
X007567Y002286D01*
X007540Y002324D01*
X007515Y002364D01*
X007494Y002406D01*
X007477Y002450D01*
X007464Y002495D01*
X007454Y002541D01*
X007448Y002587D01*
X007446Y002634D01*
X007546Y013864D02*
X007548Y013908D01*
X007554Y013952D01*
X007564Y013995D01*
X007577Y014037D01*
X007594Y014078D01*
X007615Y014117D01*
X007639Y014154D01*
X007666Y014189D01*
X007696Y014221D01*
X007729Y014251D01*
X007765Y014277D01*
X007802Y014301D01*
X007842Y014320D01*
X007883Y014337D01*
X007926Y014349D01*
X007969Y014358D01*
X008013Y014363D01*
X008057Y014364D01*
X008101Y014361D01*
X008145Y014354D01*
X008188Y014343D01*
X008230Y014329D01*
X008270Y014311D01*
X008309Y014289D01*
X008345Y014265D01*
X008379Y014237D01*
X008411Y014206D01*
X008440Y014172D01*
X008466Y014136D01*
X008488Y014098D01*
X008507Y014058D01*
X008522Y014016D01*
X008534Y013974D01*
X008542Y013930D01*
X008546Y013886D01*
X008546Y013842D01*
X008542Y013798D01*
X008534Y013754D01*
X008522Y013712D01*
X008507Y013670D01*
X008488Y013630D01*
X008466Y013592D01*
X008440Y013556D01*
X008411Y013522D01*
X008379Y013491D01*
X008345Y013463D01*
X008309Y013439D01*
X008270Y013417D01*
X008230Y013399D01*
X008188Y013385D01*
X008145Y013374D01*
X008101Y013367D01*
X008057Y013364D01*
X008013Y013365D01*
X007969Y013370D01*
X007926Y013379D01*
X007883Y013391D01*
X007842Y013408D01*
X007802Y013427D01*
X007765Y013451D01*
X007729Y013477D01*
X007696Y013507D01*
X007666Y013539D01*
X007639Y013574D01*
X007615Y013611D01*
X007594Y013650D01*
X007577Y013691D01*
X007564Y013733D01*
X007554Y013776D01*
X007548Y013820D01*
X007546Y013864D01*
X000606Y013864D02*
X000608Y013908D01*
X000614Y013952D01*
X000624Y013995D01*
X000637Y014037D01*
X000654Y014078D01*
X000675Y014117D01*
X000699Y014154D01*
X000726Y014189D01*
X000756Y014221D01*
X000789Y014251D01*
X000825Y014277D01*
X000862Y014301D01*
X000902Y014320D01*
X000943Y014337D01*
X000986Y014349D01*
X001029Y014358D01*
X001073Y014363D01*
X001117Y014364D01*
X001161Y014361D01*
X001205Y014354D01*
X001248Y014343D01*
X001290Y014329D01*
X001330Y014311D01*
X001369Y014289D01*
X001405Y014265D01*
X001439Y014237D01*
X001471Y014206D01*
X001500Y014172D01*
X001526Y014136D01*
X001548Y014098D01*
X001567Y014058D01*
X001582Y014016D01*
X001594Y013974D01*
X001602Y013930D01*
X001606Y013886D01*
X001606Y013842D01*
X001602Y013798D01*
X001594Y013754D01*
X001582Y013712D01*
X001567Y013670D01*
X001548Y013630D01*
X001526Y013592D01*
X001500Y013556D01*
X001471Y013522D01*
X001439Y013491D01*
X001405Y013463D01*
X001369Y013439D01*
X001330Y013417D01*
X001290Y013399D01*
X001248Y013385D01*
X001205Y013374D01*
X001161Y013367D01*
X001117Y013364D01*
X001073Y013365D01*
X001029Y013370D01*
X000986Y013379D01*
X000943Y013391D01*
X000902Y013408D01*
X000862Y013427D01*
X000825Y013451D01*
X000789Y013477D01*
X000756Y013507D01*
X000726Y013539D01*
X000699Y013574D01*
X000675Y013611D01*
X000654Y013650D01*
X000637Y013691D01*
X000624Y013733D01*
X000614Y013776D01*
X000608Y013820D01*
X000606Y013864D01*
D11*
X000106Y024224D02*
X000106Y000114D01*
X009046Y000114D01*
X009046Y024224D01*
X000106Y024224D01*
X002761Y010544D02*
X002763Y010633D01*
X002770Y010722D01*
X002781Y010810D01*
X002796Y010898D01*
X002815Y010985D01*
X002839Y011071D01*
X002867Y011155D01*
X002899Y011239D01*
X002935Y011320D01*
X002975Y011400D01*
X003019Y011477D01*
X003067Y011552D01*
X003118Y011625D01*
X003173Y011695D01*
X003231Y011763D01*
X003293Y011827D01*
X003357Y011889D01*
X003425Y011947D01*
X003495Y012002D01*
X003568Y012053D01*
X003643Y012101D01*
X003720Y012145D01*
X003800Y012185D01*
X003881Y012221D01*
X003965Y012253D01*
X004049Y012281D01*
X004135Y012305D01*
X004222Y012324D01*
X004310Y012339D01*
X004398Y012350D01*
X004487Y012357D01*
X004576Y012359D01*
X004665Y012357D01*
X004754Y012350D01*
X004842Y012339D01*
X004930Y012324D01*
X005017Y012305D01*
X005103Y012281D01*
X005187Y012253D01*
X005271Y012221D01*
X005352Y012185D01*
X005432Y012145D01*
X005509Y012101D01*
X005584Y012053D01*
X005657Y012002D01*
X005727Y011947D01*
X005795Y011889D01*
X005859Y011827D01*
X005921Y011763D01*
X005979Y011695D01*
X006034Y011625D01*
X006085Y011552D01*
X006133Y011477D01*
X006177Y011400D01*
X006217Y011320D01*
X006253Y011239D01*
X006285Y011155D01*
X006313Y011071D01*
X006337Y010985D01*
X006356Y010898D01*
X006371Y010810D01*
X006382Y010722D01*
X006389Y010633D01*
X006391Y010544D01*
X006389Y010455D01*
X006382Y010366D01*
X006371Y010278D01*
X006356Y010190D01*
X006337Y010103D01*
X006313Y010017D01*
X006285Y009933D01*
X006253Y009849D01*
X006217Y009768D01*
X006177Y009688D01*
X006133Y009611D01*
X006085Y009536D01*
X006034Y009463D01*
X005979Y009393D01*
X005921Y009325D01*
X005859Y009261D01*
X005795Y009199D01*
X005727Y009141D01*
X005657Y009086D01*
X005584Y009035D01*
X005509Y008987D01*
X005432Y008943D01*
X005352Y008903D01*
X005271Y008867D01*
X005187Y008835D01*
X005103Y008807D01*
X005017Y008783D01*
X004930Y008764D01*
X004842Y008749D01*
X004754Y008738D01*
X004665Y008731D01*
X004576Y008729D01*
X004487Y008731D01*
X004398Y008738D01*
X004310Y008749D01*
X004222Y008764D01*
X004135Y008783D01*
X004049Y008807D01*
X003965Y008835D01*
X003881Y008867D01*
X003800Y008903D01*
X003720Y008943D01*
X003643Y008987D01*
X003568Y009035D01*
X003495Y009086D01*
X003425Y009141D01*
X003357Y009199D01*
X003293Y009261D01*
X003231Y009325D01*
X003173Y009393D01*
X003118Y009463D01*
X003067Y009536D01*
X003019Y009611D01*
X002975Y009688D01*
X002935Y009768D01*
X002899Y009849D01*
X002867Y009933D01*
X002839Y010017D01*
X002815Y010103D01*
X002796Y010190D01*
X002781Y010278D01*
X002770Y010366D01*
X002763Y010455D01*
X002761Y010544D01*
M02*
