G75*
G70*
%OFA0B0*%
%FSLAX24Y24*%
%IPPOS*%
%LPD*%
%AMOC8*
5,1,8,0,0,1.08239X$1,22.5*
%
%ADD10C,0.1060*%
%ADD11C,0.1180*%
%ADD12C,0.0926*%
%ADD13C,0.0560*%
%ADD14C,0.0651*%
%ADD15C,0.0847*%
%ADD16C,0.1181*%
%ADD17C,0.0660*%
%ADD18OC8,0.0660*%
%ADD19R,0.0454X0.0493*%
%ADD20R,0.0375X0.0375*%
%ADD21C,0.0456*%
%ADD22OC8,0.0960*%
D10*
X001106Y013864D03*
X008046Y013864D03*
D11*
X001146Y002634D03*
X008006Y002634D03*
D12*
X004576Y006074D03*
D13*
X004576Y007324D03*
X007526Y016664D03*
D14*
X006576Y019229D02*
X006576Y019819D01*
X005576Y019819D02*
X005576Y019229D01*
X004576Y019229D02*
X004576Y019819D01*
X003576Y019819D02*
X003576Y019229D01*
X002576Y019229D02*
X002576Y019819D01*
D15*
X001106Y015824D03*
X008006Y000924D03*
D16*
X008006Y000924D03*
X001106Y015824D03*
D17*
X000826Y021804D03*
D18*
X000826Y022804D03*
X001826Y022804D03*
X001826Y021804D03*
X002826Y021804D03*
X002826Y022804D03*
X005306Y022824D03*
X005306Y021824D03*
X006306Y021824D03*
X006306Y022824D03*
X007306Y022824D03*
X007306Y021824D03*
X008306Y021824D03*
X008306Y022824D03*
D19*
X004186Y023109D03*
X004186Y023779D03*
X004161Y015384D03*
X004831Y015384D03*
D20*
X004801Y014154D03*
X004211Y014154D03*
D21*
X005306Y014164D03*
X004176Y022604D03*
D22*
X004576Y017674D03*
X003576Y017674D03*
X002576Y017674D03*
X005576Y017674D03*
X006576Y017674D03*
X007526Y016664D03*
X004576Y007324D03*
M02*
